G04 #@! TF.FileFunction,Other,Fab,Top*
%FSLAX46Y46*%
G04 Gerber Fmt 4.6, Leading zero omitted, Abs format (unit mm)*
G04 Created by KiCad (PCBNEW 4.0.1-stable) date 3/14/2016 3:22:51 AM*
%MOMM*%
G01*
G04 APERTURE LIST*
%ADD10C,0.100000*%
%ADD11C,0.150000*%
G04 APERTURE END LIST*
D10*
D11*
X167508467Y-80587543D02*
X167556086Y-80635162D01*
X167508467Y-80682781D01*
X167460848Y-80635162D01*
X167508467Y-80587543D01*
X167508467Y-80682781D01*
X168175133Y-79682781D02*
X168270372Y-79682781D01*
X168365610Y-79730400D01*
X168413229Y-79778019D01*
X168460848Y-79873257D01*
X168508467Y-80063733D01*
X168508467Y-80301829D01*
X168460848Y-80492305D01*
X168413229Y-80587543D01*
X168365610Y-80635162D01*
X168270372Y-80682781D01*
X168175133Y-80682781D01*
X168079895Y-80635162D01*
X168032276Y-80587543D01*
X167984657Y-80492305D01*
X167937038Y-80301829D01*
X167937038Y-80063733D01*
X167984657Y-79873257D01*
X168032276Y-79778019D01*
X168079895Y-79730400D01*
X168175133Y-79682781D01*
X169460848Y-80682781D02*
X168889419Y-80682781D01*
X169175133Y-80682781D02*
X169175133Y-79682781D01*
X169079895Y-79825638D01*
X168984657Y-79920876D01*
X168889419Y-79968495D01*
X170317991Y-80016114D02*
X170317991Y-80682781D01*
X169889419Y-80016114D02*
X169889419Y-80539924D01*
X169937038Y-80635162D01*
X170032276Y-80682781D01*
X170175134Y-80682781D01*
X170270372Y-80635162D01*
X170317991Y-80587543D01*
X171127515Y-80158971D02*
X170794181Y-80158971D01*
X170794181Y-80682781D02*
X170794181Y-79682781D01*
X171270372Y-79682781D01*
X154960581Y-136377228D02*
X154960581Y-136948657D01*
X154960581Y-136662943D02*
X153960581Y-136662943D01*
X154103438Y-136758181D01*
X154198676Y-136853419D01*
X154246295Y-136948657D01*
X153960581Y-135758181D02*
X153960581Y-135662942D01*
X154008200Y-135567704D01*
X154055819Y-135520085D01*
X154151057Y-135472466D01*
X154341533Y-135424847D01*
X154579629Y-135424847D01*
X154770105Y-135472466D01*
X154865343Y-135520085D01*
X154912962Y-135567704D01*
X154960581Y-135662942D01*
X154960581Y-135758181D01*
X154912962Y-135853419D01*
X154865343Y-135901038D01*
X154770105Y-135948657D01*
X154579629Y-135996276D01*
X154341533Y-135996276D01*
X154151057Y-135948657D01*
X154055819Y-135901038D01*
X154008200Y-135853419D01*
X153960581Y-135758181D01*
X154293914Y-134567704D02*
X154960581Y-134567704D01*
X154293914Y-134996276D02*
X154817724Y-134996276D01*
X154912962Y-134948657D01*
X154960581Y-134853419D01*
X154960581Y-134710561D01*
X154912962Y-134615323D01*
X154865343Y-134567704D01*
X154436771Y-133758180D02*
X154436771Y-134091514D01*
X154960581Y-134091514D02*
X153960581Y-134091514D01*
X153960581Y-133615323D01*
X141295381Y-137977428D02*
X141295381Y-138548857D01*
X141295381Y-138263143D02*
X140295381Y-138263143D01*
X140438238Y-138358381D01*
X140533476Y-138453619D01*
X140581095Y-138548857D01*
X140295381Y-137358381D02*
X140295381Y-137263142D01*
X140343000Y-137167904D01*
X140390619Y-137120285D01*
X140485857Y-137072666D01*
X140676333Y-137025047D01*
X140914429Y-137025047D01*
X141104905Y-137072666D01*
X141200143Y-137120285D01*
X141247762Y-137167904D01*
X141295381Y-137263142D01*
X141295381Y-137358381D01*
X141247762Y-137453619D01*
X141200143Y-137501238D01*
X141104905Y-137548857D01*
X140914429Y-137596476D01*
X140676333Y-137596476D01*
X140485857Y-137548857D01*
X140390619Y-137501238D01*
X140343000Y-137453619D01*
X140295381Y-137358381D01*
X140628714Y-136167904D02*
X141295381Y-136167904D01*
X140628714Y-136596476D02*
X141152524Y-136596476D01*
X141247762Y-136548857D01*
X141295381Y-136453619D01*
X141295381Y-136310761D01*
X141247762Y-136215523D01*
X141200143Y-136167904D01*
X140771571Y-135358380D02*
X140771571Y-135691714D01*
X141295381Y-135691714D02*
X140295381Y-135691714D01*
X140295381Y-135215523D01*
X139892352Y-112964981D02*
X139987591Y-112964981D01*
X140082829Y-113012600D01*
X140130448Y-113060219D01*
X140178067Y-113155457D01*
X140225686Y-113345933D01*
X140225686Y-113584029D01*
X140178067Y-113774505D01*
X140130448Y-113869743D01*
X140082829Y-113917362D01*
X139987591Y-113964981D01*
X139892352Y-113964981D01*
X139797114Y-113917362D01*
X139749495Y-113869743D01*
X139701876Y-113774505D01*
X139654257Y-113584029D01*
X139654257Y-113345933D01*
X139701876Y-113155457D01*
X139749495Y-113060219D01*
X139797114Y-113012600D01*
X139892352Y-112964981D01*
X140654257Y-113869743D02*
X140701876Y-113917362D01*
X140654257Y-113964981D01*
X140606638Y-113917362D01*
X140654257Y-113869743D01*
X140654257Y-113964981D01*
X141320923Y-112964981D02*
X141416162Y-112964981D01*
X141511400Y-113012600D01*
X141559019Y-113060219D01*
X141606638Y-113155457D01*
X141654257Y-113345933D01*
X141654257Y-113584029D01*
X141606638Y-113774505D01*
X141559019Y-113869743D01*
X141511400Y-113917362D01*
X141416162Y-113964981D01*
X141320923Y-113964981D01*
X141225685Y-113917362D01*
X141178066Y-113869743D01*
X141130447Y-113774505D01*
X141082828Y-113584029D01*
X141082828Y-113345933D01*
X141130447Y-113155457D01*
X141178066Y-113060219D01*
X141225685Y-113012600D01*
X141320923Y-112964981D01*
X142606638Y-113964981D02*
X142035209Y-113964981D01*
X142320923Y-113964981D02*
X142320923Y-112964981D01*
X142225685Y-113107838D01*
X142130447Y-113203076D01*
X142035209Y-113250695D01*
X143463781Y-113298314D02*
X143463781Y-113964981D01*
X143035209Y-113298314D02*
X143035209Y-113822124D01*
X143082828Y-113917362D01*
X143178066Y-113964981D01*
X143320924Y-113964981D01*
X143416162Y-113917362D01*
X143463781Y-113869743D01*
X144273305Y-113441171D02*
X143939971Y-113441171D01*
X143939971Y-113964981D02*
X143939971Y-112964981D01*
X144416162Y-112964981D01*
X137849181Y-111542438D02*
X137849181Y-112113867D01*
X137849181Y-111828153D02*
X136849181Y-111828153D01*
X136992038Y-111923391D01*
X137087276Y-112018629D01*
X137134895Y-112113867D01*
X137182514Y-110685295D02*
X137849181Y-110685295D01*
X137182514Y-111113867D02*
X137706324Y-111113867D01*
X137801562Y-111066248D01*
X137849181Y-110971010D01*
X137849181Y-110828152D01*
X137801562Y-110732914D01*
X137753943Y-110685295D01*
X137325371Y-109875771D02*
X137325371Y-110209105D01*
X137849181Y-110209105D02*
X136849181Y-110209105D01*
X136849181Y-109732914D01*
X134297943Y-104405181D02*
X134393182Y-104405181D01*
X134488420Y-104452800D01*
X134536039Y-104500419D01*
X134583658Y-104595657D01*
X134631277Y-104786133D01*
X134631277Y-105024229D01*
X134583658Y-105214705D01*
X134536039Y-105309943D01*
X134488420Y-105357562D01*
X134393182Y-105405181D01*
X134297943Y-105405181D01*
X134202705Y-105357562D01*
X134155086Y-105309943D01*
X134107467Y-105214705D01*
X134059848Y-105024229D01*
X134059848Y-104786133D01*
X134107467Y-104595657D01*
X134155086Y-104500419D01*
X134202705Y-104452800D01*
X134297943Y-104405181D01*
X135059848Y-105309943D02*
X135107467Y-105357562D01*
X135059848Y-105405181D01*
X135012229Y-105357562D01*
X135059848Y-105309943D01*
X135059848Y-105405181D01*
X136059848Y-105405181D02*
X135488419Y-105405181D01*
X135774133Y-105405181D02*
X135774133Y-104405181D01*
X135678895Y-104548038D01*
X135583657Y-104643276D01*
X135488419Y-104690895D01*
X136916991Y-104738514D02*
X136916991Y-105405181D01*
X136488419Y-104738514D02*
X136488419Y-105262324D01*
X136536038Y-105357562D01*
X136631276Y-105405181D01*
X136774134Y-105405181D01*
X136869372Y-105357562D01*
X136916991Y-105309943D01*
X137726515Y-104881371D02*
X137393181Y-104881371D01*
X137393181Y-105405181D02*
X137393181Y-104405181D01*
X137869372Y-104405181D01*
X153754343Y-104523981D02*
X153849582Y-104523981D01*
X153944820Y-104571600D01*
X153992439Y-104619219D01*
X154040058Y-104714457D01*
X154087677Y-104904933D01*
X154087677Y-105143029D01*
X154040058Y-105333505D01*
X153992439Y-105428743D01*
X153944820Y-105476362D01*
X153849582Y-105523981D01*
X153754343Y-105523981D01*
X153659105Y-105476362D01*
X153611486Y-105428743D01*
X153563867Y-105333505D01*
X153516248Y-105143029D01*
X153516248Y-104904933D01*
X153563867Y-104714457D01*
X153611486Y-104619219D01*
X153659105Y-104571600D01*
X153754343Y-104523981D01*
X154516248Y-105428743D02*
X154563867Y-105476362D01*
X154516248Y-105523981D01*
X154468629Y-105476362D01*
X154516248Y-105428743D01*
X154516248Y-105523981D01*
X155516248Y-105523981D02*
X154944819Y-105523981D01*
X155230533Y-105523981D02*
X155230533Y-104523981D01*
X155135295Y-104666838D01*
X155040057Y-104762076D01*
X154944819Y-104809695D01*
X156373391Y-104857314D02*
X156373391Y-105523981D01*
X155944819Y-104857314D02*
X155944819Y-105381124D01*
X155992438Y-105476362D01*
X156087676Y-105523981D01*
X156230534Y-105523981D01*
X156325772Y-105476362D01*
X156373391Y-105428743D01*
X157182915Y-105000171D02*
X156849581Y-105000171D01*
X156849581Y-105523981D02*
X156849581Y-104523981D01*
X157325772Y-104523981D01*
X134231239Y-98574514D02*
X134231239Y-99241181D01*
X133993143Y-98193562D02*
X133755048Y-98907848D01*
X134374096Y-98907848D01*
X134755048Y-99145943D02*
X134802667Y-99193562D01*
X134755048Y-99241181D01*
X134707429Y-99193562D01*
X134755048Y-99145943D01*
X134755048Y-99241181D01*
X135136000Y-98241181D02*
X135802667Y-98241181D01*
X135374095Y-99241181D01*
X136612191Y-98574514D02*
X136612191Y-99241181D01*
X136183619Y-98574514D02*
X136183619Y-99098324D01*
X136231238Y-99193562D01*
X136326476Y-99241181D01*
X136469334Y-99241181D01*
X136564572Y-99193562D01*
X136612191Y-99145943D01*
X137421715Y-98717371D02*
X137088381Y-98717371D01*
X137088381Y-99241181D02*
X137088381Y-98241181D01*
X137564572Y-98241181D01*
X170733981Y-120121228D02*
X170733981Y-120692657D01*
X170733981Y-120406943D02*
X169733981Y-120406943D01*
X169876838Y-120502181D01*
X169972076Y-120597419D01*
X170019695Y-120692657D01*
X169733981Y-119502181D02*
X169733981Y-119406942D01*
X169781600Y-119311704D01*
X169829219Y-119264085D01*
X169924457Y-119216466D01*
X170114933Y-119168847D01*
X170353029Y-119168847D01*
X170543505Y-119216466D01*
X170638743Y-119264085D01*
X170686362Y-119311704D01*
X170733981Y-119406942D01*
X170733981Y-119502181D01*
X170686362Y-119597419D01*
X170638743Y-119645038D01*
X170543505Y-119692657D01*
X170353029Y-119740276D01*
X170114933Y-119740276D01*
X169924457Y-119692657D01*
X169829219Y-119645038D01*
X169781600Y-119597419D01*
X169733981Y-119502181D01*
X170067314Y-118311704D02*
X170733981Y-118311704D01*
X170067314Y-118740276D02*
X170591124Y-118740276D01*
X170686362Y-118692657D01*
X170733981Y-118597419D01*
X170733981Y-118454561D01*
X170686362Y-118359323D01*
X170638743Y-118311704D01*
X170210171Y-117502180D02*
X170210171Y-117835514D01*
X170733981Y-117835514D02*
X169733981Y-117835514D01*
X169733981Y-117359323D01*
X171358143Y-120975333D02*
X171405762Y-120927714D01*
X171453381Y-120975333D01*
X171405762Y-121022952D01*
X171358143Y-120975333D01*
X171453381Y-120975333D01*
X170453381Y-120308667D02*
X170453381Y-120213428D01*
X170501000Y-120118190D01*
X170548619Y-120070571D01*
X170643857Y-120022952D01*
X170834333Y-119975333D01*
X171072429Y-119975333D01*
X171262905Y-120022952D01*
X171358143Y-120070571D01*
X171405762Y-120118190D01*
X171453381Y-120213428D01*
X171453381Y-120308667D01*
X171405762Y-120403905D01*
X171358143Y-120451524D01*
X171262905Y-120499143D01*
X171072429Y-120546762D01*
X170834333Y-120546762D01*
X170643857Y-120499143D01*
X170548619Y-120451524D01*
X170501000Y-120403905D01*
X170453381Y-120308667D01*
X171453381Y-119022952D02*
X171453381Y-119594381D01*
X171453381Y-119308667D02*
X170453381Y-119308667D01*
X170596238Y-119403905D01*
X170691476Y-119499143D01*
X170739095Y-119594381D01*
X170786714Y-118165809D02*
X171453381Y-118165809D01*
X170786714Y-118594381D02*
X171310524Y-118594381D01*
X171405762Y-118546762D01*
X171453381Y-118451524D01*
X171453381Y-118308666D01*
X171405762Y-118213428D01*
X171358143Y-118165809D01*
X170929571Y-117356285D02*
X170929571Y-117689619D01*
X171453381Y-117689619D02*
X170453381Y-117689619D01*
X170453381Y-117213428D01*
X173923543Y-120994133D02*
X173971162Y-120946514D01*
X174018781Y-120994133D01*
X173971162Y-121041752D01*
X173923543Y-120994133D01*
X174018781Y-120994133D01*
X173018781Y-120327467D02*
X173018781Y-120232228D01*
X173066400Y-120136990D01*
X173114019Y-120089371D01*
X173209257Y-120041752D01*
X173399733Y-119994133D01*
X173637829Y-119994133D01*
X173828305Y-120041752D01*
X173923543Y-120089371D01*
X173971162Y-120136990D01*
X174018781Y-120232228D01*
X174018781Y-120327467D01*
X173971162Y-120422705D01*
X173923543Y-120470324D01*
X173828305Y-120517943D01*
X173637829Y-120565562D01*
X173399733Y-120565562D01*
X173209257Y-120517943D01*
X173114019Y-120470324D01*
X173066400Y-120422705D01*
X173018781Y-120327467D01*
X174018781Y-119041752D02*
X174018781Y-119613181D01*
X174018781Y-119327467D02*
X173018781Y-119327467D01*
X173161638Y-119422705D01*
X173256876Y-119517943D01*
X173304495Y-119613181D01*
X173352114Y-118184609D02*
X174018781Y-118184609D01*
X173352114Y-118613181D02*
X173875924Y-118613181D01*
X173971162Y-118565562D01*
X174018781Y-118470324D01*
X174018781Y-118327466D01*
X173971162Y-118232228D01*
X173923543Y-118184609D01*
X173494971Y-117375085D02*
X173494971Y-117708419D01*
X174018781Y-117708419D02*
X173018781Y-117708419D01*
X173018781Y-117232228D01*
X176760181Y-107024134D02*
X175760181Y-107024134D01*
X176474467Y-106690800D01*
X175760181Y-106357467D01*
X176760181Y-106357467D01*
X176760181Y-105881277D02*
X176093514Y-105881277D01*
X175760181Y-105881277D02*
X175807800Y-105928896D01*
X175855419Y-105881277D01*
X175807800Y-105833658D01*
X175760181Y-105881277D01*
X175855419Y-105881277D01*
X176712562Y-104976515D02*
X176760181Y-105071753D01*
X176760181Y-105262230D01*
X176712562Y-105357468D01*
X176664943Y-105405087D01*
X176569705Y-105452706D01*
X176283990Y-105452706D01*
X176188752Y-105405087D01*
X176141133Y-105357468D01*
X176093514Y-105262230D01*
X176093514Y-105071753D01*
X176141133Y-104976515D01*
X176760181Y-104547944D02*
X176093514Y-104547944D01*
X176283990Y-104547944D02*
X176188752Y-104500325D01*
X176141133Y-104452706D01*
X176093514Y-104357468D01*
X176093514Y-104262229D01*
X176760181Y-103786039D02*
X176712562Y-103881277D01*
X176664943Y-103928896D01*
X176569705Y-103976515D01*
X176283990Y-103976515D01*
X176188752Y-103928896D01*
X176141133Y-103881277D01*
X176093514Y-103786039D01*
X176093514Y-103643181D01*
X176141133Y-103547943D01*
X176188752Y-103500324D01*
X176283990Y-103452705D01*
X176569705Y-103452705D01*
X176664943Y-103500324D01*
X176712562Y-103547943D01*
X176760181Y-103643181D01*
X176760181Y-103786039D01*
X176712562Y-103071753D02*
X176760181Y-102928896D01*
X176760181Y-102690800D01*
X176712562Y-102595562D01*
X176664943Y-102547943D01*
X176569705Y-102500324D01*
X176474467Y-102500324D01*
X176379229Y-102547943D01*
X176331610Y-102595562D01*
X176283990Y-102690800D01*
X176236371Y-102881277D01*
X176188752Y-102976515D01*
X176141133Y-103024134D01*
X176045895Y-103071753D01*
X175950657Y-103071753D01*
X175855419Y-103024134D01*
X175807800Y-102976515D01*
X175760181Y-102881277D01*
X175760181Y-102643181D01*
X175807800Y-102500324D01*
X176760181Y-102071753D02*
X175760181Y-102071753D01*
X175760181Y-101833658D01*
X175807800Y-101690800D01*
X175903038Y-101595562D01*
X175998276Y-101547943D01*
X176188752Y-101500324D01*
X176331610Y-101500324D01*
X176522086Y-101547943D01*
X176617324Y-101595562D01*
X176712562Y-101690800D01*
X176760181Y-101833658D01*
X176760181Y-102071753D01*
X176855419Y-101309848D02*
X176855419Y-100547943D01*
X176664943Y-99738419D02*
X176712562Y-99786038D01*
X176760181Y-99928895D01*
X176760181Y-100024133D01*
X176712562Y-100166991D01*
X176617324Y-100262229D01*
X176522086Y-100309848D01*
X176331610Y-100357467D01*
X176188752Y-100357467D01*
X175998276Y-100309848D01*
X175903038Y-100262229D01*
X175807800Y-100166991D01*
X175760181Y-100024133D01*
X175760181Y-99928895D01*
X175807800Y-99786038D01*
X175855419Y-99738419D01*
X176760181Y-98881276D02*
X176236371Y-98881276D01*
X176141133Y-98928895D01*
X176093514Y-99024133D01*
X176093514Y-99214610D01*
X176141133Y-99309848D01*
X176712562Y-98881276D02*
X176760181Y-98976514D01*
X176760181Y-99214610D01*
X176712562Y-99309848D01*
X176617324Y-99357467D01*
X176522086Y-99357467D01*
X176426848Y-99309848D01*
X176379229Y-99214610D01*
X176379229Y-98976514D01*
X176331610Y-98881276D01*
X176760181Y-98405086D02*
X176093514Y-98405086D01*
X176283990Y-98405086D02*
X176188752Y-98357467D01*
X176141133Y-98309848D01*
X176093514Y-98214610D01*
X176093514Y-98119371D01*
X176760181Y-97357466D02*
X175760181Y-97357466D01*
X176712562Y-97357466D02*
X176760181Y-97452704D01*
X176760181Y-97643181D01*
X176712562Y-97738419D01*
X176664943Y-97786038D01*
X176569705Y-97833657D01*
X176283990Y-97833657D01*
X176188752Y-97786038D01*
X176141133Y-97738419D01*
X176093514Y-97643181D01*
X176093514Y-97452704D01*
X176141133Y-97357466D01*
X166897894Y-132868362D02*
X167040751Y-132915981D01*
X167278847Y-132915981D01*
X167374085Y-132868362D01*
X167421704Y-132820743D01*
X167469323Y-132725505D01*
X167469323Y-132630267D01*
X167421704Y-132535029D01*
X167374085Y-132487410D01*
X167278847Y-132439790D01*
X167088370Y-132392171D01*
X166993132Y-132344552D01*
X166945513Y-132296933D01*
X166897894Y-132201695D01*
X166897894Y-132106457D01*
X166945513Y-132011219D01*
X166993132Y-131963600D01*
X167088370Y-131915981D01*
X167326466Y-131915981D01*
X167469323Y-131963600D01*
X167755037Y-131915981D02*
X168326466Y-131915981D01*
X168040751Y-132915981D02*
X168040751Y-131915981D01*
X168612180Y-132630267D02*
X169088371Y-132630267D01*
X168516942Y-132915981D02*
X168850275Y-131915981D01*
X169183609Y-132915981D01*
X169374085Y-131915981D02*
X169945514Y-131915981D01*
X169659799Y-132915981D02*
X169659799Y-131915981D01*
X170278847Y-131915981D02*
X170278847Y-132725505D01*
X170326466Y-132820743D01*
X170374085Y-132868362D01*
X170469323Y-132915981D01*
X170659800Y-132915981D01*
X170755038Y-132868362D01*
X170802657Y-132820743D01*
X170850276Y-132725505D01*
X170850276Y-131915981D01*
X171278847Y-132868362D02*
X171421704Y-132915981D01*
X171659800Y-132915981D01*
X171755038Y-132868362D01*
X171802657Y-132820743D01*
X171850276Y-132725505D01*
X171850276Y-132630267D01*
X171802657Y-132535029D01*
X171755038Y-132487410D01*
X171659800Y-132439790D01*
X171469323Y-132392171D01*
X171374085Y-132344552D01*
X171326466Y-132296933D01*
X171278847Y-132201695D01*
X171278847Y-132106457D01*
X171326466Y-132011219D01*
X171374085Y-131963600D01*
X171469323Y-131915981D01*
X171707419Y-131915981D01*
X171850276Y-131963600D01*
X172040752Y-133011219D02*
X172802657Y-133011219D01*
X173516943Y-132915981D02*
X173040752Y-132915981D01*
X173040752Y-131915981D01*
X173850276Y-132392171D02*
X174183610Y-132392171D01*
X174326467Y-132915981D02*
X173850276Y-132915981D01*
X173850276Y-131915981D01*
X174326467Y-131915981D01*
X174755038Y-132915981D02*
X174755038Y-131915981D01*
X174993133Y-131915981D01*
X175135991Y-131963600D01*
X175231229Y-132058838D01*
X175278848Y-132154076D01*
X175326467Y-132344552D01*
X175326467Y-132487410D01*
X175278848Y-132677886D01*
X175231229Y-132773124D01*
X175135991Y-132868362D01*
X174993133Y-132915981D01*
X174755038Y-132915981D01*
X153357486Y-90876381D02*
X153357486Y-89876381D01*
X153738439Y-89876381D01*
X153833677Y-89924000D01*
X153881296Y-89971619D01*
X153928915Y-90066857D01*
X153928915Y-90209714D01*
X153881296Y-90304952D01*
X153833677Y-90352571D01*
X153738439Y-90400190D01*
X153357486Y-90400190D01*
X154928915Y-90876381D02*
X154595581Y-90400190D01*
X154357486Y-90876381D02*
X154357486Y-89876381D01*
X154738439Y-89876381D01*
X154833677Y-89924000D01*
X154881296Y-89971619D01*
X154928915Y-90066857D01*
X154928915Y-90209714D01*
X154881296Y-90304952D01*
X154833677Y-90352571D01*
X154738439Y-90400190D01*
X154357486Y-90400190D01*
X155547962Y-89876381D02*
X155738439Y-89876381D01*
X155833677Y-89924000D01*
X155928915Y-90019238D01*
X155976534Y-90209714D01*
X155976534Y-90543048D01*
X155928915Y-90733524D01*
X155833677Y-90828762D01*
X155738439Y-90876381D01*
X155547962Y-90876381D01*
X155452724Y-90828762D01*
X155357486Y-90733524D01*
X155309867Y-90543048D01*
X155309867Y-90209714D01*
X155357486Y-90019238D01*
X155452724Y-89924000D01*
X155547962Y-89876381D01*
X156928915Y-89924000D02*
X156833677Y-89876381D01*
X156690820Y-89876381D01*
X156547962Y-89924000D01*
X156452724Y-90019238D01*
X156405105Y-90114476D01*
X156357486Y-90304952D01*
X156357486Y-90447810D01*
X156405105Y-90638286D01*
X156452724Y-90733524D01*
X156547962Y-90828762D01*
X156690820Y-90876381D01*
X156786058Y-90876381D01*
X156928915Y-90828762D01*
X156976534Y-90781143D01*
X156976534Y-90447810D01*
X156786058Y-90447810D01*
X147704895Y-68184781D02*
X148276324Y-68184781D01*
X147990609Y-69184781D02*
X147990609Y-68184781D01*
X148609657Y-69184781D02*
X148609657Y-68184781D01*
X148609657Y-68660971D02*
X149181086Y-68660971D01*
X149181086Y-69184781D02*
X149181086Y-68184781D01*
X149657276Y-68660971D02*
X149990610Y-68660971D01*
X150133467Y-69184781D02*
X149657276Y-69184781D01*
X149657276Y-68184781D01*
X150133467Y-68184781D01*
X151133467Y-69184781D02*
X150800133Y-68708590D01*
X150562038Y-69184781D02*
X150562038Y-68184781D01*
X150942991Y-68184781D01*
X151038229Y-68232400D01*
X151085848Y-68280019D01*
X151133467Y-68375257D01*
X151133467Y-68518114D01*
X151085848Y-68613352D01*
X151038229Y-68660971D01*
X150942991Y-68708590D01*
X150562038Y-68708590D01*
X151562038Y-69184781D02*
X151562038Y-68184781D01*
X151895372Y-68899067D01*
X152228705Y-68184781D01*
X152228705Y-69184781D01*
X152895371Y-68184781D02*
X153085848Y-68184781D01*
X153181086Y-68232400D01*
X153276324Y-68327638D01*
X153323943Y-68518114D01*
X153323943Y-68851448D01*
X153276324Y-69041924D01*
X153181086Y-69137162D01*
X153085848Y-69184781D01*
X152895371Y-69184781D01*
X152800133Y-69137162D01*
X152704895Y-69041924D01*
X152657276Y-68851448D01*
X152657276Y-68518114D01*
X152704895Y-68327638D01*
X152800133Y-68232400D01*
X152895371Y-68184781D01*
X154323943Y-69089543D02*
X154276324Y-69137162D01*
X154133467Y-69184781D01*
X154038229Y-69184781D01*
X153895371Y-69137162D01*
X153800133Y-69041924D01*
X153752514Y-68946686D01*
X153704895Y-68756210D01*
X153704895Y-68613352D01*
X153752514Y-68422876D01*
X153800133Y-68327638D01*
X153895371Y-68232400D01*
X154038229Y-68184781D01*
X154133467Y-68184781D01*
X154276324Y-68232400D01*
X154323943Y-68280019D01*
X154942990Y-68184781D02*
X155133467Y-68184781D01*
X155228705Y-68232400D01*
X155323943Y-68327638D01*
X155371562Y-68518114D01*
X155371562Y-68851448D01*
X155323943Y-69041924D01*
X155228705Y-69137162D01*
X155133467Y-69184781D01*
X154942990Y-69184781D01*
X154847752Y-69137162D01*
X154752514Y-69041924D01*
X154704895Y-68851448D01*
X154704895Y-68518114D01*
X154752514Y-68327638D01*
X154847752Y-68232400D01*
X154942990Y-68184781D01*
X155800133Y-68184781D02*
X155800133Y-68994305D01*
X155847752Y-69089543D01*
X155895371Y-69137162D01*
X155990609Y-69184781D01*
X156181086Y-69184781D01*
X156276324Y-69137162D01*
X156323943Y-69089543D01*
X156371562Y-68994305D01*
X156371562Y-68184781D01*
X156847752Y-69184781D02*
X156847752Y-68184781D01*
X157228705Y-68184781D01*
X157323943Y-68232400D01*
X157371562Y-68280019D01*
X157419181Y-68375257D01*
X157419181Y-68518114D01*
X157371562Y-68613352D01*
X157323943Y-68660971D01*
X157228705Y-68708590D01*
X156847752Y-68708590D01*
X158323943Y-69184781D02*
X157847752Y-69184781D01*
X157847752Y-68184781D01*
X158657276Y-68660971D02*
X158990610Y-68660971D01*
X159133467Y-69184781D02*
X158657276Y-69184781D01*
X158657276Y-68184781D01*
X159133467Y-68184781D01*
X147902800Y-63714381D02*
X148093277Y-63714381D01*
X148188515Y-63762000D01*
X148283753Y-63857238D01*
X148331372Y-64047714D01*
X148331372Y-64381048D01*
X148283753Y-64571524D01*
X148188515Y-64666762D01*
X148093277Y-64714381D01*
X147902800Y-64714381D01*
X147807562Y-64666762D01*
X147712324Y-64571524D01*
X147664705Y-64381048D01*
X147664705Y-64047714D01*
X147712324Y-63857238D01*
X147807562Y-63762000D01*
X147902800Y-63714381D01*
X148617086Y-63714381D02*
X148950419Y-64714381D01*
X149283753Y-63714381D01*
X149617086Y-64190571D02*
X149950420Y-64190571D01*
X150093277Y-64714381D02*
X149617086Y-64714381D01*
X149617086Y-63714381D01*
X150093277Y-63714381D01*
X150521848Y-64714381D02*
X150521848Y-63714381D01*
X151093277Y-64714381D01*
X151093277Y-63714381D01*
X156835743Y-146823181D02*
X156835743Y-147632705D01*
X156883362Y-147727943D01*
X156930981Y-147775562D01*
X157026219Y-147823181D01*
X157216696Y-147823181D01*
X157311934Y-147775562D01*
X157359553Y-147727943D01*
X157407172Y-147632705D01*
X157407172Y-146823181D01*
X157835743Y-147775562D02*
X157978600Y-147823181D01*
X158216696Y-147823181D01*
X158311934Y-147775562D01*
X158359553Y-147727943D01*
X158407172Y-147632705D01*
X158407172Y-147537467D01*
X158359553Y-147442229D01*
X158311934Y-147394610D01*
X158216696Y-147346990D01*
X158026219Y-147299371D01*
X157930981Y-147251752D01*
X157883362Y-147204133D01*
X157835743Y-147108895D01*
X157835743Y-147013657D01*
X157883362Y-146918419D01*
X157930981Y-146870800D01*
X158026219Y-146823181D01*
X158264315Y-146823181D01*
X158407172Y-146870800D01*
X159169077Y-147299371D02*
X159311934Y-147346990D01*
X159359553Y-147394610D01*
X159407172Y-147489848D01*
X159407172Y-147632705D01*
X159359553Y-147727943D01*
X159311934Y-147775562D01*
X159216696Y-147823181D01*
X158835743Y-147823181D01*
X158835743Y-146823181D01*
X159169077Y-146823181D01*
X159264315Y-146870800D01*
X159311934Y-146918419D01*
X159359553Y-147013657D01*
X159359553Y-147108895D01*
X159311934Y-147204133D01*
X159264315Y-147251752D01*
X159169077Y-147299371D01*
X158835743Y-147299371D01*
X159597648Y-147918419D02*
X160359553Y-147918419D01*
X160930982Y-147299371D02*
X161073839Y-147346990D01*
X161121458Y-147394610D01*
X161169077Y-147489848D01*
X161169077Y-147632705D01*
X161121458Y-147727943D01*
X161073839Y-147775562D01*
X160978601Y-147823181D01*
X160597648Y-147823181D01*
X160597648Y-146823181D01*
X160930982Y-146823181D01*
X161026220Y-146870800D01*
X161073839Y-146918419D01*
X161121458Y-147013657D01*
X161121458Y-147108895D01*
X161073839Y-147204133D01*
X161026220Y-147251752D01*
X160930982Y-147299371D01*
X160597648Y-147299371D01*
X134268057Y-93822781D02*
X134268057Y-92822781D01*
X134601391Y-93537067D01*
X134934724Y-92822781D01*
X134934724Y-93822781D01*
X135410914Y-93822781D02*
X135410914Y-92822781D01*
X135744248Y-93537067D01*
X136077581Y-92822781D01*
X136077581Y-93822781D01*
X136553771Y-92822781D02*
X136553771Y-93632305D01*
X136601390Y-93727543D01*
X136649009Y-93775162D01*
X136744247Y-93822781D01*
X136934724Y-93822781D01*
X137029962Y-93775162D01*
X137077581Y-93727543D01*
X137125200Y-93632305D01*
X137125200Y-92822781D01*
X137601390Y-93822781D02*
X137601390Y-92822781D01*
X138172819Y-93822781D01*
X138172819Y-92822781D01*
X138601390Y-92918019D02*
X138649009Y-92870400D01*
X138744247Y-92822781D01*
X138982343Y-92822781D01*
X139077581Y-92870400D01*
X139125200Y-92918019D01*
X139172819Y-93013257D01*
X139172819Y-93108495D01*
X139125200Y-93251352D01*
X138553771Y-93822781D01*
X139172819Y-93822781D01*
X139553771Y-92918019D02*
X139601390Y-92870400D01*
X139696628Y-92822781D01*
X139934724Y-92822781D01*
X140029962Y-92870400D01*
X140077581Y-92918019D01*
X140125200Y-93013257D01*
X140125200Y-93108495D01*
X140077581Y-93251352D01*
X139506152Y-93822781D01*
X140125200Y-93822781D01*
X141077581Y-93822781D02*
X140506152Y-93822781D01*
X140791866Y-93822781D02*
X140791866Y-92822781D01*
X140696628Y-92965638D01*
X140601390Y-93060876D01*
X140506152Y-93108495D01*
X142029962Y-93822781D02*
X141458533Y-93822781D01*
X141744247Y-93822781D02*
X141744247Y-92822781D01*
X141649009Y-92965638D01*
X141553771Y-93060876D01*
X141458533Y-93108495D01*
X141075257Y-77885581D02*
X141075257Y-76885581D01*
X141408591Y-77599867D01*
X141741924Y-76885581D01*
X141741924Y-77885581D01*
X142218114Y-77885581D02*
X142218114Y-76885581D01*
X142551448Y-77599867D01*
X142884781Y-76885581D01*
X142884781Y-77885581D01*
X143360971Y-76885581D02*
X143360971Y-77695105D01*
X143408590Y-77790343D01*
X143456209Y-77837962D01*
X143551447Y-77885581D01*
X143741924Y-77885581D01*
X143837162Y-77837962D01*
X143884781Y-77790343D01*
X143932400Y-77695105D01*
X143932400Y-76885581D01*
X144408590Y-77885581D02*
X144408590Y-76885581D01*
X144980019Y-77885581D01*
X144980019Y-76885581D01*
X145408590Y-76980819D02*
X145456209Y-76933200D01*
X145551447Y-76885581D01*
X145789543Y-76885581D01*
X145884781Y-76933200D01*
X145932400Y-76980819D01*
X145980019Y-77076057D01*
X145980019Y-77171295D01*
X145932400Y-77314152D01*
X145360971Y-77885581D01*
X145980019Y-77885581D01*
X146932400Y-77885581D02*
X146360971Y-77885581D01*
X146646685Y-77885581D02*
X146646685Y-76885581D01*
X146551447Y-77028438D01*
X146456209Y-77123676D01*
X146360971Y-77171295D01*
X147884781Y-77885581D02*
X147313352Y-77885581D01*
X147599066Y-77885581D02*
X147599066Y-76885581D01*
X147503828Y-77028438D01*
X147408590Y-77123676D01*
X147313352Y-77171295D01*
X148837162Y-77885581D02*
X148265733Y-77885581D01*
X148551447Y-77885581D02*
X148551447Y-76885581D01*
X148456209Y-77028438D01*
X148360971Y-77123676D01*
X148265733Y-77171295D01*
X142833381Y-79015743D02*
X141833381Y-79015743D01*
X142547667Y-78682409D01*
X141833381Y-78349076D01*
X142833381Y-78349076D01*
X142833381Y-77872886D02*
X141833381Y-77872886D01*
X142547667Y-77539552D01*
X141833381Y-77206219D01*
X142833381Y-77206219D01*
X141833381Y-76730029D02*
X142642905Y-76730029D01*
X142738143Y-76682410D01*
X142785762Y-76634791D01*
X142833381Y-76539553D01*
X142833381Y-76349076D01*
X142785762Y-76253838D01*
X142738143Y-76206219D01*
X142642905Y-76158600D01*
X141833381Y-76158600D01*
X142833381Y-75682410D02*
X141833381Y-75682410D01*
X142833381Y-75110981D01*
X141833381Y-75110981D01*
X141928619Y-74682410D02*
X141881000Y-74634791D01*
X141833381Y-74539553D01*
X141833381Y-74301457D01*
X141881000Y-74206219D01*
X141928619Y-74158600D01*
X142023857Y-74110981D01*
X142119095Y-74110981D01*
X142261952Y-74158600D01*
X142833381Y-74730029D01*
X142833381Y-74110981D01*
X142833381Y-73158600D02*
X142833381Y-73730029D01*
X142833381Y-73444315D02*
X141833381Y-73444315D01*
X141976238Y-73539553D01*
X142071476Y-73634791D01*
X142119095Y-73730029D01*
X142833381Y-72206219D02*
X142833381Y-72777648D01*
X142833381Y-72491934D02*
X141833381Y-72491934D01*
X141976238Y-72587172D01*
X142071476Y-72682410D01*
X142119095Y-72777648D01*
X142833381Y-71253838D02*
X142833381Y-71825267D01*
X142833381Y-71539553D02*
X141833381Y-71539553D01*
X141976238Y-71634791D01*
X142071476Y-71730029D01*
X142119095Y-71825267D01*
X168939057Y-122905781D02*
X168939057Y-121905781D01*
X169272391Y-122620067D01*
X169605724Y-121905781D01*
X169605724Y-122905781D01*
X170081914Y-122905781D02*
X170081914Y-121905781D01*
X170415248Y-122620067D01*
X170748581Y-121905781D01*
X170748581Y-122905781D01*
X171224771Y-121905781D02*
X171224771Y-122715305D01*
X171272390Y-122810543D01*
X171320009Y-122858162D01*
X171415247Y-122905781D01*
X171605724Y-122905781D01*
X171700962Y-122858162D01*
X171748581Y-122810543D01*
X171796200Y-122715305D01*
X171796200Y-121905781D01*
X172272390Y-122905781D02*
X172272390Y-121905781D01*
X172843819Y-122905781D01*
X172843819Y-121905781D01*
X173272390Y-122001019D02*
X173320009Y-121953400D01*
X173415247Y-121905781D01*
X173653343Y-121905781D01*
X173748581Y-121953400D01*
X173796200Y-122001019D01*
X173843819Y-122096257D01*
X173843819Y-122191495D01*
X173796200Y-122334352D01*
X173224771Y-122905781D01*
X173843819Y-122905781D01*
X174224771Y-122001019D02*
X174272390Y-121953400D01*
X174367628Y-121905781D01*
X174605724Y-121905781D01*
X174700962Y-121953400D01*
X174748581Y-122001019D01*
X174796200Y-122096257D01*
X174796200Y-122191495D01*
X174748581Y-122334352D01*
X174177152Y-122905781D01*
X174796200Y-122905781D01*
X175748581Y-122905781D02*
X175177152Y-122905781D01*
X175462866Y-122905781D02*
X175462866Y-121905781D01*
X175367628Y-122048638D01*
X175272390Y-122143876D01*
X175177152Y-122191495D01*
X176700962Y-122905781D02*
X176129533Y-122905781D01*
X176415247Y-122905781D02*
X176415247Y-121905781D01*
X176320009Y-122048638D01*
X176224771Y-122143876D01*
X176129533Y-122191495D01*
X166884114Y-73761504D02*
X167550781Y-73761504D01*
X166503162Y-73999600D02*
X167217448Y-74237695D01*
X167217448Y-73618647D01*
X166550781Y-73332933D02*
X166550781Y-72666266D01*
X167550781Y-73094838D01*
X166550781Y-72094838D02*
X166550781Y-71999599D01*
X166598400Y-71904361D01*
X166646019Y-71856742D01*
X166741257Y-71809123D01*
X166931733Y-71761504D01*
X167169829Y-71761504D01*
X167360305Y-71809123D01*
X167455543Y-71856742D01*
X167503162Y-71904361D01*
X167550781Y-71999599D01*
X167550781Y-72094838D01*
X167503162Y-72190076D01*
X167455543Y-72237695D01*
X167360305Y-72285314D01*
X167169829Y-72332933D01*
X166931733Y-72332933D01*
X166741257Y-72285314D01*
X166646019Y-72237695D01*
X166598400Y-72190076D01*
X166550781Y-72094838D01*
X163074114Y-73837704D02*
X163740781Y-73837704D01*
X162693162Y-74075800D02*
X163407448Y-74313895D01*
X163407448Y-73694847D01*
X162740781Y-73409133D02*
X162740781Y-72742466D01*
X163740781Y-73171038D01*
X162740781Y-72171038D02*
X162740781Y-72075799D01*
X162788400Y-71980561D01*
X162836019Y-71932942D01*
X162931257Y-71885323D01*
X163121733Y-71837704D01*
X163359829Y-71837704D01*
X163550305Y-71885323D01*
X163645543Y-71932942D01*
X163693162Y-71980561D01*
X163740781Y-72075799D01*
X163740781Y-72171038D01*
X163693162Y-72266276D01*
X163645543Y-72313895D01*
X163550305Y-72361514D01*
X163359829Y-72409133D01*
X163121733Y-72409133D01*
X162931257Y-72361514D01*
X162836019Y-72313895D01*
X162788400Y-72266276D01*
X162740781Y-72171038D01*
X134196153Y-92476581D02*
X133624724Y-92476581D01*
X133910438Y-92476581D02*
X133910438Y-91476581D01*
X133815200Y-91619438D01*
X133719962Y-91714676D01*
X133624724Y-91762295D01*
X134624724Y-92476581D02*
X134624724Y-91476581D01*
X134719962Y-92095629D02*
X135005677Y-92476581D01*
X135005677Y-91809914D02*
X134624724Y-92190867D01*
X145164276Y-73535981D02*
X145830943Y-73535981D01*
X145402371Y-74535981D01*
X146688086Y-73535981D02*
X146211895Y-73535981D01*
X146164276Y-74012171D01*
X146211895Y-73964552D01*
X146307133Y-73916933D01*
X146545229Y-73916933D01*
X146640467Y-73964552D01*
X146688086Y-74012171D01*
X146735705Y-74107410D01*
X146735705Y-74345505D01*
X146688086Y-74440743D01*
X146640467Y-74488362D01*
X146545229Y-74535981D01*
X146307133Y-74535981D01*
X146211895Y-74488362D01*
X146164276Y-74440743D01*
X137798276Y-73485181D02*
X138464943Y-73485181D01*
X138036371Y-74485181D01*
X139322086Y-73485181D02*
X138845895Y-73485181D01*
X138798276Y-73961371D01*
X138845895Y-73913752D01*
X138941133Y-73866133D01*
X139179229Y-73866133D01*
X139274467Y-73913752D01*
X139322086Y-73961371D01*
X139369705Y-74056610D01*
X139369705Y-74294705D01*
X139322086Y-74389943D01*
X139274467Y-74437562D01*
X139179229Y-74485181D01*
X138941133Y-74485181D01*
X138845895Y-74437562D01*
X138798276Y-74389943D01*
X134785124Y-118748381D02*
X134213695Y-118748381D01*
X134499409Y-118748381D02*
X134499409Y-117748381D01*
X134404171Y-117891238D01*
X134308933Y-117986476D01*
X134213695Y-118034095D01*
X135404171Y-117748381D02*
X135499410Y-117748381D01*
X135594648Y-117796000D01*
X135642267Y-117843619D01*
X135689886Y-117938857D01*
X135737505Y-118129333D01*
X135737505Y-118367429D01*
X135689886Y-118557905D01*
X135642267Y-118653143D01*
X135594648Y-118700762D01*
X135499410Y-118748381D01*
X135404171Y-118748381D01*
X135308933Y-118700762D01*
X135261314Y-118653143D01*
X135213695Y-118557905D01*
X135166076Y-118367429D01*
X135166076Y-118129333D01*
X135213695Y-117938857D01*
X135261314Y-117843619D01*
X135308933Y-117796000D01*
X135404171Y-117748381D01*
X134785124Y-121034381D02*
X134213695Y-121034381D01*
X134499409Y-121034381D02*
X134499409Y-120034381D01*
X134404171Y-120177238D01*
X134308933Y-120272476D01*
X134213695Y-120320095D01*
X135404171Y-120034381D02*
X135499410Y-120034381D01*
X135594648Y-120082000D01*
X135642267Y-120129619D01*
X135689886Y-120224857D01*
X135737505Y-120415333D01*
X135737505Y-120653429D01*
X135689886Y-120843905D01*
X135642267Y-120939143D01*
X135594648Y-120986762D01*
X135499410Y-121034381D01*
X135404171Y-121034381D01*
X135308933Y-120986762D01*
X135261314Y-120939143D01*
X135213695Y-120843905D01*
X135166076Y-120653429D01*
X135166076Y-120415333D01*
X135213695Y-120224857D01*
X135261314Y-120129619D01*
X135308933Y-120082000D01*
X135404171Y-120034381D01*
X134785124Y-123371181D02*
X134213695Y-123371181D01*
X134499409Y-123371181D02*
X134499409Y-122371181D01*
X134404171Y-122514038D01*
X134308933Y-122609276D01*
X134213695Y-122656895D01*
X135404171Y-122371181D02*
X135499410Y-122371181D01*
X135594648Y-122418800D01*
X135642267Y-122466419D01*
X135689886Y-122561657D01*
X135737505Y-122752133D01*
X135737505Y-122990229D01*
X135689886Y-123180705D01*
X135642267Y-123275943D01*
X135594648Y-123323562D01*
X135499410Y-123371181D01*
X135404171Y-123371181D01*
X135308933Y-123323562D01*
X135261314Y-123275943D01*
X135213695Y-123180705D01*
X135166076Y-122990229D01*
X135166076Y-122752133D01*
X135213695Y-122561657D01*
X135261314Y-122466419D01*
X135308933Y-122418800D01*
X135404171Y-122371181D01*
X134785124Y-125758781D02*
X134213695Y-125758781D01*
X134499409Y-125758781D02*
X134499409Y-124758781D01*
X134404171Y-124901638D01*
X134308933Y-124996876D01*
X134213695Y-125044495D01*
X135404171Y-124758781D02*
X135499410Y-124758781D01*
X135594648Y-124806400D01*
X135642267Y-124854019D01*
X135689886Y-124949257D01*
X135737505Y-125139733D01*
X135737505Y-125377829D01*
X135689886Y-125568305D01*
X135642267Y-125663543D01*
X135594648Y-125711162D01*
X135499410Y-125758781D01*
X135404171Y-125758781D01*
X135308933Y-125711162D01*
X135261314Y-125663543D01*
X135213695Y-125568305D01*
X135166076Y-125377829D01*
X135166076Y-125139733D01*
X135213695Y-124949257D01*
X135261314Y-124854019D01*
X135308933Y-124806400D01*
X135404171Y-124758781D01*
X177033324Y-109344114D02*
X177033324Y-110010781D01*
X176795228Y-108963162D02*
X176557133Y-109677448D01*
X177176181Y-109677448D01*
X177461895Y-109010781D02*
X178128562Y-109010781D01*
X177699990Y-110010781D01*
X178509514Y-110010781D02*
X178509514Y-109010781D01*
X178604752Y-109629829D02*
X178890467Y-110010781D01*
X178890467Y-109344114D02*
X178509514Y-109725067D01*
X176332324Y-95205314D02*
X176332324Y-95871981D01*
X176094228Y-94824362D02*
X175856133Y-95538648D01*
X176475181Y-95538648D01*
X176760895Y-94871981D02*
X177427562Y-94871981D01*
X176998990Y-95871981D01*
X177808514Y-95871981D02*
X177808514Y-94871981D01*
X177903752Y-95491029D02*
X178189467Y-95871981D01*
X178189467Y-95205314D02*
X177808514Y-95586267D01*
X170538981Y-129089066D02*
X170538981Y-129660495D01*
X170538981Y-129374781D02*
X169538981Y-129374781D01*
X169681838Y-129470019D01*
X169777076Y-129565257D01*
X169824695Y-129660495D01*
X169538981Y-128470019D02*
X169538981Y-128374780D01*
X169586600Y-128279542D01*
X169634219Y-128231923D01*
X169729457Y-128184304D01*
X169919933Y-128136685D01*
X170158029Y-128136685D01*
X170348505Y-128184304D01*
X170443743Y-128231923D01*
X170491362Y-128279542D01*
X170538981Y-128374780D01*
X170538981Y-128470019D01*
X170491362Y-128565257D01*
X170443743Y-128612876D01*
X170348505Y-128660495D01*
X170158029Y-128708114D01*
X169919933Y-128708114D01*
X169729457Y-128660495D01*
X169634219Y-128612876D01*
X169586600Y-128565257D01*
X169538981Y-128470019D01*
X169538981Y-127517638D02*
X169538981Y-127422399D01*
X169586600Y-127327161D01*
X169634219Y-127279542D01*
X169729457Y-127231923D01*
X169919933Y-127184304D01*
X170158029Y-127184304D01*
X170348505Y-127231923D01*
X170443743Y-127279542D01*
X170491362Y-127327161D01*
X170538981Y-127422399D01*
X170538981Y-127517638D01*
X170491362Y-127612876D01*
X170443743Y-127660495D01*
X170348505Y-127708114D01*
X170158029Y-127755733D01*
X169919933Y-127755733D01*
X169729457Y-127708114D01*
X169634219Y-127660495D01*
X169586600Y-127612876D01*
X169538981Y-127517638D01*
X128733895Y-80418181D02*
X128733895Y-79418181D01*
X129114848Y-79418181D01*
X129210086Y-79465800D01*
X129257705Y-79513419D01*
X129305324Y-79608657D01*
X129305324Y-79751514D01*
X129257705Y-79846752D01*
X129210086Y-79894371D01*
X129114848Y-79941990D01*
X128733895Y-79941990D01*
X129733895Y-80418181D02*
X129733895Y-79418181D01*
X130210085Y-79894371D02*
X130543419Y-79894371D01*
X130686276Y-80418181D02*
X130210085Y-80418181D01*
X130210085Y-79418181D01*
X130686276Y-79418181D01*
X131019609Y-79418181D02*
X131686276Y-79418181D01*
X131019609Y-80418181D01*
X131686276Y-80418181D01*
X132257704Y-79418181D02*
X132448181Y-79418181D01*
X132543419Y-79465800D01*
X132638657Y-79561038D01*
X132686276Y-79751514D01*
X132686276Y-80084848D01*
X132638657Y-80275324D01*
X132543419Y-80370562D01*
X132448181Y-80418181D01*
X132257704Y-80418181D01*
X132162466Y-80370562D01*
X132067228Y-80275324D01*
X132019609Y-80084848D01*
X132019609Y-79751514D01*
X132067228Y-79561038D01*
X132162466Y-79465800D01*
X132257704Y-79418181D01*
X132876752Y-80513419D02*
X133638657Y-80513419D01*
X134210086Y-79894371D02*
X134352943Y-79941990D01*
X134400562Y-79989610D01*
X134448181Y-80084848D01*
X134448181Y-80227705D01*
X134400562Y-80322943D01*
X134352943Y-80370562D01*
X134257705Y-80418181D01*
X133876752Y-80418181D01*
X133876752Y-79418181D01*
X134210086Y-79418181D01*
X134305324Y-79465800D01*
X134352943Y-79513419D01*
X134400562Y-79608657D01*
X134400562Y-79703895D01*
X134352943Y-79799133D01*
X134305324Y-79846752D01*
X134210086Y-79894371D01*
X133876752Y-79894371D01*
X134876752Y-79418181D02*
X134876752Y-80227705D01*
X134924371Y-80322943D01*
X134971990Y-80370562D01*
X135067228Y-80418181D01*
X135257705Y-80418181D01*
X135352943Y-80370562D01*
X135400562Y-80322943D01*
X135448181Y-80227705D01*
X135448181Y-79418181D01*
X135829133Y-79418181D02*
X136495800Y-79418181D01*
X135829133Y-80418181D01*
X136495800Y-80418181D01*
X136781514Y-79418181D02*
X137448181Y-79418181D01*
X136781514Y-80418181D01*
X137448181Y-80418181D01*
X137829133Y-79894371D02*
X138162467Y-79894371D01*
X138305324Y-80418181D02*
X137829133Y-80418181D01*
X137829133Y-79418181D01*
X138305324Y-79418181D01*
X139305324Y-80418181D02*
X138971990Y-79941990D01*
X138733895Y-80418181D02*
X138733895Y-79418181D01*
X139114848Y-79418181D01*
X139210086Y-79465800D01*
X139257705Y-79513419D01*
X139305324Y-79608657D01*
X139305324Y-79751514D01*
X139257705Y-79846752D01*
X139210086Y-79894371D01*
X139114848Y-79941990D01*
X138733895Y-79941990D01*
X147045699Y-109471503D02*
X147180386Y-109404160D01*
X147348745Y-109235800D01*
X147382417Y-109134785D01*
X147382417Y-109067442D01*
X147348745Y-108966427D01*
X147281401Y-108899083D01*
X147180386Y-108865412D01*
X147113043Y-108865412D01*
X147012027Y-108899083D01*
X146843668Y-109000098D01*
X146742653Y-109033770D01*
X146675309Y-109033770D01*
X146574294Y-109000098D01*
X146506951Y-108932755D01*
X146473279Y-108831740D01*
X146473279Y-108764396D01*
X146506951Y-108663381D01*
X146675310Y-108495022D01*
X146809997Y-108427679D01*
X146978355Y-108191976D02*
X147382417Y-107787915D01*
X147887492Y-108697053D02*
X147180386Y-107989946D01*
X148325225Y-108259320D02*
X147618119Y-107552213D01*
X148358898Y-107821587D01*
X148089523Y-107080808D01*
X148796630Y-107787915D01*
X148358897Y-106811435D02*
X148796630Y-106373702D01*
X148830301Y-106878778D01*
X148931317Y-106777762D01*
X149032332Y-106744091D01*
X149099676Y-106744091D01*
X149200691Y-106777763D01*
X149369050Y-106946122D01*
X149402722Y-107047137D01*
X149402722Y-107114480D01*
X149369050Y-107215495D01*
X149167019Y-107417526D01*
X149066004Y-107451198D01*
X148998660Y-107451198D01*
X149133347Y-106171671D02*
X149133347Y-106104328D01*
X149167019Y-106003313D01*
X149335378Y-105834953D01*
X149436394Y-105801282D01*
X149503737Y-105801282D01*
X149604752Y-105834953D01*
X149672096Y-105902297D01*
X149739439Y-106036984D01*
X149739439Y-106845106D01*
X150177172Y-106407373D01*
X150345531Y-105498236D02*
X150109828Y-105733938D01*
X150480217Y-106104328D02*
X149773111Y-105397221D01*
X150109829Y-105060503D01*
X150513889Y-104656443D02*
X150581233Y-104589098D01*
X150682248Y-104555427D01*
X150749592Y-104555427D01*
X150850607Y-104589098D01*
X151018966Y-104690114D01*
X151187325Y-104858473D01*
X151288340Y-105026831D01*
X151322012Y-105127847D01*
X151322012Y-105195190D01*
X151288340Y-105296205D01*
X151220996Y-105363549D01*
X151119981Y-105397221D01*
X151052637Y-105397221D01*
X150951622Y-105363549D01*
X150783264Y-105262534D01*
X150614904Y-105094175D01*
X150513889Y-104925816D01*
X150480217Y-104824801D01*
X150480217Y-104757458D01*
X150513889Y-104656443D01*
X150985294Y-104185038D02*
X151423027Y-103747305D01*
X151456698Y-104252381D01*
X151557714Y-104151365D01*
X151658729Y-104117694D01*
X151726072Y-104117694D01*
X151827088Y-104151366D01*
X151995447Y-104319725D01*
X152029119Y-104420740D01*
X152029119Y-104488083D01*
X151995447Y-104589098D01*
X151793416Y-104791129D01*
X151692401Y-104824801D01*
X151625057Y-104824801D01*
X151860759Y-103309572D02*
X151928103Y-103242228D01*
X152029119Y-103208557D01*
X152096462Y-103208557D01*
X152197477Y-103242228D01*
X152365836Y-103343243D01*
X152534195Y-103511603D01*
X152635210Y-103679961D01*
X152668882Y-103780977D01*
X152668882Y-103848320D01*
X152635210Y-103949335D01*
X152567866Y-104016679D01*
X152466851Y-104050351D01*
X152399508Y-104050351D01*
X152298492Y-104016679D01*
X152130134Y-103915664D01*
X151961774Y-103747305D01*
X151860759Y-103578946D01*
X151827088Y-103477931D01*
X151827088Y-103410588D01*
X151860759Y-103309572D01*
X153443332Y-103006526D02*
X153443332Y-103073870D01*
X153375989Y-103208557D01*
X153308645Y-103275900D01*
X153173958Y-103343244D01*
X153039271Y-103343244D01*
X152938256Y-103309572D01*
X152769897Y-103208557D01*
X152668881Y-103107541D01*
X152567866Y-102939183D01*
X152534194Y-102838168D01*
X152534194Y-102703481D01*
X152601539Y-102568793D01*
X152668882Y-102501450D01*
X152803569Y-102434106D01*
X152870912Y-102434106D01*
X164016419Y-85237581D02*
X164016419Y-84237581D01*
X164349753Y-84951867D01*
X164683086Y-84237581D01*
X164683086Y-85237581D01*
X165111657Y-84951867D02*
X165587848Y-84951867D01*
X165016419Y-85237581D02*
X165349752Y-84237581D01*
X165683086Y-85237581D01*
X165921181Y-84237581D02*
X166587848Y-85237581D01*
X166587848Y-84237581D02*
X165921181Y-85237581D01*
X166873562Y-84237581D02*
X167492610Y-84237581D01*
X167159276Y-84618533D01*
X167302134Y-84618533D01*
X167397372Y-84666152D01*
X167444991Y-84713771D01*
X167492610Y-84809010D01*
X167492610Y-85047105D01*
X167444991Y-85142343D01*
X167397372Y-85189962D01*
X167302134Y-85237581D01*
X167016419Y-85237581D01*
X166921181Y-85189962D01*
X166873562Y-85142343D01*
X168444991Y-85237581D02*
X167873562Y-85237581D01*
X168159276Y-85237581D02*
X168159276Y-84237581D01*
X168064038Y-84380438D01*
X167968800Y-84475676D01*
X167873562Y-84523295D01*
X169016419Y-84666152D02*
X168921181Y-84618533D01*
X168873562Y-84570914D01*
X168825943Y-84475676D01*
X168825943Y-84428057D01*
X168873562Y-84332819D01*
X168921181Y-84285200D01*
X169016419Y-84237581D01*
X169206896Y-84237581D01*
X169302134Y-84285200D01*
X169349753Y-84332819D01*
X169397372Y-84428057D01*
X169397372Y-84475676D01*
X169349753Y-84570914D01*
X169302134Y-84618533D01*
X169206896Y-84666152D01*
X169016419Y-84666152D01*
X168921181Y-84713771D01*
X168873562Y-84761390D01*
X168825943Y-84856629D01*
X168825943Y-85047105D01*
X168873562Y-85142343D01*
X168921181Y-85189962D01*
X169016419Y-85237581D01*
X169206896Y-85237581D01*
X169302134Y-85189962D01*
X169349753Y-85142343D01*
X169397372Y-85047105D01*
X169397372Y-84856629D01*
X169349753Y-84761390D01*
X169302134Y-84713771D01*
X169206896Y-84666152D01*
X170302134Y-84237581D02*
X169825943Y-84237581D01*
X169778324Y-84713771D01*
X169825943Y-84666152D01*
X169921181Y-84618533D01*
X170159277Y-84618533D01*
X170254515Y-84666152D01*
X170302134Y-84713771D01*
X170349753Y-84809010D01*
X170349753Y-85047105D01*
X170302134Y-85142343D01*
X170254515Y-85189962D01*
X170159277Y-85237581D01*
X169921181Y-85237581D01*
X169825943Y-85189962D01*
X169778324Y-85142343D01*
X171254515Y-84237581D02*
X170778324Y-84237581D01*
X170730705Y-84713771D01*
X170778324Y-84666152D01*
X170873562Y-84618533D01*
X171111658Y-84618533D01*
X171206896Y-84666152D01*
X171254515Y-84713771D01*
X171302134Y-84809010D01*
X171302134Y-85047105D01*
X171254515Y-85142343D01*
X171206896Y-85189962D01*
X171111658Y-85237581D01*
X170873562Y-85237581D01*
X170778324Y-85189962D01*
X170730705Y-85142343D01*
X171730705Y-85237581D02*
X171730705Y-84237581D01*
X172302134Y-85237581D02*
X171873562Y-84666152D01*
X172302134Y-84237581D02*
X171730705Y-84809010D01*
X172683086Y-84951867D02*
X173159277Y-84951867D01*
X172587848Y-85237581D02*
X172921181Y-84237581D01*
X173254515Y-85237581D01*
X173540229Y-85189962D02*
X173683086Y-85237581D01*
X173921182Y-85237581D01*
X174016420Y-85189962D01*
X174064039Y-85142343D01*
X174111658Y-85047105D01*
X174111658Y-84951867D01*
X174064039Y-84856629D01*
X174016420Y-84809010D01*
X173921182Y-84761390D01*
X173730705Y-84713771D01*
X173635467Y-84666152D01*
X173587848Y-84618533D01*
X173540229Y-84523295D01*
X173540229Y-84428057D01*
X173587848Y-84332819D01*
X173635467Y-84285200D01*
X173730705Y-84237581D01*
X173968801Y-84237581D01*
X174111658Y-84285200D01*
X174492610Y-84951867D02*
X174968801Y-84951867D01*
X174397372Y-85237581D02*
X174730705Y-84237581D01*
X175064039Y-85237581D01*
X148585181Y-137745457D02*
X148585181Y-138221648D01*
X147585181Y-138221648D01*
X148585181Y-137412124D02*
X147585181Y-137412124D01*
X148299467Y-137078790D01*
X147585181Y-136745457D01*
X148585181Y-136745457D01*
X148537562Y-136316886D02*
X148585181Y-136174029D01*
X148585181Y-135935933D01*
X148537562Y-135840695D01*
X148489943Y-135793076D01*
X148394705Y-135745457D01*
X148299467Y-135745457D01*
X148204229Y-135793076D01*
X148156610Y-135840695D01*
X148108990Y-135935933D01*
X148061371Y-136126410D01*
X148013752Y-136221648D01*
X147966133Y-136269267D01*
X147870895Y-136316886D01*
X147775657Y-136316886D01*
X147680419Y-136269267D01*
X147632800Y-136221648D01*
X147585181Y-136126410D01*
X147585181Y-135888314D01*
X147632800Y-135745457D01*
X148013752Y-135174029D02*
X147966133Y-135269267D01*
X147918514Y-135316886D01*
X147823276Y-135364505D01*
X147775657Y-135364505D01*
X147680419Y-135316886D01*
X147632800Y-135269267D01*
X147585181Y-135174029D01*
X147585181Y-134983552D01*
X147632800Y-134888314D01*
X147680419Y-134840695D01*
X147775657Y-134793076D01*
X147823276Y-134793076D01*
X147918514Y-134840695D01*
X147966133Y-134888314D01*
X148013752Y-134983552D01*
X148013752Y-135174029D01*
X148061371Y-135269267D01*
X148108990Y-135316886D01*
X148204229Y-135364505D01*
X148394705Y-135364505D01*
X148489943Y-135316886D01*
X148537562Y-135269267D01*
X148585181Y-135174029D01*
X148585181Y-134983552D01*
X148537562Y-134888314D01*
X148489943Y-134840695D01*
X148394705Y-134793076D01*
X148204229Y-134793076D01*
X148108990Y-134840695D01*
X148061371Y-134888314D01*
X148013752Y-134983552D01*
X148585181Y-133840695D02*
X148585181Y-134412124D01*
X148585181Y-134126410D02*
X147585181Y-134126410D01*
X147728038Y-134221648D01*
X147823276Y-134316886D01*
X147870895Y-134412124D01*
X148585181Y-132888314D02*
X148585181Y-133459743D01*
X148585181Y-133174029D02*
X147585181Y-133174029D01*
X147728038Y-133269267D01*
X147823276Y-133364505D01*
X147870895Y-133459743D01*
X147585181Y-132554981D02*
X147585181Y-131888314D01*
X148585181Y-132316886D01*
X135230171Y-147873981D02*
X135230171Y-146873981D01*
X135468266Y-146873981D01*
X135611124Y-146921600D01*
X135706362Y-147016838D01*
X135753981Y-147112076D01*
X135801600Y-147302552D01*
X135801600Y-147445410D01*
X135753981Y-147635886D01*
X135706362Y-147731124D01*
X135611124Y-147826362D01*
X135468266Y-147873981D01*
X135230171Y-147873981D01*
X136420647Y-146873981D02*
X136611124Y-146873981D01*
X136706362Y-146921600D01*
X136801600Y-147016838D01*
X136849219Y-147207314D01*
X136849219Y-147540648D01*
X136801600Y-147731124D01*
X136706362Y-147826362D01*
X136611124Y-147873981D01*
X136420647Y-147873981D01*
X136325409Y-147826362D01*
X136230171Y-147731124D01*
X136182552Y-147540648D01*
X136182552Y-147207314D01*
X136230171Y-147016838D01*
X136325409Y-146921600D01*
X136420647Y-146873981D01*
X137468266Y-146873981D02*
X137658743Y-146873981D01*
X137753981Y-146921600D01*
X137849219Y-147016838D01*
X137896838Y-147207314D01*
X137896838Y-147540648D01*
X137849219Y-147731124D01*
X137753981Y-147826362D01*
X137658743Y-147873981D01*
X137468266Y-147873981D01*
X137373028Y-147826362D01*
X137277790Y-147731124D01*
X137230171Y-147540648D01*
X137230171Y-147207314D01*
X137277790Y-147016838D01*
X137373028Y-146921600D01*
X137468266Y-146873981D01*
X138896838Y-147873981D02*
X138563504Y-147397790D01*
X138325409Y-147873981D02*
X138325409Y-146873981D01*
X138706362Y-146873981D01*
X138801600Y-146921600D01*
X138849219Y-146969219D01*
X138896838Y-147064457D01*
X138896838Y-147207314D01*
X138849219Y-147302552D01*
X138801600Y-147350171D01*
X138706362Y-147397790D01*
X138325409Y-147397790D01*
X139087314Y-147969219D02*
X139849219Y-147969219D01*
X140039695Y-147826362D02*
X140182552Y-147873981D01*
X140420648Y-147873981D01*
X140515886Y-147826362D01*
X140563505Y-147778743D01*
X140611124Y-147683505D01*
X140611124Y-147588267D01*
X140563505Y-147493029D01*
X140515886Y-147445410D01*
X140420648Y-147397790D01*
X140230171Y-147350171D01*
X140134933Y-147302552D01*
X140087314Y-147254933D01*
X140039695Y-147159695D01*
X140039695Y-147064457D01*
X140087314Y-146969219D01*
X140134933Y-146921600D01*
X140230171Y-146873981D01*
X140468267Y-146873981D01*
X140611124Y-146921600D01*
X141039695Y-147350171D02*
X141373029Y-147350171D01*
X141515886Y-147873981D02*
X141039695Y-147873981D01*
X141039695Y-146873981D01*
X141515886Y-146873981D01*
X142515886Y-147873981D02*
X142182552Y-147397790D01*
X141944457Y-147873981D02*
X141944457Y-146873981D01*
X142325410Y-146873981D01*
X142420648Y-146921600D01*
X142468267Y-146969219D01*
X142515886Y-147064457D01*
X142515886Y-147207314D01*
X142468267Y-147302552D01*
X142420648Y-147350171D01*
X142325410Y-147397790D01*
X141944457Y-147397790D01*
X142801600Y-146873981D02*
X143134933Y-147873981D01*
X143468267Y-146873981D01*
X143992076Y-146873981D02*
X144182553Y-146873981D01*
X144277791Y-146921600D01*
X144373029Y-147016838D01*
X144420648Y-147207314D01*
X144420648Y-147540648D01*
X144373029Y-147731124D01*
X144277791Y-147826362D01*
X144182553Y-147873981D01*
X143992076Y-147873981D01*
X143896838Y-147826362D01*
X143801600Y-147731124D01*
X143753981Y-147540648D01*
X143753981Y-147207314D01*
X143801600Y-147016838D01*
X143896838Y-146921600D01*
X143992076Y-146873981D01*
X148360286Y-142209781D02*
X148360286Y-141209781D01*
X148741239Y-141209781D01*
X148836477Y-141257400D01*
X148884096Y-141305019D01*
X148931715Y-141400257D01*
X148931715Y-141543114D01*
X148884096Y-141638352D01*
X148836477Y-141685971D01*
X148741239Y-141733590D01*
X148360286Y-141733590D01*
X149265048Y-141209781D02*
X149503143Y-142209781D01*
X149693620Y-141495495D01*
X149884096Y-142209781D01*
X150122191Y-141209781D01*
X151074572Y-142209781D02*
X150741238Y-141733590D01*
X150503143Y-142209781D02*
X150503143Y-141209781D01*
X150884096Y-141209781D01*
X150979334Y-141257400D01*
X151026953Y-141305019D01*
X151074572Y-141400257D01*
X151074572Y-141543114D01*
X151026953Y-141638352D01*
X150979334Y-141685971D01*
X150884096Y-141733590D01*
X150503143Y-141733590D01*
X151265048Y-142305019D02*
X152026953Y-142305019D01*
X152836477Y-142114543D02*
X152788858Y-142162162D01*
X152646001Y-142209781D01*
X152550763Y-142209781D01*
X152407905Y-142162162D01*
X152312667Y-142066924D01*
X152265048Y-141971686D01*
X152217429Y-141781210D01*
X152217429Y-141638352D01*
X152265048Y-141447876D01*
X152312667Y-141352638D01*
X152407905Y-141257400D01*
X152550763Y-141209781D01*
X152646001Y-141209781D01*
X152788858Y-141257400D01*
X152836477Y-141305019D01*
X153455524Y-141209781D02*
X153646001Y-141209781D01*
X153741239Y-141257400D01*
X153836477Y-141352638D01*
X153884096Y-141543114D01*
X153884096Y-141876448D01*
X153836477Y-142066924D01*
X153741239Y-142162162D01*
X153646001Y-142209781D01*
X153455524Y-142209781D01*
X153360286Y-142162162D01*
X153265048Y-142066924D01*
X153217429Y-141876448D01*
X153217429Y-141543114D01*
X153265048Y-141352638D01*
X153360286Y-141257400D01*
X153455524Y-141209781D01*
X154312667Y-142209781D02*
X154312667Y-141209781D01*
X154884096Y-142209781D01*
X154884096Y-141209781D01*
X155360286Y-142209781D02*
X155360286Y-141209781D01*
X155931715Y-142209781D01*
X155931715Y-141209781D01*
M02*
