G04 #@! TF.FileFunction,Soldermask,Top*
%FSLAX46Y46*%
G04 Gerber Fmt 4.6, Leading zero omitted, Abs format (unit mm)*
G04 Created by KiCad (PCBNEW 4.0.1-stable) date 3/14/2016 3:22:51 AM*
%MOMM*%
G01*
G04 APERTURE LIST*
%ADD10C,0.100000*%
%ADD11R,0.700000X2.650000*%
%ADD12R,2.400000X4.400000*%
%ADD13R,1.400000X1.650000*%
%ADD14R,2.432000X1.924000*%
%ADD15R,1.650000X1.400000*%
%ADD16R,2.200000X1.150000*%
%ADD17R,2.000000X1.800000*%
%ADD18R,2.000000X1.900000*%
%ADD19R,1.800000X1.200000*%
%ADD20R,1.900000X1.200000*%
%ADD21R,1.400000X1.800000*%
%ADD22R,2.000000X1.400000*%
%ADD23R,1.598880X1.598880*%
%ADD24R,1.700000X4.100000*%
%ADD25R,2.600000X2.600000*%
%ADD26C,2.600000*%
%ADD27R,0.800000X1.750000*%
%ADD28R,2.500000X2.000000*%
%ADD29R,2.300000X2.300000*%
%ADD30R,2.200000X2.300000*%
%ADD31R,1.200100X1.200100*%
%ADD32R,1.700000X1.100000*%
%ADD33R,1.100000X1.700000*%
%ADD34C,1.924000*%
%ADD35O,1.009600X1.873200*%
%ADD36R,2.432000X4.057600*%
%ADD37R,2.432000X1.416000*%
%ADD38R,2.127200X2.432000*%
%ADD39O,2.127200X2.432000*%
%ADD40R,2.432000X2.432000*%
%ADD41O,2.432000X2.432000*%
G04 APERTURE END LIST*
D10*
D11*
X141000000Y-115700000D03*
X141500000Y-115700000D03*
X142000000Y-115700000D03*
X142500000Y-115700000D03*
X143000000Y-115700000D03*
X143500000Y-115700000D03*
X144000000Y-115700000D03*
X144500000Y-115700000D03*
X145000000Y-115700000D03*
X145500000Y-115700000D03*
X146000000Y-115700000D03*
X146500000Y-115700000D03*
X147000000Y-115700000D03*
X147500000Y-115700000D03*
X148000000Y-115700000D03*
X148500000Y-115700000D03*
X149000000Y-115700000D03*
X149500000Y-115700000D03*
X150000000Y-115700000D03*
X150500000Y-115700000D03*
X151000000Y-115700000D03*
X151500000Y-115700000D03*
X152000000Y-115700000D03*
X152500000Y-115700000D03*
X153000000Y-115700000D03*
X153500000Y-115700000D03*
X154000000Y-115700000D03*
X154500000Y-115700000D03*
X155000000Y-115700000D03*
X155500000Y-115700000D03*
X156000000Y-115700000D03*
X156500000Y-115700000D03*
X157000000Y-115700000D03*
X157500000Y-115700000D03*
X158000000Y-115700000D03*
X158500000Y-115700000D03*
X159000000Y-115700000D03*
X159500000Y-115700000D03*
X160000000Y-115700000D03*
X160500000Y-115700000D03*
X161000000Y-115700000D03*
X161500000Y-115700000D03*
X162000000Y-115700000D03*
X162500000Y-115700000D03*
X163000000Y-115700000D03*
X163500000Y-115700000D03*
X164000000Y-115700000D03*
X164500000Y-115700000D03*
X165000000Y-115700000D03*
X165500000Y-115700000D03*
D12*
X139460000Y-117150000D03*
X167040000Y-117150000D03*
D11*
X141000000Y-115700000D03*
X141500000Y-115700000D03*
X142000000Y-115700000D03*
X142500000Y-115700000D03*
X143000000Y-115700000D03*
X143500000Y-115700000D03*
X144000000Y-115700000D03*
X144500000Y-115700000D03*
X145000000Y-115700000D03*
X145500000Y-115700000D03*
X146000000Y-115700000D03*
X146500000Y-115700000D03*
X147000000Y-115700000D03*
X147500000Y-115700000D03*
X148000000Y-115700000D03*
X148500000Y-115700000D03*
X149000000Y-115700000D03*
X149500000Y-115700000D03*
X150000000Y-115700000D03*
X150500000Y-115700000D03*
X151000000Y-115700000D03*
X151500000Y-115700000D03*
X152000000Y-115700000D03*
X152500000Y-115700000D03*
X153000000Y-115700000D03*
X153500000Y-115700000D03*
X154000000Y-115700000D03*
X154500000Y-115700000D03*
X155000000Y-115700000D03*
X155500000Y-115700000D03*
X156000000Y-115700000D03*
X156500000Y-115700000D03*
X157000000Y-115700000D03*
X157500000Y-115700000D03*
X158000000Y-115700000D03*
X158500000Y-115700000D03*
X159000000Y-115700000D03*
X159500000Y-115700000D03*
X160000000Y-115700000D03*
X160500000Y-115700000D03*
X161000000Y-115700000D03*
X161500000Y-115700000D03*
X162000000Y-115700000D03*
X162500000Y-115700000D03*
X163000000Y-115700000D03*
X163500000Y-115700000D03*
X164000000Y-115700000D03*
X164500000Y-115700000D03*
X165000000Y-115700000D03*
X165500000Y-115700000D03*
D12*
X139460000Y-117150000D03*
X167040000Y-117150000D03*
D13*
X168341800Y-78130400D03*
X170341800Y-78130400D03*
D14*
X154508200Y-133654800D03*
X154508200Y-136956800D03*
X140843000Y-135255000D03*
X140843000Y-138557000D03*
D15*
X141757400Y-109921800D03*
X141757400Y-111921800D03*
X139496800Y-109947200D03*
X139496800Y-111947200D03*
D13*
X136686800Y-103225600D03*
X134686800Y-103225600D03*
X154397200Y-102971600D03*
X156397200Y-102971600D03*
X136636000Y-100888800D03*
X134636000Y-100888800D03*
D14*
X170281600Y-120700800D03*
X170281600Y-117398800D03*
D15*
X173101000Y-118142000D03*
X173101000Y-120142000D03*
X175666400Y-118160800D03*
X175666400Y-120160800D03*
D16*
X178957800Y-99090800D03*
X178957800Y-100190800D03*
X178957800Y-101290800D03*
X178957800Y-102390800D03*
X178957800Y-103490800D03*
X178957800Y-104590800D03*
X178957800Y-105690800D03*
X178957800Y-106790800D03*
D17*
X178857800Y-108090800D03*
D18*
X178857800Y-96640800D03*
D19*
X170557800Y-96290800D03*
D20*
X171207800Y-108390800D03*
D21*
X169707800Y-108090800D03*
D22*
X168107800Y-96690800D03*
D23*
X170063160Y-134213600D03*
X172161200Y-134213600D03*
D24*
X152323800Y-82854800D03*
X154863800Y-82854800D03*
X152323800Y-87299800D03*
X154863800Y-87299800D03*
X157403800Y-82854800D03*
X157403800Y-87299800D03*
D25*
X164688400Y-67157600D03*
D26*
X161188400Y-67157600D03*
D25*
X145155800Y-67157600D03*
D26*
X141655800Y-67157600D03*
X138155800Y-67157600D03*
D27*
X164536600Y-142359000D03*
X165186600Y-142359000D03*
X165836600Y-142359000D03*
X166486600Y-142359000D03*
X167136600Y-142359000D03*
D28*
X162736600Y-142484000D03*
X168936600Y-142484000D03*
D29*
X164636600Y-145034000D03*
X167036600Y-145034000D03*
D30*
X169836600Y-145034000D03*
X161836600Y-145034000D03*
D31*
X137175200Y-91780360D03*
X139075200Y-91780360D03*
X138125200Y-89781380D03*
X143982400Y-76133960D03*
X145882400Y-76133960D03*
X144932400Y-74134980D03*
X141081760Y-76108600D03*
X141081760Y-74208600D03*
X139082780Y-75158600D03*
X173136600Y-123764040D03*
X171236600Y-123764040D03*
X172186600Y-125763020D03*
D32*
X164998400Y-73949600D03*
X164998400Y-72049600D03*
X161188400Y-74025800D03*
X161188400Y-72125800D03*
D33*
X135290600Y-90220800D03*
X133390600Y-90220800D03*
X145023800Y-71983600D03*
X146923800Y-71983600D03*
X137657800Y-71932800D03*
X139557800Y-71932800D03*
X135925600Y-120396000D03*
X134025600Y-120396000D03*
X135925600Y-122682000D03*
X134025600Y-122682000D03*
X135925600Y-125018800D03*
X134025600Y-125018800D03*
X135925600Y-127406400D03*
X134025600Y-127406400D03*
X178673800Y-111658400D03*
X176773800Y-111658400D03*
X176072800Y-93319600D03*
X177972800Y-93319600D03*
D32*
X172186600Y-127472400D03*
X172186600Y-129372400D03*
D34*
X131495800Y-81965800D03*
X136245800Y-81965800D03*
D10*
G36*
X140340811Y-103689221D02*
X139881192Y-103229602D01*
X141083273Y-102027521D01*
X141542892Y-102487140D01*
X140340811Y-103689221D01*
X140340811Y-103689221D01*
G37*
G36*
X140694364Y-104042774D02*
X140234745Y-103583155D01*
X141436826Y-102381074D01*
X141896445Y-102840693D01*
X140694364Y-104042774D01*
X140694364Y-104042774D01*
G37*
G36*
X141047918Y-104396328D02*
X140588299Y-103936709D01*
X141790380Y-102734628D01*
X142249999Y-103194247D01*
X141047918Y-104396328D01*
X141047918Y-104396328D01*
G37*
G36*
X141401471Y-104749881D02*
X140941852Y-104290262D01*
X142143933Y-103088181D01*
X142603552Y-103547800D01*
X141401471Y-104749881D01*
X141401471Y-104749881D01*
G37*
G36*
X141755024Y-105103434D02*
X141295405Y-104643815D01*
X142497486Y-103441734D01*
X142957105Y-103901353D01*
X141755024Y-105103434D01*
X141755024Y-105103434D01*
G37*
G36*
X142108578Y-105456988D02*
X141648959Y-104997369D01*
X142851040Y-103795288D01*
X143310659Y-104254907D01*
X142108578Y-105456988D01*
X142108578Y-105456988D01*
G37*
G36*
X142462131Y-105810541D02*
X142002512Y-105350922D01*
X143204593Y-104148841D01*
X143664212Y-104608460D01*
X142462131Y-105810541D01*
X142462131Y-105810541D01*
G37*
G36*
X142815685Y-106164095D02*
X142356066Y-105704476D01*
X143558147Y-104502395D01*
X144017766Y-104962014D01*
X142815685Y-106164095D01*
X142815685Y-106164095D01*
G37*
G36*
X143169238Y-106517648D02*
X142709619Y-106058029D01*
X143911700Y-104855948D01*
X144371319Y-105315567D01*
X143169238Y-106517648D01*
X143169238Y-106517648D01*
G37*
G36*
X143522791Y-106871201D02*
X143063172Y-106411582D01*
X144265253Y-105209501D01*
X144724872Y-105669120D01*
X143522791Y-106871201D01*
X143522791Y-106871201D01*
G37*
G36*
X143876345Y-107224755D02*
X143416726Y-106765136D01*
X144618807Y-105563055D01*
X145078426Y-106022674D01*
X143876345Y-107224755D01*
X143876345Y-107224755D01*
G37*
G36*
X144229898Y-107578308D02*
X143770279Y-107118689D01*
X144972360Y-105916608D01*
X145431979Y-106376227D01*
X144229898Y-107578308D01*
X144229898Y-107578308D01*
G37*
G36*
X147694721Y-107118689D02*
X147235102Y-107578308D01*
X146033021Y-106376227D01*
X146492640Y-105916608D01*
X147694721Y-107118689D01*
X147694721Y-107118689D01*
G37*
G36*
X148048274Y-106765136D02*
X147588655Y-107224755D01*
X146386574Y-106022674D01*
X146846193Y-105563055D01*
X148048274Y-106765136D01*
X148048274Y-106765136D01*
G37*
G36*
X148401828Y-106411582D02*
X147942209Y-106871201D01*
X146740128Y-105669120D01*
X147199747Y-105209501D01*
X148401828Y-106411582D01*
X148401828Y-106411582D01*
G37*
G36*
X148755381Y-106058029D02*
X148295762Y-106517648D01*
X147093681Y-105315567D01*
X147553300Y-104855948D01*
X148755381Y-106058029D01*
X148755381Y-106058029D01*
G37*
G36*
X149108934Y-105704476D02*
X148649315Y-106164095D01*
X147447234Y-104962014D01*
X147906853Y-104502395D01*
X149108934Y-105704476D01*
X149108934Y-105704476D01*
G37*
G36*
X149462488Y-105350922D02*
X149002869Y-105810541D01*
X147800788Y-104608460D01*
X148260407Y-104148841D01*
X149462488Y-105350922D01*
X149462488Y-105350922D01*
G37*
G36*
X149816041Y-104997369D02*
X149356422Y-105456988D01*
X148154341Y-104254907D01*
X148613960Y-103795288D01*
X149816041Y-104997369D01*
X149816041Y-104997369D01*
G37*
G36*
X150169595Y-104643815D02*
X149709976Y-105103434D01*
X148507895Y-103901353D01*
X148967514Y-103441734D01*
X150169595Y-104643815D01*
X150169595Y-104643815D01*
G37*
G36*
X150523148Y-104290262D02*
X150063529Y-104749881D01*
X148861448Y-103547800D01*
X149321067Y-103088181D01*
X150523148Y-104290262D01*
X150523148Y-104290262D01*
G37*
G36*
X150876701Y-103936709D02*
X150417082Y-104396328D01*
X149215001Y-103194247D01*
X149674620Y-102734628D01*
X150876701Y-103936709D01*
X150876701Y-103936709D01*
G37*
G36*
X151230255Y-103583155D02*
X150770636Y-104042774D01*
X149568555Y-102840693D01*
X150028174Y-102381074D01*
X151230255Y-103583155D01*
X151230255Y-103583155D01*
G37*
G36*
X151583808Y-103229602D02*
X151124189Y-103689221D01*
X149922108Y-102487140D01*
X150381727Y-102027521D01*
X151583808Y-103229602D01*
X151583808Y-103229602D01*
G37*
G36*
X150381727Y-101426479D02*
X149922108Y-100966860D01*
X151124189Y-99764779D01*
X151583808Y-100224398D01*
X150381727Y-101426479D01*
X150381727Y-101426479D01*
G37*
G36*
X150028174Y-101072926D02*
X149568555Y-100613307D01*
X150770636Y-99411226D01*
X151230255Y-99870845D01*
X150028174Y-101072926D01*
X150028174Y-101072926D01*
G37*
G36*
X149674620Y-100719372D02*
X149215001Y-100259753D01*
X150417082Y-99057672D01*
X150876701Y-99517291D01*
X149674620Y-100719372D01*
X149674620Y-100719372D01*
G37*
G36*
X149321067Y-100365819D02*
X148861448Y-99906200D01*
X150063529Y-98704119D01*
X150523148Y-99163738D01*
X149321067Y-100365819D01*
X149321067Y-100365819D01*
G37*
G36*
X148967514Y-100012266D02*
X148507895Y-99552647D01*
X149709976Y-98350566D01*
X150169595Y-98810185D01*
X148967514Y-100012266D01*
X148967514Y-100012266D01*
G37*
G36*
X148613960Y-99658712D02*
X148154341Y-99199093D01*
X149356422Y-97997012D01*
X149816041Y-98456631D01*
X148613960Y-99658712D01*
X148613960Y-99658712D01*
G37*
G36*
X148260407Y-99305159D02*
X147800788Y-98845540D01*
X149002869Y-97643459D01*
X149462488Y-98103078D01*
X148260407Y-99305159D01*
X148260407Y-99305159D01*
G37*
G36*
X147906853Y-98951605D02*
X147447234Y-98491986D01*
X148649315Y-97289905D01*
X149108934Y-97749524D01*
X147906853Y-98951605D01*
X147906853Y-98951605D01*
G37*
G36*
X147553300Y-98598052D02*
X147093681Y-98138433D01*
X148295762Y-96936352D01*
X148755381Y-97395971D01*
X147553300Y-98598052D01*
X147553300Y-98598052D01*
G37*
G36*
X147199747Y-98244499D02*
X146740128Y-97784880D01*
X147942209Y-96582799D01*
X148401828Y-97042418D01*
X147199747Y-98244499D01*
X147199747Y-98244499D01*
G37*
G36*
X146846193Y-97890945D02*
X146386574Y-97431326D01*
X147588655Y-96229245D01*
X148048274Y-96688864D01*
X146846193Y-97890945D01*
X146846193Y-97890945D01*
G37*
G36*
X146492640Y-97537392D02*
X146033021Y-97077773D01*
X147235102Y-95875692D01*
X147694721Y-96335311D01*
X146492640Y-97537392D01*
X146492640Y-97537392D01*
G37*
G36*
X145431979Y-97077773D02*
X144972360Y-97537392D01*
X143770279Y-96335311D01*
X144229898Y-95875692D01*
X145431979Y-97077773D01*
X145431979Y-97077773D01*
G37*
G36*
X145078426Y-97431326D02*
X144618807Y-97890945D01*
X143416726Y-96688864D01*
X143876345Y-96229245D01*
X145078426Y-97431326D01*
X145078426Y-97431326D01*
G37*
G36*
X144724872Y-97784880D02*
X144265253Y-98244499D01*
X143063172Y-97042418D01*
X143522791Y-96582799D01*
X144724872Y-97784880D01*
X144724872Y-97784880D01*
G37*
G36*
X144371319Y-98138433D02*
X143911700Y-98598052D01*
X142709619Y-97395971D01*
X143169238Y-96936352D01*
X144371319Y-98138433D01*
X144371319Y-98138433D01*
G37*
G36*
X144017766Y-98491986D02*
X143558147Y-98951605D01*
X142356066Y-97749524D01*
X142815685Y-97289905D01*
X144017766Y-98491986D01*
X144017766Y-98491986D01*
G37*
G36*
X143664212Y-98845540D02*
X143204593Y-99305159D01*
X142002512Y-98103078D01*
X142462131Y-97643459D01*
X143664212Y-98845540D01*
X143664212Y-98845540D01*
G37*
G36*
X143310659Y-99199093D02*
X142851040Y-99658712D01*
X141648959Y-98456631D01*
X142108578Y-97997012D01*
X143310659Y-99199093D01*
X143310659Y-99199093D01*
G37*
G36*
X142957105Y-99552647D02*
X142497486Y-100012266D01*
X141295405Y-98810185D01*
X141755024Y-98350566D01*
X142957105Y-99552647D01*
X142957105Y-99552647D01*
G37*
G36*
X142603552Y-99906200D02*
X142143933Y-100365819D01*
X140941852Y-99163738D01*
X141401471Y-98704119D01*
X142603552Y-99906200D01*
X142603552Y-99906200D01*
G37*
G36*
X142249999Y-100259753D02*
X141790380Y-100719372D01*
X140588299Y-99517291D01*
X141047918Y-99057672D01*
X142249999Y-100259753D01*
X142249999Y-100259753D01*
G37*
G36*
X141896445Y-100613307D02*
X141436826Y-101072926D01*
X140234745Y-99870845D01*
X140694364Y-99411226D01*
X141896445Y-100613307D01*
X141896445Y-100613307D01*
G37*
G36*
X141542892Y-100966860D02*
X141083273Y-101426479D01*
X139881192Y-100224398D01*
X140340811Y-99764779D01*
X141542892Y-100966860D01*
X141542892Y-100966860D01*
G37*
D35*
X171373800Y-81991200D03*
X170103800Y-81991200D03*
X168833800Y-81991200D03*
X167563800Y-81991200D03*
X167563800Y-87579200D03*
X168833800Y-87579200D03*
X170103800Y-87579200D03*
X171373800Y-87579200D03*
D36*
X144068800Y-135102600D03*
D37*
X150672800Y-135102600D03*
X150672800Y-132816600D03*
X150672800Y-137388600D03*
D38*
X137210800Y-144627600D03*
D39*
X139750800Y-144627600D03*
X142290800Y-144627600D03*
D40*
X153466800Y-144678400D03*
D41*
X150926800Y-144678400D03*
M02*
