G04 #@! TF.FileFunction,Other,ECO2*
%FSLAX46Y46*%
G04 Gerber Fmt 4.6, Leading zero omitted, Abs format (unit mm)*
G04 Created by KiCad (PCBNEW 4.0.1-stable) date 3/14/2016 3:22:51 AM*
%MOMM*%
G01*
G04 APERTURE LIST*
%ADD10C,0.100000*%
%ADD11C,0.300000*%
G04 APERTURE END LIST*
D10*
D11*
X145785715Y-128871429D02*
X145642858Y-129014286D01*
X145214287Y-129157143D01*
X144928573Y-129157143D01*
X144500001Y-129014286D01*
X144214287Y-128728571D01*
X144071430Y-128442857D01*
X143928573Y-127871429D01*
X143928573Y-127442857D01*
X144071430Y-126871429D01*
X144214287Y-126585714D01*
X144500001Y-126300000D01*
X144928573Y-126157143D01*
X145214287Y-126157143D01*
X145642858Y-126300000D01*
X145785715Y-126442857D01*
X147071430Y-126157143D02*
X147071430Y-128585714D01*
X147214287Y-128871429D01*
X147357144Y-129014286D01*
X147642858Y-129157143D01*
X148214287Y-129157143D01*
X148500001Y-129014286D01*
X148642858Y-128871429D01*
X148785715Y-128585714D01*
X148785715Y-126157143D01*
X149785715Y-126157143D02*
X151500001Y-126157143D01*
X150642858Y-129157143D02*
X150642858Y-126157143D01*
X155357143Y-126157143D02*
X155928572Y-126157143D01*
X156214286Y-126300000D01*
X156500000Y-126585714D01*
X156642858Y-127157143D01*
X156642858Y-128157143D01*
X156500000Y-128728571D01*
X156214286Y-129014286D01*
X155928572Y-129157143D01*
X155357143Y-129157143D01*
X155071429Y-129014286D01*
X154785715Y-128728571D01*
X154642858Y-128157143D01*
X154642858Y-127157143D01*
X154785715Y-126585714D01*
X155071429Y-126300000D01*
X155357143Y-126157143D01*
X157928572Y-126157143D02*
X157928572Y-128585714D01*
X158071429Y-128871429D01*
X158214286Y-129014286D01*
X158500000Y-129157143D01*
X159071429Y-129157143D01*
X159357143Y-129014286D01*
X159500000Y-128871429D01*
X159642857Y-128585714D01*
X159642857Y-126157143D01*
X160642857Y-126157143D02*
X162357143Y-126157143D01*
X161500000Y-129157143D02*
X161500000Y-126157143D01*
M02*
