M48
;DRILL file {KiCad 4.0.1-stable} date 3/14/2016 3:18:10 AM
;FORMAT={-:-/ absolute / inch / decimal}
FMAT,2
INCH,TZ
T1C0.013
T2C0.039
T3C0.040
T4C0.047
T5C0.039
T6C0.125
%
G90
G05
M72
T1
X5.216Y-3.618
X5.228Y-3.972
X5.228Y-4.064
X5.3208Y-3.9108
X5.321Y-4.417
X5.342Y-5.121
X5.38Y-3.472
X5.438Y-4.458
X5.438Y-4.498
X5.478Y-4.458
X5.478Y-4.498
X5.501Y-3.058
X5.518Y-4.458
X5.518Y-4.498
X5.526Y-3.613
X5.584Y-4.192
X5.705Y-5.509
X5.705Y-5.549
X5.705Y-5.589
X5.705Y-5.629
X5.723Y-3.2285
X5.743Y-3.058
X5.745Y-5.509
X5.745Y-5.549
X5.745Y-5.589
X5.745Y-5.629
X5.747Y-4.3385
X5.756Y-4.672
X5.756Y-4.722
X5.756Y-4.772
X5.756Y-4.822
X5.762Y-3.2285
X5.775Y-4.411
X5.775Y-4.451
X5.785Y-5.509
X5.785Y-5.549
X5.785Y-5.589
X5.785Y-5.629
X5.806Y-4.672
X5.806Y-4.722
X5.806Y-4.772
X5.806Y-4.822
X5.815Y-4.411
X5.815Y-4.451
X5.825Y-5.509
X5.825Y-5.549
X5.825Y-5.589
X5.825Y-5.629
X5.856Y-4.672
X5.856Y-4.722
X5.856Y-4.772
X5.856Y-4.822
X5.861Y-3.381
X5.869Y-4.04
X5.885Y-3.693
X5.8983Y-3.7942
X5.8984Y-4.2716
X5.899Y-3.377
X5.906Y-4.672
X5.906Y-4.722
X5.906Y-4.772
X5.906Y-4.822
X5.9127Y-3.7593
X5.913Y-3.666
X5.9144Y-4.1876
X5.9289Y-4.3021
X5.9496Y-4.1212
X5.956Y-4.672
X5.956Y-4.722
X5.956Y-4.772
X5.956Y-4.822
X5.9672Y-4.2178
X5.9731Y-3.7954
X5.9745Y-4.4715
X6.002Y-4.376
X6.002Y-4.411
X6.0031Y-4.446
X6.006Y-4.672
X6.006Y-4.722
X6.006Y-4.772
X6.006Y-4.822
X6.0062Y-4.234
X6.019Y-3.785
X6.036Y-5.47
X6.036Y-5.51
X6.036Y-5.55
X6.036Y-5.59
X6.056Y-4.672
X6.056Y-4.722
X6.056Y-4.772
X6.056Y-4.822
X6.076Y-5.47
X6.076Y-5.51
X6.076Y-5.55
X6.076Y-5.59
X6.1056Y-3.8495
X6.106Y-4.672
X6.106Y-4.722
X6.106Y-4.772
X6.106Y-4.822
X6.116Y-5.47
X6.116Y-5.51
X6.116Y-5.55
X6.116Y-5.59
X6.126Y-4.31
X6.128Y-3.82
X6.1495Y-4.3413
X6.156Y-4.672
X6.156Y-4.722
X6.156Y-4.772
X6.156Y-4.822
X6.156Y-5.47
X6.156Y-5.51
X6.156Y-5.55
X6.156Y-5.59
X6.1825Y-4.353
X6.197Y-3.149
X6.215Y-4.053
X6.218Y-4.3535
X6.276Y-3.553
X6.379Y-3.5523
X6.457Y-2.965
X6.505Y-4.398
X6.505Y-4.438
X6.505Y-4.478
X6.526Y-5.45
X6.526Y-5.49
X6.526Y-5.53
X6.543Y-2.965
X6.545Y-4.398
X6.545Y-4.438
X6.545Y-4.478
X6.55Y-3.49
X6.566Y-5.45
X6.566Y-5.49
X6.566Y-5.53
X6.585Y-4.398
X6.585Y-4.438
X6.585Y-4.478
X6.606Y-5.45
X6.606Y-5.49
X6.606Y-5.53
X6.646Y-5.45
X6.646Y-5.49
X6.646Y-5.53
X6.664Y-3.541
X6.681Y-4.327
X6.686Y-5.45
X6.686Y-5.49
X6.686Y-5.53
X6.714Y-3.742
X6.726Y-5.45
X6.726Y-5.49
X6.726Y-5.53
X6.748Y-3.157
X6.779Y-5.1355
X6.779Y-5.228
X6.815Y-4.592
X6.816Y-4.78
X6.929Y-3.927
X6.937Y-4.0646
X6.975Y-3.925
X6.981Y-4.0646
X6.983Y-4.118
X7.041Y-4.323
X7.042Y-3.738
T2
X5.177Y-3.227
X5.364Y-3.227
T3
X5.402Y-5.694
X5.502Y-5.694
X5.602Y-5.694
X5.942Y-5.696
X6.042Y-5.696
T4
X5.4392Y-2.644
X5.577Y-2.644
X5.7148Y-2.644
X6.346Y-2.644
X6.4838Y-2.644
T5
X5.1075Y-2.8228
X5.1075Y-2.8228
X5.1075Y-5.4902
X5.1075Y-5.4902
X6.9594Y-2.8228
X6.9594Y-2.8228
X6.9594Y-5.4902
X6.9594Y-5.4902
T6
X5.113Y-2.63
X5.113Y-5.698
X6.949Y-2.631
X6.949Y-5.698
T0
M30
