G04 #@! TF.FileFunction,Legend,Bot*
%FSLAX46Y46*%
G04 Gerber Fmt 4.6, Leading zero omitted, Abs format (unit mm)*
G04 Created by KiCad (PCBNEW 4.0.1-stable) date 3/14/2016 2:44:03 AM*
%MOMM*%
G01*
G04 APERTURE LIST*
%ADD10C,0.100000*%
%ADD11C,0.150000*%
G04 APERTURE END LIST*
D10*
D11*
X128150000Y-140350000D02*
X128150000Y-71050000D01*
X178300000Y-140350000D02*
X128100000Y-140350000D01*
X178350000Y-71050000D02*
X178350000Y-140350000D01*
X128150000Y-71050000D02*
X178350000Y-71050000D01*
X128150000Y-140350000D02*
X128150000Y-71050000D01*
X178300000Y-140350000D02*
X128100000Y-140350000D01*
X178350000Y-71050000D02*
X178350000Y-140350000D01*
X128150000Y-71050000D02*
X178350000Y-71050000D01*
X159307142Y-119239286D02*
X158907142Y-119239286D01*
X158735713Y-119867857D02*
X159307142Y-119867857D01*
X159307142Y-118667857D01*
X158735713Y-118667857D01*
X157535713Y-119867857D02*
X157935713Y-119296429D01*
X158221428Y-119867857D02*
X158221428Y-118667857D01*
X157764285Y-118667857D01*
X157649999Y-118725000D01*
X157592856Y-118782143D01*
X157535713Y-118896429D01*
X157535713Y-119067857D01*
X157592856Y-119182143D01*
X157649999Y-119239286D01*
X157764285Y-119296429D01*
X158221428Y-119296429D01*
X157021428Y-119410714D02*
X156107142Y-119410714D01*
X155707142Y-118667857D02*
X155021428Y-118667857D01*
X155364285Y-119867857D02*
X155364285Y-118667857D01*
X154221428Y-119239286D02*
X154621428Y-119239286D01*
X154621428Y-119867857D02*
X154621428Y-118667857D01*
X154049999Y-118667857D01*
X153764285Y-118667857D02*
X153078571Y-118667857D01*
X153421428Y-119867857D02*
X153421428Y-118667857D01*
X152449999Y-118667857D02*
X152335714Y-118667857D01*
X152221428Y-118725000D01*
X152164285Y-118782143D01*
X152107142Y-118896429D01*
X152049999Y-119125000D01*
X152049999Y-119410714D01*
X152107142Y-119639286D01*
X152164285Y-119753571D01*
X152221428Y-119810714D01*
X152335714Y-119867857D01*
X152449999Y-119867857D01*
X152564285Y-119810714D01*
X152621428Y-119753571D01*
X152678571Y-119639286D01*
X152735714Y-119410714D01*
X152735714Y-119125000D01*
X152678571Y-118896429D01*
X152621428Y-118782143D01*
X152564285Y-118725000D01*
X152449999Y-118667857D01*
X151592857Y-118782143D02*
X151535714Y-118725000D01*
X151421428Y-118667857D01*
X151135714Y-118667857D01*
X151021428Y-118725000D01*
X150964285Y-118782143D01*
X150907142Y-118896429D01*
X150907142Y-119010714D01*
X150964285Y-119182143D01*
X151649999Y-119867857D01*
X150907142Y-119867857D01*
X150221428Y-119182143D02*
X150335714Y-119125000D01*
X150392857Y-119067857D01*
X150450000Y-118953571D01*
X150450000Y-118896429D01*
X150392857Y-118782143D01*
X150335714Y-118725000D01*
X150221428Y-118667857D01*
X149992857Y-118667857D01*
X149878571Y-118725000D01*
X149821428Y-118782143D01*
X149764285Y-118896429D01*
X149764285Y-118953571D01*
X149821428Y-119067857D01*
X149878571Y-119125000D01*
X149992857Y-119182143D01*
X150221428Y-119182143D01*
X150335714Y-119239286D01*
X150392857Y-119296429D01*
X150450000Y-119410714D01*
X150450000Y-119639286D01*
X150392857Y-119753571D01*
X150335714Y-119810714D01*
X150221428Y-119867857D01*
X149992857Y-119867857D01*
X149878571Y-119810714D01*
X149821428Y-119753571D01*
X149764285Y-119639286D01*
X149764285Y-119410714D01*
X149821428Y-119296429D01*
X149878571Y-119239286D01*
X149992857Y-119182143D01*
X149250000Y-119410714D02*
X148335714Y-119410714D01*
X147250000Y-119067857D02*
X147250000Y-119867857D01*
X147535714Y-118610714D02*
X147821429Y-119467857D01*
X147078571Y-119467857D01*
X159307142Y-119239286D02*
X158907142Y-119239286D01*
X158735713Y-119867857D02*
X159307142Y-119867857D01*
X159307142Y-118667857D01*
X158735713Y-118667857D01*
X157535713Y-119867857D02*
X157935713Y-119296429D01*
X158221428Y-119867857D02*
X158221428Y-118667857D01*
X157764285Y-118667857D01*
X157649999Y-118725000D01*
X157592856Y-118782143D01*
X157535713Y-118896429D01*
X157535713Y-119067857D01*
X157592856Y-119182143D01*
X157649999Y-119239286D01*
X157764285Y-119296429D01*
X158221428Y-119296429D01*
X157021428Y-119410714D02*
X156107142Y-119410714D01*
X155707142Y-118667857D02*
X155021428Y-118667857D01*
X155364285Y-119867857D02*
X155364285Y-118667857D01*
X154221428Y-119239286D02*
X154621428Y-119239286D01*
X154621428Y-119867857D02*
X154621428Y-118667857D01*
X154049999Y-118667857D01*
X153764285Y-118667857D02*
X153078571Y-118667857D01*
X153421428Y-119867857D02*
X153421428Y-118667857D01*
X152449999Y-118667857D02*
X152335714Y-118667857D01*
X152221428Y-118725000D01*
X152164285Y-118782143D01*
X152107142Y-118896429D01*
X152049999Y-119125000D01*
X152049999Y-119410714D01*
X152107142Y-119639286D01*
X152164285Y-119753571D01*
X152221428Y-119810714D01*
X152335714Y-119867857D01*
X152449999Y-119867857D01*
X152564285Y-119810714D01*
X152621428Y-119753571D01*
X152678571Y-119639286D01*
X152735714Y-119410714D01*
X152735714Y-119125000D01*
X152678571Y-118896429D01*
X152621428Y-118782143D01*
X152564285Y-118725000D01*
X152449999Y-118667857D01*
X151592857Y-118782143D02*
X151535714Y-118725000D01*
X151421428Y-118667857D01*
X151135714Y-118667857D01*
X151021428Y-118725000D01*
X150964285Y-118782143D01*
X150907142Y-118896429D01*
X150907142Y-119010714D01*
X150964285Y-119182143D01*
X151649999Y-119867857D01*
X150907142Y-119867857D01*
X150221428Y-119182143D02*
X150335714Y-119125000D01*
X150392857Y-119067857D01*
X150450000Y-118953571D01*
X150450000Y-118896429D01*
X150392857Y-118782143D01*
X150335714Y-118725000D01*
X150221428Y-118667857D01*
X149992857Y-118667857D01*
X149878571Y-118725000D01*
X149821428Y-118782143D01*
X149764285Y-118896429D01*
X149764285Y-118953571D01*
X149821428Y-119067857D01*
X149878571Y-119125000D01*
X149992857Y-119182143D01*
X150221428Y-119182143D01*
X150335714Y-119239286D01*
X150392857Y-119296429D01*
X150450000Y-119410714D01*
X150450000Y-119639286D01*
X150392857Y-119753571D01*
X150335714Y-119810714D01*
X150221428Y-119867857D01*
X149992857Y-119867857D01*
X149878571Y-119810714D01*
X149821428Y-119753571D01*
X149764285Y-119639286D01*
X149764285Y-119410714D01*
X149821428Y-119296429D01*
X149878571Y-119239286D01*
X149992857Y-119182143D01*
X149250000Y-119410714D02*
X148335714Y-119410714D01*
X147250000Y-119067857D02*
X147250000Y-119867857D01*
X147535714Y-118610714D02*
X147821429Y-119467857D01*
X147078571Y-119467857D01*
M02*
