G04 #@! TF.FileFunction,Legend,Top*
%FSLAX46Y46*%
G04 Gerber Fmt 4.6, Leading zero omitted, Abs format (unit mm)*
G04 Created by KiCad (PCBNEW 4.0.1-stable) date 3/14/2016 2:44:03 AM*
%MOMM*%
G01*
G04 APERTURE LIST*
%ADD10C,0.100000*%
%ADD11C,0.160000*%
%ADD12C,0.200000*%
%ADD13C,0.150000*%
%ADD14C,0.010000*%
G04 APERTURE END LIST*
D10*
D11*
X156940305Y-91211239D02*
X156940305Y-90754096D01*
X157740305Y-90982667D02*
X156940305Y-90982667D01*
X156940305Y-90563619D02*
X157740305Y-90030286D01*
X156940305Y-90030286D02*
X157740305Y-90563619D01*
X155225714Y-91490600D02*
X155263810Y-91528695D01*
X155301905Y-91642981D01*
X155301905Y-91719171D01*
X155263810Y-91833457D01*
X155187619Y-91909648D01*
X155111429Y-91947743D01*
X154959048Y-91985838D01*
X154844762Y-91985838D01*
X154692381Y-91947743D01*
X154616190Y-91909648D01*
X154540000Y-91833457D01*
X154501905Y-91719171D01*
X154501905Y-91642981D01*
X154540000Y-91528695D01*
X154578095Y-91490600D01*
X155301905Y-90766790D02*
X155301905Y-91147743D01*
X154501905Y-91147743D01*
X155301905Y-90500124D02*
X154501905Y-90500124D01*
X155301905Y-90042981D02*
X154844762Y-90385838D01*
X154501905Y-90042981D02*
X154959048Y-90500124D01*
X152812705Y-91566771D02*
X152012705Y-91566771D01*
X152012705Y-91376295D01*
X152050800Y-91262009D01*
X152126990Y-91185818D01*
X152203181Y-91147723D01*
X152355562Y-91109628D01*
X152469848Y-91109628D01*
X152622229Y-91147723D01*
X152698419Y-91185818D01*
X152774610Y-91262009D01*
X152812705Y-91376295D01*
X152812705Y-91566771D01*
X152812705Y-90766771D02*
X152012705Y-90766771D01*
X152012705Y-90233438D02*
X152012705Y-90081057D01*
X152050800Y-90004866D01*
X152126990Y-89928676D01*
X152279371Y-89890581D01*
X152546038Y-89890581D01*
X152698419Y-89928676D01*
X152774610Y-90004866D01*
X152812705Y-90081057D01*
X152812705Y-90233438D01*
X152774610Y-90309628D01*
X152698419Y-90385819D01*
X152546038Y-90423914D01*
X152279371Y-90423914D01*
X152126990Y-90385819D01*
X152050800Y-90309628D01*
X152012705Y-90233438D01*
X157029200Y-79476676D02*
X156991105Y-79552867D01*
X156991105Y-79667152D01*
X157029200Y-79781438D01*
X157105390Y-79857629D01*
X157181581Y-79895724D01*
X157333962Y-79933819D01*
X157448248Y-79933819D01*
X157600629Y-79895724D01*
X157676819Y-79857629D01*
X157753010Y-79781438D01*
X157791105Y-79667152D01*
X157791105Y-79590962D01*
X157753010Y-79476676D01*
X157714914Y-79438581D01*
X157448248Y-79438581D01*
X157448248Y-79590962D01*
X157791105Y-79095724D02*
X156991105Y-79095724D01*
X157791105Y-78638581D01*
X156991105Y-78638581D01*
X157791105Y-78257629D02*
X156991105Y-78257629D01*
X156991105Y-78067153D01*
X157029200Y-77952867D01*
X157105390Y-77876676D01*
X157181581Y-77838581D01*
X157333962Y-77800486D01*
X157448248Y-77800486D01*
X157600629Y-77838581D01*
X157676819Y-77876676D01*
X157753010Y-77952867D01*
X157791105Y-78067153D01*
X157791105Y-78257629D01*
X155149505Y-79463981D02*
X154768552Y-79730648D01*
X155149505Y-79921124D02*
X154349505Y-79921124D01*
X154349505Y-79616362D01*
X154387600Y-79540171D01*
X154425695Y-79502076D01*
X154501886Y-79463981D01*
X154616171Y-79463981D01*
X154692362Y-79502076D01*
X154730457Y-79540171D01*
X154768552Y-79616362D01*
X154768552Y-79921124D01*
X154349505Y-79197314D02*
X155149505Y-78663981D01*
X154349505Y-78663981D02*
X155149505Y-79197314D01*
X151961905Y-79946514D02*
X151961905Y-79451276D01*
X152266667Y-79717943D01*
X152266667Y-79603657D01*
X152304762Y-79527467D01*
X152342857Y-79489371D01*
X152419048Y-79451276D01*
X152609524Y-79451276D01*
X152685714Y-79489371D01*
X152723810Y-79527467D01*
X152761905Y-79603657D01*
X152761905Y-79832229D01*
X152723810Y-79908419D01*
X152685714Y-79946514D01*
X151961905Y-79222705D02*
X152761905Y-78956038D01*
X151961905Y-78689371D01*
X151961905Y-78498895D02*
X151961905Y-78003657D01*
X152266667Y-78270324D01*
X152266667Y-78156038D01*
X152304762Y-78079848D01*
X152342857Y-78041752D01*
X152419048Y-78003657D01*
X152609524Y-78003657D01*
X152685714Y-78041752D01*
X152723810Y-78079848D01*
X152761905Y-78156038D01*
X152761905Y-78384610D01*
X152723810Y-78460800D01*
X152685714Y-78498895D01*
X152362029Y-142373343D02*
X152971553Y-142373343D01*
X152666791Y-142678105D02*
X152666791Y-142068581D01*
X153733458Y-141878105D02*
X153352505Y-141878105D01*
X153314410Y-142259057D01*
X153352505Y-142220962D01*
X153428696Y-142182867D01*
X153619172Y-142182867D01*
X153695362Y-142220962D01*
X153733458Y-142259057D01*
X153771553Y-142335248D01*
X153771553Y-142525724D01*
X153733458Y-142601914D01*
X153695362Y-142640010D01*
X153619172Y-142678105D01*
X153428696Y-142678105D01*
X153352505Y-142640010D01*
X153314410Y-142601914D01*
X154000124Y-141878105D02*
X154266791Y-142678105D01*
X154533458Y-141878105D01*
X150139477Y-141916200D02*
X150063286Y-141878105D01*
X149949001Y-141878105D01*
X149834715Y-141916200D01*
X149758524Y-141992390D01*
X149720429Y-142068581D01*
X149682334Y-142220962D01*
X149682334Y-142335248D01*
X149720429Y-142487629D01*
X149758524Y-142563819D01*
X149834715Y-142640010D01*
X149949001Y-142678105D01*
X150025191Y-142678105D01*
X150139477Y-142640010D01*
X150177572Y-142601914D01*
X150177572Y-142335248D01*
X150025191Y-142335248D01*
X150520429Y-142678105D02*
X150520429Y-141878105D01*
X150977572Y-142678105D01*
X150977572Y-141878105D01*
X151358524Y-142678105D02*
X151358524Y-141878105D01*
X151549000Y-141878105D01*
X151663286Y-141916200D01*
X151739477Y-141992390D01*
X151777572Y-142068581D01*
X151815667Y-142220962D01*
X151815667Y-142335248D01*
X151777572Y-142487629D01*
X151739477Y-142563819D01*
X151663286Y-142640010D01*
X151549000Y-142678105D01*
X151358524Y-142678105D01*
X141655877Y-141916200D02*
X141579686Y-141878105D01*
X141465401Y-141878105D01*
X141351115Y-141916200D01*
X141274924Y-141992390D01*
X141236829Y-142068581D01*
X141198734Y-142220962D01*
X141198734Y-142335248D01*
X141236829Y-142487629D01*
X141274924Y-142563819D01*
X141351115Y-142640010D01*
X141465401Y-142678105D01*
X141541591Y-142678105D01*
X141655877Y-142640010D01*
X141693972Y-142601914D01*
X141693972Y-142335248D01*
X141541591Y-142335248D01*
X142036829Y-142678105D02*
X142036829Y-141878105D01*
X142493972Y-142678105D01*
X142493972Y-141878105D01*
X142874924Y-142678105D02*
X142874924Y-141878105D01*
X143065400Y-141878105D01*
X143179686Y-141916200D01*
X143255877Y-141992390D01*
X143293972Y-142068581D01*
X143332067Y-142220962D01*
X143332067Y-142335248D01*
X143293972Y-142487629D01*
X143255877Y-142563819D01*
X143179686Y-142640010D01*
X143065400Y-142678105D01*
X142874924Y-142678105D01*
X138468229Y-142322543D02*
X139077753Y-142322543D01*
X138772991Y-142627305D02*
X138772991Y-142017781D01*
X139839658Y-141827305D02*
X139458705Y-141827305D01*
X139420610Y-142208257D01*
X139458705Y-142170162D01*
X139534896Y-142132067D01*
X139725372Y-142132067D01*
X139801562Y-142170162D01*
X139839658Y-142208257D01*
X139877753Y-142284448D01*
X139877753Y-142474924D01*
X139839658Y-142551114D01*
X139801562Y-142589210D01*
X139725372Y-142627305D01*
X139534896Y-142627305D01*
X139458705Y-142589210D01*
X139420610Y-142551114D01*
X140106324Y-141827305D02*
X140372991Y-142627305D01*
X140639658Y-141827305D01*
X135705990Y-142652705D02*
X135705990Y-141852705D01*
X136010752Y-141852705D01*
X136086943Y-141890800D01*
X136125038Y-141928895D01*
X136163133Y-142005086D01*
X136163133Y-142119371D01*
X136125038Y-142195562D01*
X136086943Y-142233657D01*
X136010752Y-142271752D01*
X135705990Y-142271752D01*
X136429800Y-141852705D02*
X136620276Y-142652705D01*
X136772657Y-142081276D01*
X136925038Y-142652705D01*
X137115514Y-141852705D01*
X137420276Y-142652705D02*
X137420276Y-141852705D01*
X137686943Y-142424133D01*
X137953610Y-141852705D01*
X137953610Y-142652705D01*
X157619790Y-66821105D02*
X158076933Y-66821105D01*
X157848362Y-67621105D02*
X157848362Y-66821105D01*
X158343600Y-67316343D02*
X158953124Y-67316343D01*
X166890790Y-66821105D02*
X167347933Y-66821105D01*
X167119362Y-67621105D02*
X167119362Y-66821105D01*
X167614600Y-67316343D02*
X168224124Y-67316343D01*
X167919362Y-67621105D02*
X167919362Y-67011581D01*
X134340677Y-66808400D02*
X134264486Y-66770305D01*
X134150201Y-66770305D01*
X134035915Y-66808400D01*
X133959724Y-66884590D01*
X133921629Y-66960781D01*
X133883534Y-67113162D01*
X133883534Y-67227448D01*
X133921629Y-67379829D01*
X133959724Y-67456019D01*
X134035915Y-67532210D01*
X134150201Y-67570305D01*
X134226391Y-67570305D01*
X134340677Y-67532210D01*
X134378772Y-67494114D01*
X134378772Y-67227448D01*
X134226391Y-67227448D01*
X134721629Y-67570305D02*
X134721629Y-66770305D01*
X135178772Y-67570305D01*
X135178772Y-66770305D01*
X135559724Y-67570305D02*
X135559724Y-66770305D01*
X135750200Y-66770305D01*
X135864486Y-66808400D01*
X135940677Y-66884590D01*
X135978772Y-66960781D01*
X136016867Y-67113162D01*
X136016867Y-67227448D01*
X135978772Y-67379829D01*
X135940677Y-67456019D01*
X135864486Y-67532210D01*
X135750200Y-67570305D01*
X135559724Y-67570305D01*
X147466248Y-66770305D02*
X147618629Y-66770305D01*
X147694820Y-66808400D01*
X147771010Y-66884590D01*
X147809105Y-67036971D01*
X147809105Y-67303638D01*
X147771010Y-67456019D01*
X147694820Y-67532210D01*
X147618629Y-67570305D01*
X147466248Y-67570305D01*
X147390058Y-67532210D01*
X147313867Y-67456019D01*
X147275772Y-67303638D01*
X147275772Y-67036971D01*
X147313867Y-66884590D01*
X147390058Y-66808400D01*
X147466248Y-66770305D01*
X148037676Y-66770305D02*
X148304343Y-67570305D01*
X148571010Y-66770305D01*
X148837676Y-67151257D02*
X149104343Y-67151257D01*
X149218629Y-67570305D02*
X148837676Y-67570305D01*
X148837676Y-66770305D01*
X149218629Y-66770305D01*
X149561486Y-67570305D02*
X149561486Y-66770305D01*
X150018629Y-67570305D01*
X150018629Y-66770305D01*
X150818629Y-67570305D02*
X150361486Y-67570305D01*
X150590057Y-67570305D02*
X150590057Y-66770305D01*
X150513867Y-66884590D01*
X150437676Y-66960781D01*
X150361486Y-66998876D01*
X140455848Y-70123105D02*
X140608229Y-70123105D01*
X140684420Y-70161200D01*
X140760610Y-70237390D01*
X140798705Y-70389771D01*
X140798705Y-70656438D01*
X140760610Y-70808819D01*
X140684420Y-70885010D01*
X140608229Y-70923105D01*
X140455848Y-70923105D01*
X140379658Y-70885010D01*
X140303467Y-70808819D01*
X140265372Y-70656438D01*
X140265372Y-70389771D01*
X140303467Y-70237390D01*
X140379658Y-70161200D01*
X140455848Y-70123105D01*
X141027276Y-70123105D02*
X141293943Y-70923105D01*
X141560610Y-70123105D01*
X141827276Y-70504057D02*
X142093943Y-70504057D01*
X142208229Y-70923105D02*
X141827276Y-70923105D01*
X141827276Y-70123105D01*
X142208229Y-70123105D01*
X142551086Y-70923105D02*
X142551086Y-70123105D01*
X143008229Y-70923105D01*
X143008229Y-70123105D01*
X143351086Y-70199295D02*
X143389181Y-70161200D01*
X143465372Y-70123105D01*
X143655848Y-70123105D01*
X143732038Y-70161200D01*
X143770134Y-70199295D01*
X143808229Y-70275486D01*
X143808229Y-70351676D01*
X143770134Y-70465962D01*
X143312991Y-70923105D01*
X143808229Y-70923105D01*
D12*
X178769971Y-139377228D02*
X178817590Y-139234371D01*
X178865210Y-139186752D01*
X178960448Y-139139133D01*
X179103305Y-139139133D01*
X179198543Y-139186752D01*
X179246162Y-139234371D01*
X179293781Y-139329609D01*
X179293781Y-139710562D01*
X178293781Y-139710562D01*
X178293781Y-139377228D01*
X178341400Y-139281990D01*
X178389019Y-139234371D01*
X178484257Y-139186752D01*
X178579495Y-139186752D01*
X178674733Y-139234371D01*
X178722352Y-139281990D01*
X178769971Y-139377228D01*
X178769971Y-139710562D01*
X178627114Y-138805800D02*
X179293781Y-138567705D01*
X178627114Y-138329609D02*
X179293781Y-138567705D01*
X179531876Y-138662943D01*
X179579495Y-138710562D01*
X179627114Y-138805800D01*
X179293781Y-136615323D02*
X178817590Y-136948657D01*
X179293781Y-137186752D02*
X178293781Y-137186752D01*
X178293781Y-136805799D01*
X178341400Y-136710561D01*
X178389019Y-136662942D01*
X178484257Y-136615323D01*
X178627114Y-136615323D01*
X178722352Y-136662942D01*
X178769971Y-136710561D01*
X178817590Y-136805799D01*
X178817590Y-137186752D01*
X179198543Y-136186752D02*
X179246162Y-136139133D01*
X179293781Y-136186752D01*
X179246162Y-136234371D01*
X179198543Y-136186752D01*
X179293781Y-136186752D01*
X179008067Y-134996276D02*
X179008067Y-134520085D01*
X179293781Y-135091514D02*
X178293781Y-134758181D01*
X179293781Y-134424847D01*
X178627114Y-134091514D02*
X179293781Y-134091514D01*
X178722352Y-134091514D02*
X178674733Y-134043895D01*
X178627114Y-133948657D01*
X178627114Y-133805799D01*
X178674733Y-133710561D01*
X178769971Y-133662942D01*
X179293781Y-133662942D01*
X178627114Y-132758180D02*
X179436638Y-132758180D01*
X179531876Y-132805799D01*
X179579495Y-132853418D01*
X179627114Y-132948657D01*
X179627114Y-133091514D01*
X179579495Y-133186752D01*
X179246162Y-132758180D02*
X179293781Y-132853418D01*
X179293781Y-133043895D01*
X179246162Y-133139133D01*
X179198543Y-133186752D01*
X179103305Y-133234371D01*
X178817590Y-133234371D01*
X178722352Y-133186752D01*
X178674733Y-133139133D01*
X178627114Y-133043895D01*
X178627114Y-132853418D01*
X178674733Y-132758180D01*
X179246162Y-131901037D02*
X179293781Y-131996275D01*
X179293781Y-132186752D01*
X179246162Y-132281990D01*
X179150924Y-132329609D01*
X178769971Y-132329609D01*
X178674733Y-132281990D01*
X178627114Y-132186752D01*
X178627114Y-131996275D01*
X178674733Y-131901037D01*
X178769971Y-131853418D01*
X178865210Y-131853418D01*
X178960448Y-132329609D01*
X179293781Y-131281990D02*
X179246162Y-131377228D01*
X179150924Y-131424847D01*
X178293781Y-131424847D01*
X179293781Y-130901037D02*
X178627114Y-130901037D01*
X178293781Y-130901037D02*
X178341400Y-130948656D01*
X178389019Y-130901037D01*
X178341400Y-130853418D01*
X178293781Y-130901037D01*
X178389019Y-130901037D01*
X161977581Y-96743781D02*
X161644247Y-96267590D01*
X161406152Y-96743781D02*
X161406152Y-95743781D01*
X161787105Y-95743781D01*
X161882343Y-95791400D01*
X161929962Y-95839019D01*
X161977581Y-95934257D01*
X161977581Y-96077114D01*
X161929962Y-96172352D01*
X161882343Y-96219971D01*
X161787105Y-96267590D01*
X161406152Y-96267590D01*
X162787105Y-96696162D02*
X162691867Y-96743781D01*
X162501390Y-96743781D01*
X162406152Y-96696162D01*
X162358533Y-96600924D01*
X162358533Y-96219971D01*
X162406152Y-96124733D01*
X162501390Y-96077114D01*
X162691867Y-96077114D01*
X162787105Y-96124733D01*
X162834724Y-96219971D01*
X162834724Y-96315210D01*
X162358533Y-96410448D01*
X163168057Y-96077114D02*
X163406152Y-96743781D01*
X163644248Y-96077114D01*
X164025200Y-96648543D02*
X164072819Y-96696162D01*
X164025200Y-96743781D01*
X163977581Y-96696162D01*
X164025200Y-96648543D01*
X164025200Y-96743781D01*
X165215676Y-96458067D02*
X165691867Y-96458067D01*
X165120438Y-96743781D02*
X165453771Y-95743781D01*
X165787105Y-96743781D01*
D13*
X140750000Y-114350000D02*
X165750000Y-114350000D01*
X140750000Y-117050000D02*
X165750000Y-117050000D01*
X140750000Y-117050000D02*
X140750000Y-119300000D01*
X165750000Y-117050000D02*
X165750000Y-119300000D01*
X140750000Y-119300000D02*
X138010000Y-119300000D01*
X165750000Y-119300000D02*
X168490000Y-119300000D01*
X138010000Y-119300000D02*
X138010000Y-114850000D01*
X168490000Y-119300000D02*
X168490000Y-114850000D01*
X138010000Y-114850000D02*
X140750000Y-114850000D01*
X168490000Y-114850000D02*
X165750000Y-114850000D01*
X140750000Y-114850000D02*
X140750000Y-114350000D01*
X165750000Y-114850000D02*
X165750000Y-114350000D01*
X140750000Y-114350000D02*
X165750000Y-114350000D01*
X140750000Y-117050000D02*
X165750000Y-117050000D01*
X140750000Y-117050000D02*
X140750000Y-119300000D01*
X165750000Y-117050000D02*
X165750000Y-119300000D01*
X140750000Y-119300000D02*
X138010000Y-119300000D01*
X165750000Y-119300000D02*
X168490000Y-119300000D01*
X138010000Y-119300000D02*
X138010000Y-114850000D01*
X168490000Y-119300000D02*
X168490000Y-114850000D01*
X138010000Y-114850000D02*
X140750000Y-114850000D01*
X168490000Y-114850000D02*
X165750000Y-114850000D01*
X140750000Y-114850000D02*
X140750000Y-114350000D01*
X165750000Y-114850000D02*
X165750000Y-114350000D01*
X169841800Y-77280400D02*
X168841800Y-77280400D01*
X168841800Y-78980400D02*
X169841800Y-78980400D01*
X155651200Y-132765800D02*
X155651200Y-132511800D01*
X155651200Y-132511800D02*
X153365200Y-132511800D01*
X153365200Y-132511800D02*
X153365200Y-132765800D01*
X155651200Y-132765800D02*
X153365200Y-132765800D01*
X153365200Y-132765800D02*
X153365200Y-134416800D01*
X155651200Y-136194800D02*
X155651200Y-137845800D01*
X155651200Y-137845800D02*
X153365200Y-137845800D01*
X153365200Y-137845800D02*
X153365200Y-136194800D01*
X155651200Y-134416800D02*
X155651200Y-132765800D01*
X141986000Y-134366000D02*
X141986000Y-134112000D01*
X141986000Y-134112000D02*
X139700000Y-134112000D01*
X139700000Y-134112000D02*
X139700000Y-134366000D01*
X141986000Y-134366000D02*
X139700000Y-134366000D01*
X139700000Y-134366000D02*
X139700000Y-136017000D01*
X141986000Y-137795000D02*
X141986000Y-139446000D01*
X141986000Y-139446000D02*
X139700000Y-139446000D01*
X139700000Y-139446000D02*
X139700000Y-137795000D01*
X141986000Y-136017000D02*
X141986000Y-134366000D01*
X142607400Y-111421800D02*
X142607400Y-110421800D01*
X140907400Y-110421800D02*
X140907400Y-111421800D01*
X140346800Y-111447200D02*
X140346800Y-110447200D01*
X138646800Y-110447200D02*
X138646800Y-111447200D01*
X135186800Y-104075600D02*
X136186800Y-104075600D01*
X136186800Y-102375600D02*
X135186800Y-102375600D01*
X155897200Y-102121600D02*
X154897200Y-102121600D01*
X154897200Y-103821600D02*
X155897200Y-103821600D01*
X135136000Y-101738800D02*
X136136000Y-101738800D01*
X136136000Y-100038800D02*
X135136000Y-100038800D01*
X169138600Y-121589800D02*
X169138600Y-121843800D01*
X169138600Y-121843800D02*
X171424600Y-121843800D01*
X171424600Y-121843800D02*
X171424600Y-121589800D01*
X169138600Y-121589800D02*
X171424600Y-121589800D01*
X171424600Y-121589800D02*
X171424600Y-119938800D01*
X169138600Y-118160800D02*
X169138600Y-116509800D01*
X169138600Y-116509800D02*
X171424600Y-116509800D01*
X171424600Y-116509800D02*
X171424600Y-118160800D01*
X169138600Y-119938800D02*
X169138600Y-121589800D01*
X173951000Y-119642000D02*
X173951000Y-118642000D01*
X172251000Y-118642000D02*
X172251000Y-119642000D01*
X176516400Y-119660800D02*
X176516400Y-118660800D01*
X174816400Y-118660800D02*
X174816400Y-119660800D01*
X171657800Y-95840800D02*
X177657800Y-95840800D01*
X166907800Y-95840800D02*
X169407800Y-95840800D01*
X166907800Y-108990800D02*
X166907800Y-95840800D01*
X167857800Y-108990800D02*
X166907800Y-108990800D01*
X168807800Y-108990800D02*
X167857800Y-108990800D01*
X177657800Y-108990800D02*
X172407800Y-108990800D01*
X172712180Y-133463600D02*
X170012180Y-133463600D01*
X172712180Y-134963600D02*
X170012180Y-134963600D01*
X171212180Y-134063600D02*
X171212180Y-134313600D01*
X171212180Y-134313600D02*
X171362180Y-134163600D01*
X171462180Y-134563600D02*
X171462180Y-133863600D01*
X171112180Y-134213600D02*
X170762180Y-134213600D01*
X171462180Y-134213600D02*
X171112180Y-134563600D01*
X171112180Y-134563600D02*
X171112180Y-133863600D01*
X171112180Y-133863600D02*
X171462180Y-134213600D01*
X159438400Y-69807600D02*
X166438400Y-69807600D01*
X159438400Y-69807600D02*
X159438400Y-63307600D01*
X162938400Y-63307600D02*
X162938400Y-65157600D01*
X166438400Y-69807600D02*
X166438400Y-63307600D01*
X136405800Y-69807600D02*
X146905800Y-69807600D01*
X136405800Y-69807600D02*
X136405800Y-63307600D01*
X143405800Y-63307600D02*
X143405800Y-65157600D01*
X146905800Y-69807600D02*
X146905800Y-63307600D01*
X139905800Y-63307600D02*
X139905800Y-65157600D01*
X164678021Y-141034000D02*
G75*
G03X164678021Y-141034000I-141421J0D01*
G01*
X164236600Y-146434000D02*
X164236600Y-148034000D01*
X167436600Y-146434000D02*
X167436600Y-147934000D01*
X167036600Y-146434000D02*
X167436600Y-146434000D01*
X167036600Y-147934000D02*
X167036600Y-146434000D01*
X166336600Y-147934000D02*
X166336600Y-146434000D01*
X166336600Y-146434000D02*
X166736600Y-146434000D01*
X166736600Y-146434000D02*
X166736600Y-147934000D01*
X166036600Y-146434000D02*
X166036600Y-147934000D01*
X165636600Y-146434000D02*
X166036600Y-146434000D01*
X165636600Y-147934000D02*
X165636600Y-146434000D01*
X164936600Y-147934000D02*
X164936600Y-146434000D01*
X164936600Y-146434000D02*
X165336600Y-146434000D01*
X165336600Y-146434000D02*
X165336600Y-147934000D01*
X164336600Y-146434000D02*
X164336600Y-147834000D01*
X164336600Y-147834000D02*
X164536600Y-147834000D01*
X164536600Y-147834000D02*
X164536600Y-146434000D01*
X164536600Y-146434000D02*
X164436600Y-146434000D01*
X164436600Y-146434000D02*
X164436600Y-147734000D01*
X164336600Y-148034000D02*
X164336600Y-146434000D01*
X164236600Y-146434000D02*
X164636600Y-146434000D01*
X164636600Y-146434000D02*
X164636600Y-147934000D01*
X164636600Y-147934000D02*
X164336600Y-147934000D01*
X165861600Y-148034000D02*
X169911600Y-148034000D01*
X169936600Y-148034000D02*
X169936600Y-146534000D01*
X161736600Y-148034000D02*
X161736600Y-146534000D01*
X165811600Y-148034000D02*
X161761600Y-148034000D01*
X139424360Y-90129360D02*
X139376100Y-90129360D01*
X136625380Y-90830400D02*
X136625380Y-90129360D01*
X136625380Y-90129360D02*
X136874300Y-90129360D01*
X139424360Y-90129360D02*
X139625020Y-90129360D01*
X139625020Y-90129360D02*
X139625020Y-90830400D01*
X146231560Y-74482960D02*
X146183300Y-74482960D01*
X143432580Y-75184000D02*
X143432580Y-74482960D01*
X143432580Y-74482960D02*
X143681500Y-74482960D01*
X146231560Y-74482960D02*
X146432220Y-74482960D01*
X146432220Y-74482960D02*
X146432220Y-75184000D01*
X139430760Y-73859440D02*
X139430760Y-73907700D01*
X140131800Y-76658420D02*
X139430760Y-76658420D01*
X139430760Y-76658420D02*
X139430760Y-76409500D01*
X139430760Y-73859440D02*
X139430760Y-73658780D01*
X139430760Y-73658780D02*
X140131800Y-73658780D01*
X170887440Y-125415040D02*
X170935700Y-125415040D01*
X173686420Y-124714000D02*
X173686420Y-125415040D01*
X173686420Y-125415040D02*
X173437500Y-125415040D01*
X170887440Y-125415040D02*
X170686780Y-125415040D01*
X170686780Y-125415040D02*
X170686780Y-124714000D01*
X165873400Y-72399600D02*
X165873400Y-73599600D01*
X164123400Y-73599600D02*
X164123400Y-72399600D01*
X162063400Y-72475800D02*
X162063400Y-73675800D01*
X160313400Y-73675800D02*
X160313400Y-72475800D01*
X133740600Y-89345800D02*
X134940600Y-89345800D01*
X134940600Y-91095800D02*
X133740600Y-91095800D01*
X146573800Y-72858600D02*
X145373800Y-72858600D01*
X145373800Y-71108600D02*
X146573800Y-71108600D01*
X139207800Y-72807800D02*
X138007800Y-72807800D01*
X138007800Y-71057800D02*
X139207800Y-71057800D01*
X134375600Y-119521000D02*
X135575600Y-119521000D01*
X135575600Y-121271000D02*
X134375600Y-121271000D01*
X134375600Y-121807000D02*
X135575600Y-121807000D01*
X135575600Y-123557000D02*
X134375600Y-123557000D01*
X134375600Y-124143800D02*
X135575600Y-124143800D01*
X135575600Y-125893800D02*
X134375600Y-125893800D01*
X134375600Y-126531400D02*
X135575600Y-126531400D01*
X135575600Y-128281400D02*
X134375600Y-128281400D01*
X177123800Y-110783400D02*
X178323800Y-110783400D01*
X178323800Y-112533400D02*
X177123800Y-112533400D01*
X177622800Y-94194600D02*
X176422800Y-94194600D01*
X176422800Y-92444600D02*
X177622800Y-92444600D01*
X171311600Y-129022400D02*
X171311600Y-127822400D01*
X173061600Y-127822400D02*
X173061600Y-129022400D01*
X140095800Y-81965800D02*
G75*
G03X140095800Y-81965800I-6100000J0D01*
G01*
X140605976Y-101727000D02*
X140977207Y-102098231D01*
X145732500Y-96600476D02*
X146103731Y-96971707D01*
X150859024Y-101727000D02*
X150487793Y-101355769D01*
X145732500Y-106853524D02*
X145361269Y-106482293D01*
X140605976Y-101727000D02*
X140977207Y-101355769D01*
X145732500Y-106853524D02*
X146103731Y-106482293D01*
X150859024Y-101727000D02*
X150487793Y-102098231D01*
X145732500Y-96600476D02*
X145361269Y-96971707D01*
X140977207Y-102098231D02*
X140004935Y-103070503D01*
X171500800Y-84023200D02*
G75*
G03X171500800Y-84023200I-127000J0D01*
G01*
X172008800Y-83388200D02*
X166928800Y-83388200D01*
X172008800Y-86690200D02*
X166928800Y-86690200D01*
X172008800Y-82880200D02*
X166928800Y-82880200D01*
X172008800Y-82880200D02*
X172008800Y-86690200D01*
X166928800Y-82880200D02*
X166928800Y-86690200D01*
X148894800Y-138658600D02*
X151942800Y-138658600D01*
X151942800Y-138658600D02*
X151942800Y-131546600D01*
X151942800Y-131546600D02*
X148894800Y-131546600D01*
X145846800Y-138658600D02*
X145084800Y-138658600D01*
X145084800Y-138658600D02*
X142798800Y-137134600D01*
X142798800Y-137134600D02*
X142798800Y-133070600D01*
X142798800Y-133070600D02*
X145084800Y-131546600D01*
X145084800Y-131546600D02*
X145846800Y-131546600D01*
X138480800Y-145897600D02*
X143560800Y-145897600D01*
X143560800Y-145897600D02*
X143560800Y-143357600D01*
X143560800Y-143357600D02*
X138480800Y-143357600D01*
X135660800Y-143077600D02*
X137210800Y-143077600D01*
X138480800Y-143357600D02*
X138480800Y-145897600D01*
X137210800Y-146177600D02*
X135660800Y-146177600D01*
X135660800Y-146177600D02*
X135660800Y-143077600D01*
X152196800Y-145948400D02*
X149656800Y-145948400D01*
X155016800Y-146228400D02*
X153466800Y-146228400D01*
X152196800Y-145948400D02*
X152196800Y-143408400D01*
X153466800Y-143128400D02*
X155016800Y-143128400D01*
X155016800Y-143128400D02*
X155016800Y-146228400D01*
X152196800Y-143408400D02*
X149656800Y-143408400D01*
X149656800Y-143408400D02*
X149656800Y-145948400D01*
D14*
G36*
X151308721Y-93169840D02*
X151448318Y-93178562D01*
X151555179Y-93195595D01*
X151638253Y-93223029D01*
X151706487Y-93262952D01*
X151768336Y-93316959D01*
X151855309Y-93438211D01*
X151903273Y-93582634D01*
X151910966Y-93739404D01*
X151877128Y-93897699D01*
X151844743Y-93973054D01*
X151791162Y-94054390D01*
X151715593Y-94140339D01*
X151631191Y-94218454D01*
X151551114Y-94276287D01*
X151499801Y-94299392D01*
X151451608Y-94317240D01*
X151434799Y-94333097D01*
X151445246Y-94372983D01*
X151473564Y-94448298D01*
X151515220Y-94549019D01*
X151565682Y-94665125D01*
X151620415Y-94786592D01*
X151674888Y-94903397D01*
X151724567Y-95005519D01*
X151764919Y-95082933D01*
X151791411Y-95125618D01*
X151794925Y-95129350D01*
X151821543Y-95146685D01*
X151859882Y-95158928D01*
X151918292Y-95166917D01*
X152005124Y-95171491D01*
X152128728Y-95173487D01*
X152237713Y-95173800D01*
X152387862Y-95174266D01*
X152495764Y-95176348D01*
X152569967Y-95181065D01*
X152619023Y-95189438D01*
X152651479Y-95202488D01*
X152675886Y-95221236D01*
X152681601Y-95226801D01*
X152720191Y-95287268D01*
X152718618Y-95347451D01*
X152693497Y-95409992D01*
X152647884Y-95457861D01*
X152576572Y-95492340D01*
X152474349Y-95514713D01*
X152336007Y-95526261D01*
X152156336Y-95528269D01*
X151999458Y-95524561D01*
X151832590Y-95516092D01*
X151707717Y-95501648D01*
X151616141Y-95478534D01*
X151549165Y-95444053D01*
X151498089Y-95395509D01*
X151473411Y-95361515D01*
X151450420Y-95317881D01*
X151411932Y-95235260D01*
X151361523Y-95121748D01*
X151302769Y-94985442D01*
X151239248Y-94834436D01*
X151219766Y-94787403D01*
X151011253Y-94282171D01*
X150863887Y-94645435D01*
X150748507Y-94918327D01*
X150641032Y-95145527D01*
X150537993Y-95330853D01*
X150435922Y-95478123D01*
X150331350Y-95591156D01*
X150220808Y-95673770D01*
X150100828Y-95729782D01*
X149967941Y-95763013D01*
X149836410Y-95776500D01*
X149725965Y-95779056D01*
X149645231Y-95771344D01*
X149573595Y-95750031D01*
X149517100Y-95724885D01*
X149356823Y-95622883D01*
X149238095Y-95492446D01*
X149161883Y-95335701D01*
X149129159Y-95154777D01*
X149140892Y-94951800D01*
X149147585Y-94914190D01*
X149213755Y-94703997D01*
X149324250Y-94513867D01*
X149474774Y-94349147D01*
X149661029Y-94215182D01*
X149744502Y-94171439D01*
X149922177Y-94098752D01*
X150087531Y-94053206D01*
X150235290Y-94034447D01*
X150360179Y-94042126D01*
X150456922Y-94075889D01*
X150520246Y-94135384D01*
X150544875Y-94220261D01*
X150544992Y-94224836D01*
X150533156Y-94291050D01*
X150491367Y-94341988D01*
X150413551Y-94381502D01*
X150293637Y-94413441D01*
X150228300Y-94425689D01*
X150019744Y-94476075D01*
X149852464Y-94549613D01*
X149721253Y-94648961D01*
X149663841Y-94713915D01*
X149583034Y-94850263D01*
X149542759Y-94990989D01*
X149543671Y-95126971D01*
X149586426Y-95249084D01*
X149621768Y-95299814D01*
X149709628Y-95370738D01*
X149811098Y-95397159D01*
X149920216Y-95381453D01*
X150031019Y-95325995D01*
X150137544Y-95233160D01*
X150233830Y-95105325D01*
X150269873Y-95041594D01*
X150293904Y-94990285D01*
X150334035Y-94898951D01*
X150387274Y-94774645D01*
X150450633Y-94624420D01*
X150521119Y-94455328D01*
X150595744Y-94274422D01*
X150612312Y-94234000D01*
X150694361Y-94033585D01*
X151109858Y-94033585D01*
X151124522Y-94041551D01*
X151172428Y-94036974D01*
X151238588Y-94023277D01*
X151308018Y-94003880D01*
X151365733Y-93982207D01*
X151387638Y-93970150D01*
X151460335Y-93896595D01*
X151505300Y-93805155D01*
X151520052Y-93709510D01*
X151502111Y-93623344D01*
X151460448Y-93568693D01*
X151408105Y-93532766D01*
X151365793Y-93524134D01*
X151327778Y-93547534D01*
X151288323Y-93607705D01*
X151241694Y-93709386D01*
X151216837Y-93769960D01*
X151175001Y-93873661D01*
X151140319Y-93959290D01*
X151117103Y-94016219D01*
X151109858Y-94033585D01*
X150694361Y-94033585D01*
X150898277Y-93535500D01*
X150776284Y-93522419D01*
X150665110Y-93499420D01*
X150598264Y-93457505D01*
X150571937Y-93394000D01*
X150571200Y-93378320D01*
X150579123Y-93307705D01*
X150606628Y-93254153D01*
X150659319Y-93215539D01*
X150742798Y-93189738D01*
X150862670Y-93174623D01*
X151024537Y-93168070D01*
X151127440Y-93167341D01*
X151308721Y-93169840D01*
X151308721Y-93169840D01*
G37*
X151308721Y-93169840D02*
X151448318Y-93178562D01*
X151555179Y-93195595D01*
X151638253Y-93223029D01*
X151706487Y-93262952D01*
X151768336Y-93316959D01*
X151855309Y-93438211D01*
X151903273Y-93582634D01*
X151910966Y-93739404D01*
X151877128Y-93897699D01*
X151844743Y-93973054D01*
X151791162Y-94054390D01*
X151715593Y-94140339D01*
X151631191Y-94218454D01*
X151551114Y-94276287D01*
X151499801Y-94299392D01*
X151451608Y-94317240D01*
X151434799Y-94333097D01*
X151445246Y-94372983D01*
X151473564Y-94448298D01*
X151515220Y-94549019D01*
X151565682Y-94665125D01*
X151620415Y-94786592D01*
X151674888Y-94903397D01*
X151724567Y-95005519D01*
X151764919Y-95082933D01*
X151791411Y-95125618D01*
X151794925Y-95129350D01*
X151821543Y-95146685D01*
X151859882Y-95158928D01*
X151918292Y-95166917D01*
X152005124Y-95171491D01*
X152128728Y-95173487D01*
X152237713Y-95173800D01*
X152387862Y-95174266D01*
X152495764Y-95176348D01*
X152569967Y-95181065D01*
X152619023Y-95189438D01*
X152651479Y-95202488D01*
X152675886Y-95221236D01*
X152681601Y-95226801D01*
X152720191Y-95287268D01*
X152718618Y-95347451D01*
X152693497Y-95409992D01*
X152647884Y-95457861D01*
X152576572Y-95492340D01*
X152474349Y-95514713D01*
X152336007Y-95526261D01*
X152156336Y-95528269D01*
X151999458Y-95524561D01*
X151832590Y-95516092D01*
X151707717Y-95501648D01*
X151616141Y-95478534D01*
X151549165Y-95444053D01*
X151498089Y-95395509D01*
X151473411Y-95361515D01*
X151450420Y-95317881D01*
X151411932Y-95235260D01*
X151361523Y-95121748D01*
X151302769Y-94985442D01*
X151239248Y-94834436D01*
X151219766Y-94787403D01*
X151011253Y-94282171D01*
X150863887Y-94645435D01*
X150748507Y-94918327D01*
X150641032Y-95145527D01*
X150537993Y-95330853D01*
X150435922Y-95478123D01*
X150331350Y-95591156D01*
X150220808Y-95673770D01*
X150100828Y-95729782D01*
X149967941Y-95763013D01*
X149836410Y-95776500D01*
X149725965Y-95779056D01*
X149645231Y-95771344D01*
X149573595Y-95750031D01*
X149517100Y-95724885D01*
X149356823Y-95622883D01*
X149238095Y-95492446D01*
X149161883Y-95335701D01*
X149129159Y-95154777D01*
X149140892Y-94951800D01*
X149147585Y-94914190D01*
X149213755Y-94703997D01*
X149324250Y-94513867D01*
X149474774Y-94349147D01*
X149661029Y-94215182D01*
X149744502Y-94171439D01*
X149922177Y-94098752D01*
X150087531Y-94053206D01*
X150235290Y-94034447D01*
X150360179Y-94042126D01*
X150456922Y-94075889D01*
X150520246Y-94135384D01*
X150544875Y-94220261D01*
X150544992Y-94224836D01*
X150533156Y-94291050D01*
X150491367Y-94341988D01*
X150413551Y-94381502D01*
X150293637Y-94413441D01*
X150228300Y-94425689D01*
X150019744Y-94476075D01*
X149852464Y-94549613D01*
X149721253Y-94648961D01*
X149663841Y-94713915D01*
X149583034Y-94850263D01*
X149542759Y-94990989D01*
X149543671Y-95126971D01*
X149586426Y-95249084D01*
X149621768Y-95299814D01*
X149709628Y-95370738D01*
X149811098Y-95397159D01*
X149920216Y-95381453D01*
X150031019Y-95325995D01*
X150137544Y-95233160D01*
X150233830Y-95105325D01*
X150269873Y-95041594D01*
X150293904Y-94990285D01*
X150334035Y-94898951D01*
X150387274Y-94774645D01*
X150450633Y-94624420D01*
X150521119Y-94455328D01*
X150595744Y-94274422D01*
X150612312Y-94234000D01*
X150694361Y-94033585D01*
X151109858Y-94033585D01*
X151124522Y-94041551D01*
X151172428Y-94036974D01*
X151238588Y-94023277D01*
X151308018Y-94003880D01*
X151365733Y-93982207D01*
X151387638Y-93970150D01*
X151460335Y-93896595D01*
X151505300Y-93805155D01*
X151520052Y-93709510D01*
X151502111Y-93623344D01*
X151460448Y-93568693D01*
X151408105Y-93532766D01*
X151365793Y-93524134D01*
X151327778Y-93547534D01*
X151288323Y-93607705D01*
X151241694Y-93709386D01*
X151216837Y-93769960D01*
X151175001Y-93873661D01*
X151140319Y-93959290D01*
X151117103Y-94016219D01*
X151109858Y-94033585D01*
X150694361Y-94033585D01*
X150898277Y-93535500D01*
X150776284Y-93522419D01*
X150665110Y-93499420D01*
X150598264Y-93457505D01*
X150571937Y-93394000D01*
X150571200Y-93378320D01*
X150579123Y-93307705D01*
X150606628Y-93254153D01*
X150659319Y-93215539D01*
X150742798Y-93189738D01*
X150862670Y-93174623D01*
X151024537Y-93168070D01*
X151127440Y-93167341D01*
X151308721Y-93169840D01*
G36*
X156150788Y-93168209D02*
X156276115Y-93170885D01*
X156365496Y-93176153D01*
X156426347Y-93184593D01*
X156466087Y-93196784D01*
X156483748Y-93206740D01*
X156531276Y-93267056D01*
X156538600Y-93343633D01*
X156506278Y-93422416D01*
X156473705Y-93459850D01*
X156444877Y-93484078D01*
X156413250Y-93501200D01*
X156369612Y-93512677D01*
X156304749Y-93519967D01*
X156209449Y-93524528D01*
X156074499Y-93527821D01*
X156040253Y-93528488D01*
X155673297Y-93535500D01*
X155573348Y-93774290D01*
X155531424Y-93876452D01*
X155498155Y-93961331D01*
X155477760Y-94017934D01*
X155473400Y-94034640D01*
X155496435Y-94046180D01*
X155556134Y-94054003D01*
X155620719Y-94056199D01*
X155725733Y-94062547D01*
X155789705Y-94085455D01*
X155821240Y-94130723D01*
X155829000Y-94196552D01*
X155812884Y-94280271D01*
X155761648Y-94341136D01*
X155670962Y-94382000D01*
X155536493Y-94405715D01*
X155507293Y-94408384D01*
X155309408Y-94424500D01*
X155141064Y-94833781D01*
X155033960Y-95081116D01*
X154933214Y-95282973D01*
X154834681Y-95443577D01*
X154734216Y-95567153D01*
X154627671Y-95657926D01*
X154510903Y-95720120D01*
X154379764Y-95757960D01*
X154230110Y-95775672D01*
X154216100Y-95776399D01*
X154103777Y-95779190D01*
X154022623Y-95772845D01*
X153953378Y-95754378D01*
X153885900Y-95725199D01*
X153732281Y-95625817D01*
X153615896Y-95496261D01*
X153538624Y-95342837D01*
X153502344Y-95171851D01*
X153508186Y-95010326D01*
X153908607Y-95010326D01*
X153911865Y-95139041D01*
X153932386Y-95205494D01*
X153999031Y-95313968D01*
X154089962Y-95377872D01*
X154205725Y-95397546D01*
X154237042Y-95395744D01*
X154326396Y-95378109D01*
X154405690Y-95347601D01*
X154427542Y-95334268D01*
X154489309Y-95279816D01*
X154549677Y-95205849D01*
X154611697Y-95106816D01*
X154678422Y-94977165D01*
X154752904Y-94811345D01*
X154838195Y-94603805D01*
X154861408Y-94545150D01*
X154913858Y-94411800D01*
X154764504Y-94411800D01*
X154585589Y-94429124D01*
X154416625Y-94477693D01*
X154262972Y-94552394D01*
X154129985Y-94648118D01*
X154023024Y-94759755D01*
X153947445Y-94882194D01*
X153908607Y-95010326D01*
X153508186Y-95010326D01*
X153508936Y-94989610D01*
X153560280Y-94802418D01*
X153590506Y-94734164D01*
X153623023Y-94664044D01*
X153639436Y-94620657D01*
X153636303Y-94613144D01*
X153635925Y-94613514D01*
X153596883Y-94627285D01*
X153522468Y-94635990D01*
X153427858Y-94639610D01*
X153328230Y-94638126D01*
X153238760Y-94631520D01*
X153174624Y-94619772D01*
X153160330Y-94614106D01*
X153119611Y-94565006D01*
X153111200Y-94513400D01*
X153121563Y-94455873D01*
X153157475Y-94417837D01*
X153226168Y-94396004D01*
X153334877Y-94387087D01*
X153390600Y-94386400D01*
X153518750Y-94391539D01*
X153603554Y-94408810D01*
X153651597Y-94440993D01*
X153669464Y-94490867D01*
X153670000Y-94504329D01*
X153672278Y-94534689D01*
X153684108Y-94543201D01*
X153712982Y-94526267D01*
X153766392Y-94480290D01*
X153817316Y-94433585D01*
X154018728Y-94281420D01*
X154250604Y-94166479D01*
X154506455Y-94091124D01*
X154779793Y-94057721D01*
X154853162Y-94056200D01*
X155062998Y-94056200D01*
X155195151Y-93719650D01*
X155263693Y-93547152D01*
X155317982Y-93416443D01*
X155361157Y-93321585D01*
X155396359Y-93256636D01*
X155426728Y-93215657D01*
X155455403Y-93192709D01*
X155478601Y-93183509D01*
X155522469Y-93178368D01*
X155607534Y-93173898D01*
X155724193Y-93170404D01*
X155862845Y-93168190D01*
X155982098Y-93167546D01*
X156150788Y-93168209D01*
X156150788Y-93168209D01*
G37*
X156150788Y-93168209D02*
X156276115Y-93170885D01*
X156365496Y-93176153D01*
X156426347Y-93184593D01*
X156466087Y-93196784D01*
X156483748Y-93206740D01*
X156531276Y-93267056D01*
X156538600Y-93343633D01*
X156506278Y-93422416D01*
X156473705Y-93459850D01*
X156444877Y-93484078D01*
X156413250Y-93501200D01*
X156369612Y-93512677D01*
X156304749Y-93519967D01*
X156209449Y-93524528D01*
X156074499Y-93527821D01*
X156040253Y-93528488D01*
X155673297Y-93535500D01*
X155573348Y-93774290D01*
X155531424Y-93876452D01*
X155498155Y-93961331D01*
X155477760Y-94017934D01*
X155473400Y-94034640D01*
X155496435Y-94046180D01*
X155556134Y-94054003D01*
X155620719Y-94056199D01*
X155725733Y-94062547D01*
X155789705Y-94085455D01*
X155821240Y-94130723D01*
X155829000Y-94196552D01*
X155812884Y-94280271D01*
X155761648Y-94341136D01*
X155670962Y-94382000D01*
X155536493Y-94405715D01*
X155507293Y-94408384D01*
X155309408Y-94424500D01*
X155141064Y-94833781D01*
X155033960Y-95081116D01*
X154933214Y-95282973D01*
X154834681Y-95443577D01*
X154734216Y-95567153D01*
X154627671Y-95657926D01*
X154510903Y-95720120D01*
X154379764Y-95757960D01*
X154230110Y-95775672D01*
X154216100Y-95776399D01*
X154103777Y-95779190D01*
X154022623Y-95772845D01*
X153953378Y-95754378D01*
X153885900Y-95725199D01*
X153732281Y-95625817D01*
X153615896Y-95496261D01*
X153538624Y-95342837D01*
X153502344Y-95171851D01*
X153508186Y-95010326D01*
X153908607Y-95010326D01*
X153911865Y-95139041D01*
X153932386Y-95205494D01*
X153999031Y-95313968D01*
X154089962Y-95377872D01*
X154205725Y-95397546D01*
X154237042Y-95395744D01*
X154326396Y-95378109D01*
X154405690Y-95347601D01*
X154427542Y-95334268D01*
X154489309Y-95279816D01*
X154549677Y-95205849D01*
X154611697Y-95106816D01*
X154678422Y-94977165D01*
X154752904Y-94811345D01*
X154838195Y-94603805D01*
X154861408Y-94545150D01*
X154913858Y-94411800D01*
X154764504Y-94411800D01*
X154585589Y-94429124D01*
X154416625Y-94477693D01*
X154262972Y-94552394D01*
X154129985Y-94648118D01*
X154023024Y-94759755D01*
X153947445Y-94882194D01*
X153908607Y-95010326D01*
X153508186Y-95010326D01*
X153508936Y-94989610D01*
X153560280Y-94802418D01*
X153590506Y-94734164D01*
X153623023Y-94664044D01*
X153639436Y-94620657D01*
X153636303Y-94613144D01*
X153635925Y-94613514D01*
X153596883Y-94627285D01*
X153522468Y-94635990D01*
X153427858Y-94639610D01*
X153328230Y-94638126D01*
X153238760Y-94631520D01*
X153174624Y-94619772D01*
X153160330Y-94614106D01*
X153119611Y-94565006D01*
X153111200Y-94513400D01*
X153121563Y-94455873D01*
X153157475Y-94417837D01*
X153226168Y-94396004D01*
X153334877Y-94387087D01*
X153390600Y-94386400D01*
X153518750Y-94391539D01*
X153603554Y-94408810D01*
X153651597Y-94440993D01*
X153669464Y-94490867D01*
X153670000Y-94504329D01*
X153672278Y-94534689D01*
X153684108Y-94543201D01*
X153712982Y-94526267D01*
X153766392Y-94480290D01*
X153817316Y-94433585D01*
X154018728Y-94281420D01*
X154250604Y-94166479D01*
X154506455Y-94091124D01*
X154779793Y-94057721D01*
X154853162Y-94056200D01*
X155062998Y-94056200D01*
X155195151Y-93719650D01*
X155263693Y-93547152D01*
X155317982Y-93416443D01*
X155361157Y-93321585D01*
X155396359Y-93256636D01*
X155426728Y-93215657D01*
X155455403Y-93192709D01*
X155478601Y-93183509D01*
X155522469Y-93178368D01*
X155607534Y-93173898D01*
X155724193Y-93170404D01*
X155862845Y-93168190D01*
X155982098Y-93167546D01*
X156150788Y-93168209D01*
G36*
X160547689Y-93152989D02*
X160608878Y-93177314D01*
X160657462Y-93223057D01*
X160698702Y-93298521D01*
X160737859Y-93412012D01*
X160758224Y-93485323D01*
X160815529Y-93702246D01*
X161071814Y-93450969D01*
X161204934Y-93325190D01*
X161312263Y-93235902D01*
X161399710Y-93179903D01*
X161473186Y-93153989D01*
X161538600Y-93154956D01*
X161586805Y-93171818D01*
X161651479Y-93219183D01*
X161693229Y-93270911D01*
X161703042Y-93292347D01*
X161707337Y-93317636D01*
X161704344Y-93352383D01*
X161692295Y-93402191D01*
X161669420Y-93472663D01*
X161633950Y-93569405D01*
X161584117Y-93698019D01*
X161518152Y-93864109D01*
X161460691Y-94007511D01*
X161390527Y-94182398D01*
X161326081Y-94343172D01*
X161269916Y-94483430D01*
X161224595Y-94596767D01*
X161192680Y-94676779D01*
X161176734Y-94717063D01*
X161175847Y-94719364D01*
X161175086Y-94742158D01*
X161200159Y-94757061D01*
X161260350Y-94767405D01*
X161327005Y-94773609D01*
X161418993Y-94785137D01*
X161493657Y-94801935D01*
X161531547Y-94818405D01*
X161563483Y-94874557D01*
X161564698Y-94951091D01*
X161536082Y-95028625D01*
X161520888Y-95050336D01*
X161495122Y-95077301D01*
X161462811Y-95095285D01*
X161413224Y-95106596D01*
X161335632Y-95113543D01*
X161219303Y-95118434D01*
X161201651Y-95119011D01*
X161034799Y-95120010D01*
X160915381Y-95110827D01*
X160853338Y-95095586D01*
X160780286Y-95040436D01*
X160731724Y-94955659D01*
X160716758Y-94860042D01*
X160721880Y-94824336D01*
X160735682Y-94784021D01*
X160765463Y-94706477D01*
X160807302Y-94601217D01*
X160857282Y-94477752D01*
X160911482Y-94345595D01*
X160965985Y-94214257D01*
X161016871Y-94093253D01*
X161060223Y-93992092D01*
X161092120Y-93920289D01*
X161106349Y-93891100D01*
X161095601Y-93896411D01*
X161055338Y-93930934D01*
X160992519Y-93988515D01*
X160939303Y-94038814D01*
X160852410Y-94119735D01*
X160790671Y-94170239D01*
X160744081Y-94196572D01*
X160702632Y-94204984D01*
X160674864Y-94203914D01*
X160624800Y-94194054D01*
X160590465Y-94168117D01*
X160559937Y-94113686D01*
X160538266Y-94061624D01*
X160484894Y-93927349D01*
X160286774Y-94417224D01*
X160176689Y-94685880D01*
X160080602Y-94911219D01*
X159995665Y-95097852D01*
X159919032Y-95250387D01*
X159847854Y-95373434D01*
X159779285Y-95471603D01*
X159710477Y-95549502D01*
X159638582Y-95611742D01*
X159560754Y-95662932D01*
X159496134Y-95697161D01*
X159382025Y-95738673D01*
X159246530Y-95766716D01*
X159108374Y-95779182D01*
X158986279Y-95773963D01*
X158927635Y-95761177D01*
X158786918Y-95696297D01*
X158659075Y-95602998D01*
X158559433Y-95493562D01*
X158526596Y-95439834D01*
X158489960Y-95334570D01*
X158467393Y-95200637D01*
X158461099Y-95058761D01*
X158472668Y-94932937D01*
X158518756Y-94757237D01*
X158591434Y-94605929D01*
X158699566Y-94462559D01*
X158761455Y-94396952D01*
X158899991Y-94278595D01*
X159056263Y-94180222D01*
X159221322Y-94104593D01*
X159386218Y-94054467D01*
X159542004Y-94032604D01*
X159679729Y-94041764D01*
X159785050Y-94081321D01*
X159842893Y-94126715D01*
X159865396Y-94180089D01*
X159867600Y-94216989D01*
X159857238Y-94286903D01*
X159821329Y-94338637D01*
X159752642Y-94377219D01*
X159643941Y-94407674D01*
X159573763Y-94421175D01*
X159380069Y-94463576D01*
X159228201Y-94517917D01*
X159109687Y-94589038D01*
X159016049Y-94681782D01*
X158952639Y-94776048D01*
X158894270Y-94912744D01*
X158872940Y-95046969D01*
X158886860Y-95170228D01*
X158934239Y-95274031D01*
X159013287Y-95349885D01*
X159079937Y-95379922D01*
X159151332Y-95396387D01*
X159211861Y-95393253D01*
X159287119Y-95368453D01*
X159303402Y-95361858D01*
X159347857Y-95341977D01*
X159388680Y-95318498D01*
X159427680Y-95287923D01*
X159466663Y-95246751D01*
X159507439Y-95191485D01*
X159551816Y-95118624D01*
X159601602Y-95024670D01*
X159658605Y-94906123D01*
X159724634Y-94759484D01*
X159801497Y-94581253D01*
X159891002Y-94367932D01*
X159994957Y-94116021D01*
X160115171Y-93822022D01*
X160174996Y-93675200D01*
X160252268Y-93492081D01*
X160317889Y-93353102D01*
X160375033Y-93253813D01*
X160426875Y-93189767D01*
X160476590Y-93156514D01*
X160527353Y-93149606D01*
X160547689Y-93152989D01*
X160547689Y-93152989D01*
G37*
X160547689Y-93152989D02*
X160608878Y-93177314D01*
X160657462Y-93223057D01*
X160698702Y-93298521D01*
X160737859Y-93412012D01*
X160758224Y-93485323D01*
X160815529Y-93702246D01*
X161071814Y-93450969D01*
X161204934Y-93325190D01*
X161312263Y-93235902D01*
X161399710Y-93179903D01*
X161473186Y-93153989D01*
X161538600Y-93154956D01*
X161586805Y-93171818D01*
X161651479Y-93219183D01*
X161693229Y-93270911D01*
X161703042Y-93292347D01*
X161707337Y-93317636D01*
X161704344Y-93352383D01*
X161692295Y-93402191D01*
X161669420Y-93472663D01*
X161633950Y-93569405D01*
X161584117Y-93698019D01*
X161518152Y-93864109D01*
X161460691Y-94007511D01*
X161390527Y-94182398D01*
X161326081Y-94343172D01*
X161269916Y-94483430D01*
X161224595Y-94596767D01*
X161192680Y-94676779D01*
X161176734Y-94717063D01*
X161175847Y-94719364D01*
X161175086Y-94742158D01*
X161200159Y-94757061D01*
X161260350Y-94767405D01*
X161327005Y-94773609D01*
X161418993Y-94785137D01*
X161493657Y-94801935D01*
X161531547Y-94818405D01*
X161563483Y-94874557D01*
X161564698Y-94951091D01*
X161536082Y-95028625D01*
X161520888Y-95050336D01*
X161495122Y-95077301D01*
X161462811Y-95095285D01*
X161413224Y-95106596D01*
X161335632Y-95113543D01*
X161219303Y-95118434D01*
X161201651Y-95119011D01*
X161034799Y-95120010D01*
X160915381Y-95110827D01*
X160853338Y-95095586D01*
X160780286Y-95040436D01*
X160731724Y-94955659D01*
X160716758Y-94860042D01*
X160721880Y-94824336D01*
X160735682Y-94784021D01*
X160765463Y-94706477D01*
X160807302Y-94601217D01*
X160857282Y-94477752D01*
X160911482Y-94345595D01*
X160965985Y-94214257D01*
X161016871Y-94093253D01*
X161060223Y-93992092D01*
X161092120Y-93920289D01*
X161106349Y-93891100D01*
X161095601Y-93896411D01*
X161055338Y-93930934D01*
X160992519Y-93988515D01*
X160939303Y-94038814D01*
X160852410Y-94119735D01*
X160790671Y-94170239D01*
X160744081Y-94196572D01*
X160702632Y-94204984D01*
X160674864Y-94203914D01*
X160624800Y-94194054D01*
X160590465Y-94168117D01*
X160559937Y-94113686D01*
X160538266Y-94061624D01*
X160484894Y-93927349D01*
X160286774Y-94417224D01*
X160176689Y-94685880D01*
X160080602Y-94911219D01*
X159995665Y-95097852D01*
X159919032Y-95250387D01*
X159847854Y-95373434D01*
X159779285Y-95471603D01*
X159710477Y-95549502D01*
X159638582Y-95611742D01*
X159560754Y-95662932D01*
X159496134Y-95697161D01*
X159382025Y-95738673D01*
X159246530Y-95766716D01*
X159108374Y-95779182D01*
X158986279Y-95773963D01*
X158927635Y-95761177D01*
X158786918Y-95696297D01*
X158659075Y-95602998D01*
X158559433Y-95493562D01*
X158526596Y-95439834D01*
X158489960Y-95334570D01*
X158467393Y-95200637D01*
X158461099Y-95058761D01*
X158472668Y-94932937D01*
X158518756Y-94757237D01*
X158591434Y-94605929D01*
X158699566Y-94462559D01*
X158761455Y-94396952D01*
X158899991Y-94278595D01*
X159056263Y-94180222D01*
X159221322Y-94104593D01*
X159386218Y-94054467D01*
X159542004Y-94032604D01*
X159679729Y-94041764D01*
X159785050Y-94081321D01*
X159842893Y-94126715D01*
X159865396Y-94180089D01*
X159867600Y-94216989D01*
X159857238Y-94286903D01*
X159821329Y-94338637D01*
X159752642Y-94377219D01*
X159643941Y-94407674D01*
X159573763Y-94421175D01*
X159380069Y-94463576D01*
X159228201Y-94517917D01*
X159109687Y-94589038D01*
X159016049Y-94681782D01*
X158952639Y-94776048D01*
X158894270Y-94912744D01*
X158872940Y-95046969D01*
X158886860Y-95170228D01*
X158934239Y-95274031D01*
X159013287Y-95349885D01*
X159079937Y-95379922D01*
X159151332Y-95396387D01*
X159211861Y-95393253D01*
X159287119Y-95368453D01*
X159303402Y-95361858D01*
X159347857Y-95341977D01*
X159388680Y-95318498D01*
X159427680Y-95287923D01*
X159466663Y-95246751D01*
X159507439Y-95191485D01*
X159551816Y-95118624D01*
X159601602Y-95024670D01*
X159658605Y-94906123D01*
X159724634Y-94759484D01*
X159801497Y-94581253D01*
X159891002Y-94367932D01*
X159994957Y-94116021D01*
X160115171Y-93822022D01*
X160174996Y-93675200D01*
X160252268Y-93492081D01*
X160317889Y-93353102D01*
X160375033Y-93253813D01*
X160426875Y-93189767D01*
X160476590Y-93156514D01*
X160527353Y-93149606D01*
X160547689Y-93152989D01*
G36*
X152824340Y-94058737D02*
X152824473Y-94058801D01*
X152930394Y-94133805D01*
X152993922Y-94236377D01*
X153015846Y-94367840D01*
X153015807Y-94381011D01*
X152999767Y-94499282D01*
X152952922Y-94588395D01*
X152871117Y-94651374D01*
X152750193Y-94691241D01*
X152585995Y-94711020D01*
X152560321Y-94712314D01*
X152433138Y-94720834D01*
X152355274Y-94732320D01*
X152325413Y-94745642D01*
X152342238Y-94759669D01*
X152404435Y-94773272D01*
X152510687Y-94785321D01*
X152656034Y-94794519D01*
X152782666Y-94802528D01*
X152895008Y-94813713D01*
X152980946Y-94826598D01*
X153028362Y-94839709D01*
X153028650Y-94839863D01*
X153076303Y-94890009D01*
X153085898Y-94958022D01*
X153058072Y-95028857D01*
X153018874Y-95070356D01*
X152986400Y-95092136D01*
X152947700Y-95106973D01*
X152892895Y-95116165D01*
X152812105Y-95121012D01*
X152695453Y-95122814D01*
X152618824Y-95122979D01*
X152475550Y-95121904D01*
X152371879Y-95117805D01*
X152296644Y-95109341D01*
X152238676Y-95095169D01*
X152186808Y-95073950D01*
X152179039Y-95070163D01*
X152077909Y-94992980D01*
X152006864Y-94881179D01*
X151971294Y-94744533D01*
X151968200Y-94687705D01*
X151989376Y-94519973D01*
X152021385Y-94437558D01*
X152387300Y-94437558D01*
X152527000Y-94431029D01*
X152608073Y-94424779D01*
X152650265Y-94412539D01*
X152665480Y-94389424D01*
X152666700Y-94373700D01*
X152647733Y-94329517D01*
X152599426Y-94313650D01*
X152534663Y-94326174D01*
X152466330Y-94367166D01*
X152460187Y-94372484D01*
X152387300Y-94437558D01*
X152021385Y-94437558D01*
X152048447Y-94367882D01*
X152138730Y-94236341D01*
X152253539Y-94130261D01*
X152386189Y-94054550D01*
X152529996Y-94014120D01*
X152678275Y-94013879D01*
X152824340Y-94058737D01*
X152824340Y-94058737D01*
G37*
X152824340Y-94058737D02*
X152824473Y-94058801D01*
X152930394Y-94133805D01*
X152993922Y-94236377D01*
X153015846Y-94367840D01*
X153015807Y-94381011D01*
X152999767Y-94499282D01*
X152952922Y-94588395D01*
X152871117Y-94651374D01*
X152750193Y-94691241D01*
X152585995Y-94711020D01*
X152560321Y-94712314D01*
X152433138Y-94720834D01*
X152355274Y-94732320D01*
X152325413Y-94745642D01*
X152342238Y-94759669D01*
X152404435Y-94773272D01*
X152510687Y-94785321D01*
X152656034Y-94794519D01*
X152782666Y-94802528D01*
X152895008Y-94813713D01*
X152980946Y-94826598D01*
X153028362Y-94839709D01*
X153028650Y-94839863D01*
X153076303Y-94890009D01*
X153085898Y-94958022D01*
X153058072Y-95028857D01*
X153018874Y-95070356D01*
X152986400Y-95092136D01*
X152947700Y-95106973D01*
X152892895Y-95116165D01*
X152812105Y-95121012D01*
X152695453Y-95122814D01*
X152618824Y-95122979D01*
X152475550Y-95121904D01*
X152371879Y-95117805D01*
X152296644Y-95109341D01*
X152238676Y-95095169D01*
X152186808Y-95073950D01*
X152179039Y-95070163D01*
X152077909Y-94992980D01*
X152006864Y-94881179D01*
X151971294Y-94744533D01*
X151968200Y-94687705D01*
X151989376Y-94519973D01*
X152021385Y-94437558D01*
X152387300Y-94437558D01*
X152527000Y-94431029D01*
X152608073Y-94424779D01*
X152650265Y-94412539D01*
X152665480Y-94389424D01*
X152666700Y-94373700D01*
X152647733Y-94329517D01*
X152599426Y-94313650D01*
X152534663Y-94326174D01*
X152466330Y-94367166D01*
X152460187Y-94372484D01*
X152387300Y-94437558D01*
X152021385Y-94437558D01*
X152048447Y-94367882D01*
X152138730Y-94236341D01*
X152253539Y-94130261D01*
X152386189Y-94054550D01*
X152529996Y-94014120D01*
X152678275Y-94013879D01*
X152824340Y-94058737D01*
G36*
X156996221Y-93207696D02*
X157038879Y-93264102D01*
X157047008Y-93313835D01*
X157037280Y-93354385D01*
X157010354Y-93435256D01*
X156968676Y-93549921D01*
X156914696Y-93691852D01*
X156850860Y-93854525D01*
X156779616Y-94031411D01*
X156759083Y-94081600D01*
X156472349Y-94780100D01*
X156610918Y-94808926D01*
X156720192Y-94844177D01*
X156782222Y-94893575D01*
X156796158Y-94955349D01*
X156761149Y-95027728D01*
X156731854Y-95060654D01*
X156698333Y-95090064D01*
X156661087Y-95108447D01*
X156607764Y-95118357D01*
X156526014Y-95122349D01*
X156430479Y-95123000D01*
X156313227Y-95121467D01*
X156233941Y-95115356D01*
X156179837Y-95102395D01*
X156138135Y-95080314D01*
X156121723Y-95068152D01*
X156074310Y-95020874D01*
X156060615Y-94968036D01*
X156064370Y-94922102D01*
X156077547Y-94872038D01*
X156107387Y-94784259D01*
X156151139Y-94665451D01*
X156206059Y-94522300D01*
X156269397Y-94361490D01*
X156338406Y-94189708D01*
X156410339Y-94013639D01*
X156482449Y-93839969D01*
X156551987Y-93675382D01*
X156616207Y-93526566D01*
X156672361Y-93400205D01*
X156717702Y-93302984D01*
X156749481Y-93241590D01*
X156762526Y-93223246D01*
X156845830Y-93183378D01*
X156927800Y-93179491D01*
X156996221Y-93207696D01*
X156996221Y-93207696D01*
G37*
X156996221Y-93207696D02*
X157038879Y-93264102D01*
X157047008Y-93313835D01*
X157037280Y-93354385D01*
X157010354Y-93435256D01*
X156968676Y-93549921D01*
X156914696Y-93691852D01*
X156850860Y-93854525D01*
X156779616Y-94031411D01*
X156759083Y-94081600D01*
X156472349Y-94780100D01*
X156610918Y-94808926D01*
X156720192Y-94844177D01*
X156782222Y-94893575D01*
X156796158Y-94955349D01*
X156761149Y-95027728D01*
X156731854Y-95060654D01*
X156698333Y-95090064D01*
X156661087Y-95108447D01*
X156607764Y-95118357D01*
X156526014Y-95122349D01*
X156430479Y-95123000D01*
X156313227Y-95121467D01*
X156233941Y-95115356D01*
X156179837Y-95102395D01*
X156138135Y-95080314D01*
X156121723Y-95068152D01*
X156074310Y-95020874D01*
X156060615Y-94968036D01*
X156064370Y-94922102D01*
X156077547Y-94872038D01*
X156107387Y-94784259D01*
X156151139Y-94665451D01*
X156206059Y-94522300D01*
X156269397Y-94361490D01*
X156338406Y-94189708D01*
X156410339Y-94013639D01*
X156482449Y-93839969D01*
X156551987Y-93675382D01*
X156616207Y-93526566D01*
X156672361Y-93400205D01*
X156717702Y-93302984D01*
X156749481Y-93241590D01*
X156762526Y-93223246D01*
X156845830Y-93183378D01*
X156927800Y-93179491D01*
X156996221Y-93207696D01*
G36*
X157615732Y-94024154D02*
X157742250Y-94068375D01*
X157849758Y-94142646D01*
X157930884Y-94244779D01*
X157978254Y-94372590D01*
X157987442Y-94464339D01*
X157969221Y-94616903D01*
X157917439Y-94768223D01*
X157839160Y-94905230D01*
X157741451Y-95014856D01*
X157659152Y-95071510D01*
X157556496Y-95106403D01*
X157429648Y-95124481D01*
X157295355Y-95125898D01*
X157170363Y-95110810D01*
X157071419Y-95079373D01*
X157047941Y-95065850D01*
X156953119Y-94990068D01*
X156894777Y-94910004D01*
X156865459Y-94810651D01*
X156857700Y-94682987D01*
X156863748Y-94605140D01*
X157205132Y-94605140D01*
X157209356Y-94703409D01*
X157212050Y-94712662D01*
X157253093Y-94763075D01*
X157338030Y-94805277D01*
X157372865Y-94816194D01*
X157398517Y-94808733D01*
X157452751Y-94787753D01*
X157466428Y-94782100D01*
X157553366Y-94719909D01*
X157611399Y-94624673D01*
X157632400Y-94510311D01*
X157612567Y-94417236D01*
X157555699Y-94357674D01*
X157465744Y-94335644D01*
X157460854Y-94335600D01*
X157372928Y-94358848D01*
X157295367Y-94420056D01*
X157236619Y-94506421D01*
X157205132Y-94605140D01*
X156863748Y-94605140D01*
X156870028Y-94524323D01*
X156911693Y-94393604D01*
X156989713Y-94274346D01*
X157067027Y-94191474D01*
X157195852Y-94093642D01*
X157335160Y-94034601D01*
X157477578Y-94012167D01*
X157615732Y-94024154D01*
X157615732Y-94024154D01*
G37*
X157615732Y-94024154D02*
X157742250Y-94068375D01*
X157849758Y-94142646D01*
X157930884Y-94244779D01*
X157978254Y-94372590D01*
X157987442Y-94464339D01*
X157969221Y-94616903D01*
X157917439Y-94768223D01*
X157839160Y-94905230D01*
X157741451Y-95014856D01*
X157659152Y-95071510D01*
X157556496Y-95106403D01*
X157429648Y-95124481D01*
X157295355Y-95125898D01*
X157170363Y-95110810D01*
X157071419Y-95079373D01*
X157047941Y-95065850D01*
X156953119Y-94990068D01*
X156894777Y-94910004D01*
X156865459Y-94810651D01*
X156857700Y-94682987D01*
X156863748Y-94605140D01*
X157205132Y-94605140D01*
X157209356Y-94703409D01*
X157212050Y-94712662D01*
X157253093Y-94763075D01*
X157338030Y-94805277D01*
X157372865Y-94816194D01*
X157398517Y-94808733D01*
X157452751Y-94787753D01*
X157466428Y-94782100D01*
X157553366Y-94719909D01*
X157611399Y-94624673D01*
X157632400Y-94510311D01*
X157612567Y-94417236D01*
X157555699Y-94357674D01*
X157465744Y-94335644D01*
X157460854Y-94335600D01*
X157372928Y-94358848D01*
X157295367Y-94420056D01*
X157236619Y-94506421D01*
X157205132Y-94605140D01*
X156863748Y-94605140D01*
X156870028Y-94524323D01*
X156911693Y-94393604D01*
X156989713Y-94274346D01*
X157067027Y-94191474D01*
X157195852Y-94093642D01*
X157335160Y-94034601D01*
X157477578Y-94012167D01*
X157615732Y-94024154D01*
G36*
X162456020Y-94023064D02*
X162529635Y-94056764D01*
X162587874Y-94088279D01*
X162626350Y-94092283D01*
X162666679Y-94070735D01*
X162668637Y-94069369D01*
X162751400Y-94034094D01*
X162832083Y-94036484D01*
X162897929Y-94071703D01*
X162936181Y-94134915D01*
X162941000Y-94172603D01*
X162931763Y-94220204D01*
X162906682Y-94302588D01*
X162869702Y-94407751D01*
X162829418Y-94512174D01*
X162786987Y-94621691D01*
X162754472Y-94713351D01*
X162735125Y-94777408D01*
X162732051Y-94803984D01*
X162764382Y-94813103D01*
X162826827Y-94817956D01*
X162845303Y-94818200D01*
X162923429Y-94824857D01*
X162986560Y-94841210D01*
X162993469Y-94844493D01*
X163034185Y-94890986D01*
X163038159Y-94957474D01*
X163006258Y-95029800D01*
X162980254Y-95060654D01*
X162942422Y-95092861D01*
X162899431Y-95111653D01*
X162836803Y-95120525D01*
X162740061Y-95122971D01*
X162721904Y-95123000D01*
X162605579Y-95119331D01*
X162529596Y-95107199D01*
X162483952Y-95084918D01*
X162481005Y-95082370D01*
X162443821Y-95056002D01*
X162409358Y-95062201D01*
X162378103Y-95082370D01*
X162313656Y-95108520D01*
X162210557Y-95121271D01*
X162136132Y-95123000D01*
X162036940Y-95121087D01*
X161971424Y-95112111D01*
X161922509Y-95091211D01*
X161873119Y-95053527D01*
X161863934Y-95045530D01*
X161779300Y-94944743D01*
X161734226Y-94822306D01*
X161726453Y-94674346D01*
X162077400Y-94674346D01*
X162094682Y-94759210D01*
X162144312Y-94805985D01*
X162222969Y-94812749D01*
X162286640Y-94795332D01*
X162328006Y-94759634D01*
X162373017Y-94690727D01*
X162415677Y-94603059D01*
X162449991Y-94511081D01*
X162469966Y-94429242D01*
X162469607Y-94371993D01*
X162465796Y-94363464D01*
X162414458Y-94319365D01*
X162348625Y-94314566D01*
X162276174Y-94342762D01*
X162204986Y-94397646D01*
X162142939Y-94472912D01*
X162097912Y-94562252D01*
X162077784Y-94659362D01*
X162077400Y-94674346D01*
X161726453Y-94674346D01*
X161726273Y-94670926D01*
X161728525Y-94640815D01*
X161750481Y-94510535D01*
X161795482Y-94397854D01*
X161871581Y-94286025D01*
X161933504Y-94214561D01*
X162059286Y-94104165D01*
X162193154Y-94034166D01*
X162327827Y-94006490D01*
X162456020Y-94023064D01*
X162456020Y-94023064D01*
G37*
X162456020Y-94023064D02*
X162529635Y-94056764D01*
X162587874Y-94088279D01*
X162626350Y-94092283D01*
X162666679Y-94070735D01*
X162668637Y-94069369D01*
X162751400Y-94034094D01*
X162832083Y-94036484D01*
X162897929Y-94071703D01*
X162936181Y-94134915D01*
X162941000Y-94172603D01*
X162931763Y-94220204D01*
X162906682Y-94302588D01*
X162869702Y-94407751D01*
X162829418Y-94512174D01*
X162786987Y-94621691D01*
X162754472Y-94713351D01*
X162735125Y-94777408D01*
X162732051Y-94803984D01*
X162764382Y-94813103D01*
X162826827Y-94817956D01*
X162845303Y-94818200D01*
X162923429Y-94824857D01*
X162986560Y-94841210D01*
X162993469Y-94844493D01*
X163034185Y-94890986D01*
X163038159Y-94957474D01*
X163006258Y-95029800D01*
X162980254Y-95060654D01*
X162942422Y-95092861D01*
X162899431Y-95111653D01*
X162836803Y-95120525D01*
X162740061Y-95122971D01*
X162721904Y-95123000D01*
X162605579Y-95119331D01*
X162529596Y-95107199D01*
X162483952Y-95084918D01*
X162481005Y-95082370D01*
X162443821Y-95056002D01*
X162409358Y-95062201D01*
X162378103Y-95082370D01*
X162313656Y-95108520D01*
X162210557Y-95121271D01*
X162136132Y-95123000D01*
X162036940Y-95121087D01*
X161971424Y-95112111D01*
X161922509Y-95091211D01*
X161873119Y-95053527D01*
X161863934Y-95045530D01*
X161779300Y-94944743D01*
X161734226Y-94822306D01*
X161726453Y-94674346D01*
X162077400Y-94674346D01*
X162094682Y-94759210D01*
X162144312Y-94805985D01*
X162222969Y-94812749D01*
X162286640Y-94795332D01*
X162328006Y-94759634D01*
X162373017Y-94690727D01*
X162415677Y-94603059D01*
X162449991Y-94511081D01*
X162469966Y-94429242D01*
X162469607Y-94371993D01*
X162465796Y-94363464D01*
X162414458Y-94319365D01*
X162348625Y-94314566D01*
X162276174Y-94342762D01*
X162204986Y-94397646D01*
X162142939Y-94472912D01*
X162097912Y-94562252D01*
X162077784Y-94659362D01*
X162077400Y-94674346D01*
X161726453Y-94674346D01*
X161726273Y-94670926D01*
X161728525Y-94640815D01*
X161750481Y-94510535D01*
X161795482Y-94397854D01*
X161871581Y-94286025D01*
X161933504Y-94214561D01*
X162059286Y-94104165D01*
X162193154Y-94034166D01*
X162327827Y-94006490D01*
X162456020Y-94023064D01*
G36*
X163817499Y-93663219D02*
X163868760Y-93710837D01*
X163871724Y-93715266D01*
X163895296Y-93756764D01*
X163900417Y-93794252D01*
X163886137Y-93845942D01*
X163861795Y-93905766D01*
X163808970Y-94030799D01*
X163881170Y-94030799D01*
X163963630Y-94050717D01*
X164015527Y-94102022D01*
X164031588Y-94172047D01*
X164006542Y-94248123D01*
X163983812Y-94277432D01*
X163917414Y-94319445D01*
X163817333Y-94346465D01*
X163808017Y-94347829D01*
X163681610Y-94365215D01*
X163603268Y-94559957D01*
X163567168Y-94651565D01*
X163539896Y-94724334D01*
X163525966Y-94766091D01*
X163525063Y-94770865D01*
X163547796Y-94783640D01*
X163605511Y-94798054D01*
X163645850Y-94804993D01*
X163724171Y-94820911D01*
X163783298Y-94840486D01*
X163798250Y-94849087D01*
X163828470Y-94903132D01*
X163825022Y-94973791D01*
X163790861Y-95042476D01*
X163763074Y-95070356D01*
X163723236Y-95095889D01*
X163674438Y-95111707D01*
X163604091Y-95119975D01*
X163499605Y-95122860D01*
X163457120Y-95123000D01*
X163343290Y-95121927D01*
X163267892Y-95117007D01*
X163218575Y-95105684D01*
X163182987Y-95085403D01*
X163155745Y-95060654D01*
X163112848Y-95003559D01*
X163093491Y-94949744D01*
X163093400Y-94946865D01*
X163102500Y-94902905D01*
X163127111Y-94824215D01*
X163163195Y-94722951D01*
X163196060Y-94637737D01*
X163236422Y-94532416D01*
X163266784Y-94445334D01*
X163283804Y-94386634D01*
X163285410Y-94366743D01*
X163254464Y-94346258D01*
X163214499Y-94324887D01*
X163163661Y-94272652D01*
X163149159Y-94217307D01*
X163164469Y-94138978D01*
X163219251Y-94075884D01*
X163302480Y-94037711D01*
X163361424Y-94030800D01*
X163413375Y-94026028D01*
X163446698Y-94003379D01*
X163474986Y-93950348D01*
X163489955Y-93912559D01*
X163555025Y-93777332D01*
X163628776Y-93691037D01*
X163712484Y-93652346D01*
X163742772Y-93649800D01*
X163817499Y-93663219D01*
X163817499Y-93663219D01*
G37*
X163817499Y-93663219D02*
X163868760Y-93710837D01*
X163871724Y-93715266D01*
X163895296Y-93756764D01*
X163900417Y-93794252D01*
X163886137Y-93845942D01*
X163861795Y-93905766D01*
X163808970Y-94030799D01*
X163881170Y-94030799D01*
X163963630Y-94050717D01*
X164015527Y-94102022D01*
X164031588Y-94172047D01*
X164006542Y-94248123D01*
X163983812Y-94277432D01*
X163917414Y-94319445D01*
X163817333Y-94346465D01*
X163808017Y-94347829D01*
X163681610Y-94365215D01*
X163603268Y-94559957D01*
X163567168Y-94651565D01*
X163539896Y-94724334D01*
X163525966Y-94766091D01*
X163525063Y-94770865D01*
X163547796Y-94783640D01*
X163605511Y-94798054D01*
X163645850Y-94804993D01*
X163724171Y-94820911D01*
X163783298Y-94840486D01*
X163798250Y-94849087D01*
X163828470Y-94903132D01*
X163825022Y-94973791D01*
X163790861Y-95042476D01*
X163763074Y-95070356D01*
X163723236Y-95095889D01*
X163674438Y-95111707D01*
X163604091Y-95119975D01*
X163499605Y-95122860D01*
X163457120Y-95123000D01*
X163343290Y-95121927D01*
X163267892Y-95117007D01*
X163218575Y-95105684D01*
X163182987Y-95085403D01*
X163155745Y-95060654D01*
X163112848Y-95003559D01*
X163093491Y-94949744D01*
X163093400Y-94946865D01*
X163102500Y-94902905D01*
X163127111Y-94824215D01*
X163163195Y-94722951D01*
X163196060Y-94637737D01*
X163236422Y-94532416D01*
X163266784Y-94445334D01*
X163283804Y-94386634D01*
X163285410Y-94366743D01*
X163254464Y-94346258D01*
X163214499Y-94324887D01*
X163163661Y-94272652D01*
X163149159Y-94217307D01*
X163164469Y-94138978D01*
X163219251Y-94075884D01*
X163302480Y-94037711D01*
X163361424Y-94030800D01*
X163413375Y-94026028D01*
X163446698Y-94003379D01*
X163474986Y-93950348D01*
X163489955Y-93912559D01*
X163555025Y-93777332D01*
X163628776Y-93691037D01*
X163712484Y-93652346D01*
X163742772Y-93649800D01*
X163817499Y-93663219D01*
G36*
X164514025Y-94048549D02*
X164576470Y-94092295D01*
X164613608Y-94147785D01*
X164617400Y-94169989D01*
X164608356Y-94207850D01*
X164583867Y-94281334D01*
X164547892Y-94379113D01*
X164513017Y-94468439D01*
X164469688Y-94576729D01*
X164432886Y-94668714D01*
X164406997Y-94733436D01*
X164397005Y-94758430D01*
X164412459Y-94780187D01*
X164473445Y-94798638D01*
X164512054Y-94804984D01*
X164624293Y-94833652D01*
X164690130Y-94882289D01*
X164709353Y-94950704D01*
X164704631Y-94980905D01*
X164679794Y-95041802D01*
X164635803Y-95083212D01*
X164564436Y-95108368D01*
X164457471Y-95120499D01*
X164343094Y-95123000D01*
X164230853Y-95122168D01*
X164156612Y-95117643D01*
X164107576Y-95106377D01*
X164070950Y-95085325D01*
X164033938Y-95051440D01*
X164031246Y-95048753D01*
X163984187Y-94992401D01*
X163958569Y-94943642D01*
X163957000Y-94933742D01*
X163967177Y-94888936D01*
X163994829Y-94808357D01*
X164035635Y-94702120D01*
X164085277Y-94580339D01*
X164139434Y-94453129D01*
X164193786Y-94330604D01*
X164244014Y-94222878D01*
X164285798Y-94140066D01*
X164314817Y-94092283D01*
X164317954Y-94088600D01*
X164386101Y-94043226D01*
X164444027Y-94030800D01*
X164514025Y-94048549D01*
X164514025Y-94048549D01*
G37*
X164514025Y-94048549D02*
X164576470Y-94092295D01*
X164613608Y-94147785D01*
X164617400Y-94169989D01*
X164608356Y-94207850D01*
X164583867Y-94281334D01*
X164547892Y-94379113D01*
X164513017Y-94468439D01*
X164469688Y-94576729D01*
X164432886Y-94668714D01*
X164406997Y-94733436D01*
X164397005Y-94758430D01*
X164412459Y-94780187D01*
X164473445Y-94798638D01*
X164512054Y-94804984D01*
X164624293Y-94833652D01*
X164690130Y-94882289D01*
X164709353Y-94950704D01*
X164704631Y-94980905D01*
X164679794Y-95041802D01*
X164635803Y-95083212D01*
X164564436Y-95108368D01*
X164457471Y-95120499D01*
X164343094Y-95123000D01*
X164230853Y-95122168D01*
X164156612Y-95117643D01*
X164107576Y-95106377D01*
X164070950Y-95085325D01*
X164033938Y-95051440D01*
X164031246Y-95048753D01*
X163984187Y-94992401D01*
X163958569Y-94943642D01*
X163957000Y-94933742D01*
X163967177Y-94888936D01*
X163994829Y-94808357D01*
X164035635Y-94702120D01*
X164085277Y-94580339D01*
X164139434Y-94453129D01*
X164193786Y-94330604D01*
X164244014Y-94222878D01*
X164285798Y-94140066D01*
X164314817Y-94092283D01*
X164317954Y-94088600D01*
X164386101Y-94043226D01*
X164444027Y-94030800D01*
X164514025Y-94048549D01*
G36*
X165492539Y-94023612D02*
X165604360Y-94070343D01*
X165688784Y-94139342D01*
X165723256Y-94194270D01*
X165755270Y-94312331D01*
X165752989Y-94419824D01*
X165719802Y-94507819D01*
X165659103Y-94567387D01*
X165574280Y-94589596D01*
X165573136Y-94589600D01*
X165489586Y-94575393D01*
X165443789Y-94529115D01*
X165430200Y-94447930D01*
X165418464Y-94380811D01*
X165390879Y-94334587D01*
X165335146Y-94316841D01*
X165270401Y-94337818D01*
X165205598Y-94388723D01*
X165149691Y-94460761D01*
X165111631Y-94545136D01*
X165100000Y-94620333D01*
X165114600Y-94693030D01*
X165161199Y-94747260D01*
X165243995Y-94784775D01*
X165367185Y-94807328D01*
X165534968Y-94816673D01*
X165571170Y-94817093D01*
X165685767Y-94822510D01*
X165758372Y-94839953D01*
X165797208Y-94873774D01*
X165810500Y-94928327D01*
X165810811Y-94943929D01*
X165802467Y-95009823D01*
X165774163Y-95057902D01*
X165719623Y-95090656D01*
X165632572Y-95110575D01*
X165506737Y-95120150D01*
X165362019Y-95122005D01*
X165188136Y-95117543D01*
X165060868Y-95105574D01*
X164982036Y-95086271D01*
X164980973Y-95085814D01*
X164880834Y-95016607D01*
X164810867Y-94914842D01*
X164771515Y-94789155D01*
X164763220Y-94648178D01*
X164786424Y-94500546D01*
X164841568Y-94354893D01*
X164929096Y-94219853D01*
X164936194Y-94211320D01*
X165028592Y-94129890D01*
X165148368Y-94062204D01*
X165275003Y-94018038D01*
X165366700Y-94006205D01*
X165492539Y-94023612D01*
X165492539Y-94023612D01*
G37*
X165492539Y-94023612D02*
X165604360Y-94070343D01*
X165688784Y-94139342D01*
X165723256Y-94194270D01*
X165755270Y-94312331D01*
X165752989Y-94419824D01*
X165719802Y-94507819D01*
X165659103Y-94567387D01*
X165574280Y-94589596D01*
X165573136Y-94589600D01*
X165489586Y-94575393D01*
X165443789Y-94529115D01*
X165430200Y-94447930D01*
X165418464Y-94380811D01*
X165390879Y-94334587D01*
X165335146Y-94316841D01*
X165270401Y-94337818D01*
X165205598Y-94388723D01*
X165149691Y-94460761D01*
X165111631Y-94545136D01*
X165100000Y-94620333D01*
X165114600Y-94693030D01*
X165161199Y-94747260D01*
X165243995Y-94784775D01*
X165367185Y-94807328D01*
X165534968Y-94816673D01*
X165571170Y-94817093D01*
X165685767Y-94822510D01*
X165758372Y-94839953D01*
X165797208Y-94873774D01*
X165810500Y-94928327D01*
X165810811Y-94943929D01*
X165802467Y-95009823D01*
X165774163Y-95057902D01*
X165719623Y-95090656D01*
X165632572Y-95110575D01*
X165506737Y-95120150D01*
X165362019Y-95122005D01*
X165188136Y-95117543D01*
X165060868Y-95105574D01*
X164982036Y-95086271D01*
X164980973Y-95085814D01*
X164880834Y-95016607D01*
X164810867Y-94914842D01*
X164771515Y-94789155D01*
X164763220Y-94648178D01*
X164786424Y-94500546D01*
X164841568Y-94354893D01*
X164929096Y-94219853D01*
X164936194Y-94211320D01*
X165028592Y-94129890D01*
X165148368Y-94062204D01*
X165275003Y-94018038D01*
X165366700Y-94006205D01*
X165492539Y-94023612D01*
G36*
X158439348Y-94391729D02*
X158526538Y-94409613D01*
X158576806Y-94442898D01*
X158596624Y-94494428D01*
X158597600Y-94513400D01*
X158585479Y-94570816D01*
X158544805Y-94609154D01*
X158469106Y-94631257D01*
X158351911Y-94639971D01*
X158308765Y-94640400D01*
X158191898Y-94636539D01*
X158108907Y-94625684D01*
X158069280Y-94609920D01*
X158045809Y-94562423D01*
X158038800Y-94513400D01*
X158046091Y-94456114D01*
X158073482Y-94418690D01*
X158129244Y-94397237D01*
X158221652Y-94387862D01*
X158308765Y-94386400D01*
X158439348Y-94391729D01*
X158439348Y-94391729D01*
G37*
X158439348Y-94391729D02*
X158526538Y-94409613D01*
X158576806Y-94442898D01*
X158596624Y-94494428D01*
X158597600Y-94513400D01*
X158585479Y-94570816D01*
X158544805Y-94609154D01*
X158469106Y-94631257D01*
X158351911Y-94639971D01*
X158308765Y-94640400D01*
X158191898Y-94636539D01*
X158108907Y-94625684D01*
X158069280Y-94609920D01*
X158045809Y-94562423D01*
X158038800Y-94513400D01*
X158046091Y-94456114D01*
X158073482Y-94418690D01*
X158129244Y-94397237D01*
X158221652Y-94387862D01*
X158308765Y-94386400D01*
X158439348Y-94391729D01*
G36*
X164653264Y-93606313D02*
X164715558Y-93663332D01*
X164747989Y-93744863D01*
X164749905Y-93778917D01*
X164725743Y-93864506D01*
X164667762Y-93934861D01*
X164590195Y-93975383D01*
X164553900Y-93980000D01*
X164492724Y-93963742D01*
X164428696Y-93924464D01*
X164426796Y-93922850D01*
X164370520Y-93844886D01*
X164358490Y-93754702D01*
X164391285Y-93666032D01*
X164414745Y-93636519D01*
X164490104Y-93587488D01*
X164573862Y-93579226D01*
X164653264Y-93606313D01*
X164653264Y-93606313D01*
G37*
X164653264Y-93606313D02*
X164715558Y-93663332D01*
X164747989Y-93744863D01*
X164749905Y-93778917D01*
X164725743Y-93864506D01*
X164667762Y-93934861D01*
X164590195Y-93975383D01*
X164553900Y-93980000D01*
X164492724Y-93963742D01*
X164428696Y-93924464D01*
X164426796Y-93922850D01*
X164370520Y-93844886D01*
X164358490Y-93754702D01*
X164391285Y-93666032D01*
X164414745Y-93636519D01*
X164490104Y-93587488D01*
X164573862Y-93579226D01*
X164653264Y-93606313D01*
D13*
X151742857Y-113442857D02*
X151742857Y-112242857D01*
X152028572Y-112242857D01*
X152200000Y-112300000D01*
X152314286Y-112414286D01*
X152371429Y-112528571D01*
X152428572Y-112757143D01*
X152428572Y-112928571D01*
X152371429Y-113157143D01*
X152314286Y-113271429D01*
X152200000Y-113385714D01*
X152028572Y-113442857D01*
X151742857Y-113442857D01*
X152885714Y-113385714D02*
X153057143Y-113442857D01*
X153342857Y-113442857D01*
X153457143Y-113385714D01*
X153514286Y-113328571D01*
X153571429Y-113214286D01*
X153571429Y-113100000D01*
X153514286Y-112985714D01*
X153457143Y-112928571D01*
X153342857Y-112871429D01*
X153114286Y-112814286D01*
X153000000Y-112757143D01*
X152942857Y-112700000D01*
X152885714Y-112585714D01*
X152885714Y-112471429D01*
X152942857Y-112357143D01*
X153000000Y-112300000D01*
X153114286Y-112242857D01*
X153400000Y-112242857D01*
X153571429Y-112300000D01*
X154714286Y-113442857D02*
X154028571Y-113442857D01*
X154371429Y-113442857D02*
X154371429Y-112242857D01*
X154257143Y-112414286D01*
X154142857Y-112528571D01*
X154028571Y-112585714D01*
X151742857Y-113442857D02*
X151742857Y-112242857D01*
X152028572Y-112242857D01*
X152200000Y-112300000D01*
X152314286Y-112414286D01*
X152371429Y-112528571D01*
X152428572Y-112757143D01*
X152428572Y-112928571D01*
X152371429Y-113157143D01*
X152314286Y-113271429D01*
X152200000Y-113385714D01*
X152028572Y-113442857D01*
X151742857Y-113442857D01*
X152885714Y-113385714D02*
X153057143Y-113442857D01*
X153342857Y-113442857D01*
X153457143Y-113385714D01*
X153514286Y-113328571D01*
X153571429Y-113214286D01*
X153571429Y-113100000D01*
X153514286Y-112985714D01*
X153457143Y-112928571D01*
X153342857Y-112871429D01*
X153114286Y-112814286D01*
X153000000Y-112757143D01*
X152942857Y-112700000D01*
X152885714Y-112585714D01*
X152885714Y-112471429D01*
X152942857Y-112357143D01*
X153000000Y-112300000D01*
X153114286Y-112242857D01*
X153400000Y-112242857D01*
X153571429Y-112300000D01*
X154714286Y-113442857D02*
X154028571Y-113442857D01*
X154371429Y-113442857D02*
X154371429Y-112242857D01*
X154257143Y-112414286D01*
X154142857Y-112528571D01*
X154028571Y-112585714D01*
X169175134Y-76387543D02*
X169127515Y-76435162D01*
X168984658Y-76482781D01*
X168889420Y-76482781D01*
X168746562Y-76435162D01*
X168651324Y-76339924D01*
X168603705Y-76244686D01*
X168556086Y-76054210D01*
X168556086Y-75911352D01*
X168603705Y-75720876D01*
X168651324Y-75625638D01*
X168746562Y-75530400D01*
X168889420Y-75482781D01*
X168984658Y-75482781D01*
X169127515Y-75530400D01*
X169175134Y-75578019D01*
X170127515Y-76482781D02*
X169556086Y-76482781D01*
X169841800Y-76482781D02*
X169841800Y-75482781D01*
X169746562Y-75625638D01*
X169651324Y-75720876D01*
X169556086Y-75768495D01*
X154366934Y-131903743D02*
X154319315Y-131951362D01*
X154176458Y-131998981D01*
X154081220Y-131998981D01*
X153938362Y-131951362D01*
X153843124Y-131856124D01*
X153795505Y-131760886D01*
X153747886Y-131570410D01*
X153747886Y-131427552D01*
X153795505Y-131237076D01*
X153843124Y-131141838D01*
X153938362Y-131046600D01*
X154081220Y-130998981D01*
X154176458Y-130998981D01*
X154319315Y-131046600D01*
X154366934Y-131094219D01*
X154747886Y-131094219D02*
X154795505Y-131046600D01*
X154890743Y-130998981D01*
X155128839Y-130998981D01*
X155224077Y-131046600D01*
X155271696Y-131094219D01*
X155319315Y-131189457D01*
X155319315Y-131284695D01*
X155271696Y-131427552D01*
X154700267Y-131998981D01*
X155319315Y-131998981D01*
X140574734Y-133503943D02*
X140527115Y-133551562D01*
X140384258Y-133599181D01*
X140289020Y-133599181D01*
X140146162Y-133551562D01*
X140050924Y-133456324D01*
X140003305Y-133361086D01*
X139955686Y-133170610D01*
X139955686Y-133027752D01*
X140003305Y-132837276D01*
X140050924Y-132742038D01*
X140146162Y-132646800D01*
X140289020Y-132599181D01*
X140384258Y-132599181D01*
X140527115Y-132646800D01*
X140574734Y-132694419D01*
X140908067Y-132599181D02*
X141527115Y-132599181D01*
X141193781Y-132980133D01*
X141336639Y-132980133D01*
X141431877Y-133027752D01*
X141479496Y-133075371D01*
X141527115Y-133170610D01*
X141527115Y-133408705D01*
X141479496Y-133503943D01*
X141431877Y-133551562D01*
X141336639Y-133599181D01*
X141050924Y-133599181D01*
X140955686Y-133551562D01*
X140908067Y-133503943D01*
X141539934Y-108713543D02*
X141492315Y-108761162D01*
X141349458Y-108808781D01*
X141254220Y-108808781D01*
X141111362Y-108761162D01*
X141016124Y-108665924D01*
X140968505Y-108570686D01*
X140920886Y-108380210D01*
X140920886Y-108237352D01*
X140968505Y-108046876D01*
X141016124Y-107951638D01*
X141111362Y-107856400D01*
X141254220Y-107808781D01*
X141349458Y-107808781D01*
X141492315Y-107856400D01*
X141539934Y-107904019D01*
X142397077Y-108142114D02*
X142397077Y-108808781D01*
X142158981Y-107761162D02*
X141920886Y-108475448D01*
X142539934Y-108475448D01*
X139279334Y-108789743D02*
X139231715Y-108837362D01*
X139088858Y-108884981D01*
X138993620Y-108884981D01*
X138850762Y-108837362D01*
X138755524Y-108742124D01*
X138707905Y-108646886D01*
X138660286Y-108456410D01*
X138660286Y-108313552D01*
X138707905Y-108123076D01*
X138755524Y-108027838D01*
X138850762Y-107932600D01*
X138993620Y-107884981D01*
X139088858Y-107884981D01*
X139231715Y-107932600D01*
X139279334Y-107980219D01*
X140184096Y-107884981D02*
X139707905Y-107884981D01*
X139660286Y-108361171D01*
X139707905Y-108313552D01*
X139803143Y-108265933D01*
X140041239Y-108265933D01*
X140136477Y-108313552D01*
X140184096Y-108361171D01*
X140231715Y-108456410D01*
X140231715Y-108694505D01*
X140184096Y-108789743D01*
X140136477Y-108837362D01*
X140041239Y-108884981D01*
X139803143Y-108884981D01*
X139707905Y-108837362D01*
X139660286Y-108789743D01*
X132497534Y-103608143D02*
X132449915Y-103655762D01*
X132307058Y-103703381D01*
X132211820Y-103703381D01*
X132068962Y-103655762D01*
X131973724Y-103560524D01*
X131926105Y-103465286D01*
X131878486Y-103274810D01*
X131878486Y-103131952D01*
X131926105Y-102941476D01*
X131973724Y-102846238D01*
X132068962Y-102751000D01*
X132211820Y-102703381D01*
X132307058Y-102703381D01*
X132449915Y-102751000D01*
X132497534Y-102798619D01*
X133354677Y-102703381D02*
X133164200Y-102703381D01*
X133068962Y-102751000D01*
X133021343Y-102798619D01*
X132926105Y-102941476D01*
X132878486Y-103131952D01*
X132878486Y-103512905D01*
X132926105Y-103608143D01*
X132973724Y-103655762D01*
X133068962Y-103703381D01*
X133259439Y-103703381D01*
X133354677Y-103655762D01*
X133402296Y-103608143D01*
X133449915Y-103512905D01*
X133449915Y-103274810D01*
X133402296Y-103179571D01*
X133354677Y-103131952D01*
X133259439Y-103084333D01*
X133068962Y-103084333D01*
X132973724Y-103131952D01*
X132926105Y-103179571D01*
X132878486Y-103274810D01*
X158024534Y-103379543D02*
X157976915Y-103427162D01*
X157834058Y-103474781D01*
X157738820Y-103474781D01*
X157595962Y-103427162D01*
X157500724Y-103331924D01*
X157453105Y-103236686D01*
X157405486Y-103046210D01*
X157405486Y-102903352D01*
X157453105Y-102712876D01*
X157500724Y-102617638D01*
X157595962Y-102522400D01*
X157738820Y-102474781D01*
X157834058Y-102474781D01*
X157976915Y-102522400D01*
X158024534Y-102570019D01*
X158357867Y-102474781D02*
X159024534Y-102474781D01*
X158595962Y-103474781D01*
X132472134Y-101195143D02*
X132424515Y-101242762D01*
X132281658Y-101290381D01*
X132186420Y-101290381D01*
X132043562Y-101242762D01*
X131948324Y-101147524D01*
X131900705Y-101052286D01*
X131853086Y-100861810D01*
X131853086Y-100718952D01*
X131900705Y-100528476D01*
X131948324Y-100433238D01*
X132043562Y-100338000D01*
X132186420Y-100290381D01*
X132281658Y-100290381D01*
X132424515Y-100338000D01*
X132472134Y-100385619D01*
X133043562Y-100718952D02*
X132948324Y-100671333D01*
X132900705Y-100623714D01*
X132853086Y-100528476D01*
X132853086Y-100480857D01*
X132900705Y-100385619D01*
X132948324Y-100338000D01*
X133043562Y-100290381D01*
X133234039Y-100290381D01*
X133329277Y-100338000D01*
X133376896Y-100385619D01*
X133424515Y-100480857D01*
X133424515Y-100528476D01*
X133376896Y-100623714D01*
X133329277Y-100671333D01*
X133234039Y-100718952D01*
X133043562Y-100718952D01*
X132948324Y-100766571D01*
X132900705Y-100814190D01*
X132853086Y-100909429D01*
X132853086Y-101099905D01*
X132900705Y-101195143D01*
X132948324Y-101242762D01*
X133043562Y-101290381D01*
X133234039Y-101290381D01*
X133329277Y-101242762D01*
X133376896Y-101195143D01*
X133424515Y-101099905D01*
X133424515Y-100909429D01*
X133376896Y-100814190D01*
X133329277Y-100766571D01*
X133234039Y-100718952D01*
X170114934Y-115901743D02*
X170067315Y-115949362D01*
X169924458Y-115996981D01*
X169829220Y-115996981D01*
X169686362Y-115949362D01*
X169591124Y-115854124D01*
X169543505Y-115758886D01*
X169495886Y-115568410D01*
X169495886Y-115425552D01*
X169543505Y-115235076D01*
X169591124Y-115139838D01*
X169686362Y-115044600D01*
X169829220Y-114996981D01*
X169924458Y-114996981D01*
X170067315Y-115044600D01*
X170114934Y-115092219D01*
X170591124Y-115996981D02*
X170781600Y-115996981D01*
X170876839Y-115949362D01*
X170924458Y-115901743D01*
X171019696Y-115758886D01*
X171067315Y-115568410D01*
X171067315Y-115187457D01*
X171019696Y-115092219D01*
X170972077Y-115044600D01*
X170876839Y-114996981D01*
X170686362Y-114996981D01*
X170591124Y-115044600D01*
X170543505Y-115092219D01*
X170495886Y-115187457D01*
X170495886Y-115425552D01*
X170543505Y-115520790D01*
X170591124Y-115568410D01*
X170686362Y-115616029D01*
X170876839Y-115616029D01*
X170972077Y-115568410D01*
X171019696Y-115520790D01*
X171067315Y-115425552D01*
X172661343Y-116892343D02*
X172613724Y-116939962D01*
X172470867Y-116987581D01*
X172375629Y-116987581D01*
X172232771Y-116939962D01*
X172137533Y-116844724D01*
X172089914Y-116749486D01*
X172042295Y-116559010D01*
X172042295Y-116416152D01*
X172089914Y-116225676D01*
X172137533Y-116130438D01*
X172232771Y-116035200D01*
X172375629Y-115987581D01*
X172470867Y-115987581D01*
X172613724Y-116035200D01*
X172661343Y-116082819D01*
X173613724Y-116987581D02*
X173042295Y-116987581D01*
X173328009Y-116987581D02*
X173328009Y-115987581D01*
X173232771Y-116130438D01*
X173137533Y-116225676D01*
X173042295Y-116273295D01*
X174232771Y-115987581D02*
X174328010Y-115987581D01*
X174423248Y-116035200D01*
X174470867Y-116082819D01*
X174518486Y-116178057D01*
X174566105Y-116368533D01*
X174566105Y-116606629D01*
X174518486Y-116797105D01*
X174470867Y-116892343D01*
X174423248Y-116939962D01*
X174328010Y-116987581D01*
X174232771Y-116987581D01*
X174137533Y-116939962D01*
X174089914Y-116892343D01*
X174042295Y-116797105D01*
X173994676Y-116606629D01*
X173994676Y-116368533D01*
X174042295Y-116178057D01*
X174089914Y-116082819D01*
X174137533Y-116035200D01*
X174232771Y-115987581D01*
X175023543Y-122277143D02*
X174975924Y-122324762D01*
X174833067Y-122372381D01*
X174737829Y-122372381D01*
X174594971Y-122324762D01*
X174499733Y-122229524D01*
X174452114Y-122134286D01*
X174404495Y-121943810D01*
X174404495Y-121800952D01*
X174452114Y-121610476D01*
X174499733Y-121515238D01*
X174594971Y-121420000D01*
X174737829Y-121372381D01*
X174833067Y-121372381D01*
X174975924Y-121420000D01*
X175023543Y-121467619D01*
X175975924Y-122372381D02*
X175404495Y-122372381D01*
X175690209Y-122372381D02*
X175690209Y-121372381D01*
X175594971Y-121515238D01*
X175499733Y-121610476D01*
X175404495Y-121658095D01*
X176928305Y-122372381D02*
X176356876Y-122372381D01*
X176642590Y-122372381D02*
X176642590Y-121372381D01*
X176547352Y-121515238D01*
X176452114Y-121610476D01*
X176356876Y-121658095D01*
X171268943Y-103893585D02*
X171316562Y-103941204D01*
X171364181Y-104084061D01*
X171364181Y-104179299D01*
X171316562Y-104322157D01*
X171221324Y-104417395D01*
X171126086Y-104465014D01*
X170935610Y-104512633D01*
X170792752Y-104512633D01*
X170602276Y-104465014D01*
X170507038Y-104417395D01*
X170411800Y-104322157D01*
X170364181Y-104179299D01*
X170364181Y-104084061D01*
X170411800Y-103941204D01*
X170459419Y-103893585D01*
X170364181Y-103274538D02*
X170364181Y-103084061D01*
X170411800Y-102988823D01*
X170507038Y-102893585D01*
X170697514Y-102845966D01*
X171030848Y-102845966D01*
X171221324Y-102893585D01*
X171316562Y-102988823D01*
X171364181Y-103084061D01*
X171364181Y-103274538D01*
X171316562Y-103369776D01*
X171221324Y-103465014D01*
X171030848Y-103512633D01*
X170697514Y-103512633D01*
X170507038Y-103465014D01*
X170411800Y-103369776D01*
X170364181Y-103274538D01*
X171364181Y-102417395D02*
X170364181Y-102417395D01*
X171364181Y-101845966D01*
X170364181Y-101845966D01*
X170459419Y-101417395D02*
X170411800Y-101369776D01*
X170364181Y-101274538D01*
X170364181Y-101036442D01*
X170411800Y-100941204D01*
X170459419Y-100893585D01*
X170554657Y-100845966D01*
X170649895Y-100845966D01*
X170792752Y-100893585D01*
X171364181Y-101465014D01*
X171364181Y-100845966D01*
X170374085Y-136415981D02*
X170374085Y-135415981D01*
X170612180Y-135415981D01*
X170755038Y-135463600D01*
X170850276Y-135558838D01*
X170897895Y-135654076D01*
X170945514Y-135844552D01*
X170945514Y-135987410D01*
X170897895Y-136177886D01*
X170850276Y-136273124D01*
X170755038Y-136368362D01*
X170612180Y-136415981D01*
X170374085Y-136415981D01*
X171897895Y-136415981D02*
X171326466Y-136415981D01*
X171612180Y-136415981D02*
X171612180Y-135415981D01*
X171516942Y-135558838D01*
X171421704Y-135654076D01*
X171326466Y-135701695D01*
X159205705Y-85466181D02*
X159205705Y-84466181D01*
X159586658Y-84466181D01*
X159681896Y-84513800D01*
X159729515Y-84561419D01*
X159777134Y-84656657D01*
X159777134Y-84799514D01*
X159729515Y-84894752D01*
X159681896Y-84942371D01*
X159586658Y-84989990D01*
X159205705Y-84989990D01*
X160729515Y-85466181D02*
X160158086Y-85466181D01*
X160443800Y-85466181D02*
X160443800Y-84466181D01*
X160348562Y-84609038D01*
X160253324Y-84704276D01*
X160158086Y-84751895D01*
X162200305Y-71159981D02*
X162200305Y-70159981D01*
X162581258Y-70159981D01*
X162676496Y-70207600D01*
X162724115Y-70255219D01*
X162771734Y-70350457D01*
X162771734Y-70493314D01*
X162724115Y-70588552D01*
X162676496Y-70636171D01*
X162581258Y-70683790D01*
X162200305Y-70683790D01*
X163152686Y-70255219D02*
X163200305Y-70207600D01*
X163295543Y-70159981D01*
X163533639Y-70159981D01*
X163628877Y-70207600D01*
X163676496Y-70255219D01*
X163724115Y-70350457D01*
X163724115Y-70445695D01*
X163676496Y-70588552D01*
X163105067Y-71159981D01*
X163724115Y-71159981D01*
X147623305Y-64739781D02*
X147623305Y-63739781D01*
X148004258Y-63739781D01*
X148099496Y-63787400D01*
X148147115Y-63835019D01*
X148194734Y-63930257D01*
X148194734Y-64073114D01*
X148147115Y-64168352D01*
X148099496Y-64215971D01*
X148004258Y-64263590D01*
X147623305Y-64263590D01*
X149051877Y-64073114D02*
X149051877Y-64739781D01*
X148813781Y-63692162D02*
X148575686Y-64406448D01*
X149194734Y-64406448D01*
X171118305Y-142920981D02*
X171118305Y-141920981D01*
X171499258Y-141920981D01*
X171594496Y-141968600D01*
X171642115Y-142016219D01*
X171689734Y-142111457D01*
X171689734Y-142254314D01*
X171642115Y-142349552D01*
X171594496Y-142397171D01*
X171499258Y-142444790D01*
X171118305Y-142444790D01*
X172594496Y-141920981D02*
X172118305Y-141920981D01*
X172070686Y-142397171D01*
X172118305Y-142349552D01*
X172213543Y-142301933D01*
X172451639Y-142301933D01*
X172546877Y-142349552D01*
X172594496Y-142397171D01*
X172642115Y-142492410D01*
X172642115Y-142730505D01*
X172594496Y-142825743D01*
X172546877Y-142873362D01*
X172451639Y-142920981D01*
X172213543Y-142920981D01*
X172118305Y-142873362D01*
X172070686Y-142825743D01*
X138055362Y-88888819D02*
X137960124Y-88841200D01*
X137864886Y-88745962D01*
X137722029Y-88603105D01*
X137626790Y-88555486D01*
X137531552Y-88555486D01*
X137579171Y-88793581D02*
X137483933Y-88745962D01*
X137388695Y-88650724D01*
X137341076Y-88460248D01*
X137341076Y-88126914D01*
X137388695Y-87936438D01*
X137483933Y-87841200D01*
X137579171Y-87793581D01*
X137769648Y-87793581D01*
X137864886Y-87841200D01*
X137960124Y-87936438D01*
X138007743Y-88126914D01*
X138007743Y-88460248D01*
X137960124Y-88650724D01*
X137864886Y-88745962D01*
X137769648Y-88793581D01*
X137579171Y-88793581D01*
X138960124Y-88793581D02*
X138388695Y-88793581D01*
X138674409Y-88793581D02*
X138674409Y-87793581D01*
X138579171Y-87936438D01*
X138483933Y-88031676D01*
X138388695Y-88079295D01*
X144837162Y-78093819D02*
X144741924Y-78046200D01*
X144646686Y-77950962D01*
X144503829Y-77808105D01*
X144408590Y-77760486D01*
X144313352Y-77760486D01*
X144360971Y-77998581D02*
X144265733Y-77950962D01*
X144170495Y-77855724D01*
X144122876Y-77665248D01*
X144122876Y-77331914D01*
X144170495Y-77141438D01*
X144265733Y-77046200D01*
X144360971Y-76998581D01*
X144551448Y-76998581D01*
X144646686Y-77046200D01*
X144741924Y-77141438D01*
X144789543Y-77331914D01*
X144789543Y-77665248D01*
X144741924Y-77855724D01*
X144646686Y-77950962D01*
X144551448Y-77998581D01*
X144360971Y-77998581D01*
X145170495Y-77093819D02*
X145218114Y-77046200D01*
X145313352Y-76998581D01*
X145551448Y-76998581D01*
X145646686Y-77046200D01*
X145694305Y-77093819D01*
X145741924Y-77189057D01*
X145741924Y-77284295D01*
X145694305Y-77427152D01*
X145122876Y-77998581D01*
X145741924Y-77998581D01*
X139909562Y-78220819D02*
X139814324Y-78173200D01*
X139719086Y-78077962D01*
X139576229Y-77935105D01*
X139480990Y-77887486D01*
X139385752Y-77887486D01*
X139433371Y-78125581D02*
X139338133Y-78077962D01*
X139242895Y-77982724D01*
X139195276Y-77792248D01*
X139195276Y-77458914D01*
X139242895Y-77268438D01*
X139338133Y-77173200D01*
X139433371Y-77125581D01*
X139623848Y-77125581D01*
X139719086Y-77173200D01*
X139814324Y-77268438D01*
X139861943Y-77458914D01*
X139861943Y-77792248D01*
X139814324Y-77982724D01*
X139719086Y-78077962D01*
X139623848Y-78125581D01*
X139433371Y-78125581D01*
X140195276Y-77125581D02*
X140814324Y-77125581D01*
X140480990Y-77506533D01*
X140623848Y-77506533D01*
X140719086Y-77554152D01*
X140766705Y-77601771D01*
X140814324Y-77697010D01*
X140814324Y-77935105D01*
X140766705Y-78030343D01*
X140719086Y-78077962D01*
X140623848Y-78125581D01*
X140338133Y-78125581D01*
X140242895Y-78077962D01*
X140195276Y-78030343D01*
X175012362Y-125312419D02*
X174917124Y-125264800D01*
X174821886Y-125169562D01*
X174679029Y-125026705D01*
X174583790Y-124979086D01*
X174488552Y-124979086D01*
X174536171Y-125217181D02*
X174440933Y-125169562D01*
X174345695Y-125074324D01*
X174298076Y-124883848D01*
X174298076Y-124550514D01*
X174345695Y-124360038D01*
X174440933Y-124264800D01*
X174536171Y-124217181D01*
X174726648Y-124217181D01*
X174821886Y-124264800D01*
X174917124Y-124360038D01*
X174964743Y-124550514D01*
X174964743Y-124883848D01*
X174917124Y-125074324D01*
X174821886Y-125169562D01*
X174726648Y-125217181D01*
X174536171Y-125217181D01*
X175821886Y-124550514D02*
X175821886Y-125217181D01*
X175583790Y-124169562D02*
X175345695Y-124883848D01*
X175964743Y-124883848D01*
X165009534Y-76195181D02*
X164676200Y-75718990D01*
X164438105Y-76195181D02*
X164438105Y-75195181D01*
X164819058Y-75195181D01*
X164914296Y-75242800D01*
X164961915Y-75290419D01*
X165009534Y-75385657D01*
X165009534Y-75528514D01*
X164961915Y-75623752D01*
X164914296Y-75671371D01*
X164819058Y-75718990D01*
X164438105Y-75718990D01*
X165961915Y-76195181D02*
X165390486Y-76195181D01*
X165676200Y-76195181D02*
X165676200Y-75195181D01*
X165580962Y-75338038D01*
X165485724Y-75433276D01*
X165390486Y-75480895D01*
X160996334Y-76144381D02*
X160663000Y-75668190D01*
X160424905Y-76144381D02*
X160424905Y-75144381D01*
X160805858Y-75144381D01*
X160901096Y-75192000D01*
X160948715Y-75239619D01*
X160996334Y-75334857D01*
X160996334Y-75477714D01*
X160948715Y-75572952D01*
X160901096Y-75620571D01*
X160805858Y-75668190D01*
X160424905Y-75668190D01*
X161377286Y-75239619D02*
X161424905Y-75192000D01*
X161520143Y-75144381D01*
X161758239Y-75144381D01*
X161853477Y-75192000D01*
X161901096Y-75239619D01*
X161948715Y-75334857D01*
X161948715Y-75430095D01*
X161901096Y-75572952D01*
X161329667Y-76144381D01*
X161948715Y-76144381D01*
X131405334Y-90673181D02*
X131072000Y-90196990D01*
X130833905Y-90673181D02*
X130833905Y-89673181D01*
X131214858Y-89673181D01*
X131310096Y-89720800D01*
X131357715Y-89768419D01*
X131405334Y-89863657D01*
X131405334Y-90006514D01*
X131357715Y-90101752D01*
X131310096Y-90149371D01*
X131214858Y-90196990D01*
X130833905Y-90196990D01*
X131738667Y-89673181D02*
X132357715Y-89673181D01*
X132024381Y-90054133D01*
X132167239Y-90054133D01*
X132262477Y-90101752D01*
X132310096Y-90149371D01*
X132357715Y-90244610D01*
X132357715Y-90482705D01*
X132310096Y-90577943D01*
X132262477Y-90625562D01*
X132167239Y-90673181D01*
X131881524Y-90673181D01*
X131786286Y-90625562D01*
X131738667Y-90577943D01*
X148474134Y-72562981D02*
X148140800Y-72086790D01*
X147902705Y-72562981D02*
X147902705Y-71562981D01*
X148283658Y-71562981D01*
X148378896Y-71610600D01*
X148426515Y-71658219D01*
X148474134Y-71753457D01*
X148474134Y-71896314D01*
X148426515Y-71991552D01*
X148378896Y-72039171D01*
X148283658Y-72086790D01*
X147902705Y-72086790D01*
X149331277Y-71896314D02*
X149331277Y-72562981D01*
X149093181Y-71515362D02*
X148855086Y-72229648D01*
X149474134Y-72229648D01*
X135723334Y-72435981D02*
X135390000Y-71959790D01*
X135151905Y-72435981D02*
X135151905Y-71435981D01*
X135532858Y-71435981D01*
X135628096Y-71483600D01*
X135675715Y-71531219D01*
X135723334Y-71626457D01*
X135723334Y-71769314D01*
X135675715Y-71864552D01*
X135628096Y-71912171D01*
X135532858Y-71959790D01*
X135151905Y-71959790D01*
X136628096Y-71435981D02*
X136151905Y-71435981D01*
X136104286Y-71912171D01*
X136151905Y-71864552D01*
X136247143Y-71816933D01*
X136485239Y-71816933D01*
X136580477Y-71864552D01*
X136628096Y-71912171D01*
X136675715Y-72007410D01*
X136675715Y-72245505D01*
X136628096Y-72340743D01*
X136580477Y-72388362D01*
X136485239Y-72435981D01*
X136247143Y-72435981D01*
X136151905Y-72388362D01*
X136104286Y-72340743D01*
X132116534Y-120848381D02*
X131783200Y-120372190D01*
X131545105Y-120848381D02*
X131545105Y-119848381D01*
X131926058Y-119848381D01*
X132021296Y-119896000D01*
X132068915Y-119943619D01*
X132116534Y-120038857D01*
X132116534Y-120181714D01*
X132068915Y-120276952D01*
X132021296Y-120324571D01*
X131926058Y-120372190D01*
X131545105Y-120372190D01*
X132973677Y-119848381D02*
X132783200Y-119848381D01*
X132687962Y-119896000D01*
X132640343Y-119943619D01*
X132545105Y-120086476D01*
X132497486Y-120276952D01*
X132497486Y-120657905D01*
X132545105Y-120753143D01*
X132592724Y-120800762D01*
X132687962Y-120848381D01*
X132878439Y-120848381D01*
X132973677Y-120800762D01*
X133021296Y-120753143D01*
X133068915Y-120657905D01*
X133068915Y-120419810D01*
X133021296Y-120324571D01*
X132973677Y-120276952D01*
X132878439Y-120229333D01*
X132687962Y-120229333D01*
X132592724Y-120276952D01*
X132545105Y-120324571D01*
X132497486Y-120419810D01*
X132078434Y-123147081D02*
X131745100Y-122670890D01*
X131507005Y-123147081D02*
X131507005Y-122147081D01*
X131887958Y-122147081D01*
X131983196Y-122194700D01*
X132030815Y-122242319D01*
X132078434Y-122337557D01*
X132078434Y-122480414D01*
X132030815Y-122575652D01*
X131983196Y-122623271D01*
X131887958Y-122670890D01*
X131507005Y-122670890D01*
X132411767Y-122147081D02*
X133078434Y-122147081D01*
X132649862Y-123147081D01*
X132065734Y-125471181D02*
X131732400Y-124994990D01*
X131494305Y-125471181D02*
X131494305Y-124471181D01*
X131875258Y-124471181D01*
X131970496Y-124518800D01*
X132018115Y-124566419D01*
X132065734Y-124661657D01*
X132065734Y-124804514D01*
X132018115Y-124899752D01*
X131970496Y-124947371D01*
X131875258Y-124994990D01*
X131494305Y-124994990D01*
X132637162Y-124899752D02*
X132541924Y-124852133D01*
X132494305Y-124804514D01*
X132446686Y-124709276D01*
X132446686Y-124661657D01*
X132494305Y-124566419D01*
X132541924Y-124518800D01*
X132637162Y-124471181D01*
X132827639Y-124471181D01*
X132922877Y-124518800D01*
X132970496Y-124566419D01*
X133018115Y-124661657D01*
X133018115Y-124709276D01*
X132970496Y-124804514D01*
X132922877Y-124852133D01*
X132827639Y-124899752D01*
X132637162Y-124899752D01*
X132541924Y-124947371D01*
X132494305Y-124994990D01*
X132446686Y-125090229D01*
X132446686Y-125280705D01*
X132494305Y-125375943D01*
X132541924Y-125423562D01*
X132637162Y-125471181D01*
X132827639Y-125471181D01*
X132922877Y-125423562D01*
X132970496Y-125375943D01*
X133018115Y-125280705D01*
X133018115Y-125090229D01*
X132970496Y-124994990D01*
X132922877Y-124947371D01*
X132827639Y-124899752D01*
X132065734Y-127858781D02*
X131732400Y-127382590D01*
X131494305Y-127858781D02*
X131494305Y-126858781D01*
X131875258Y-126858781D01*
X131970496Y-126906400D01*
X132018115Y-126954019D01*
X132065734Y-127049257D01*
X132065734Y-127192114D01*
X132018115Y-127287352D01*
X131970496Y-127334971D01*
X131875258Y-127382590D01*
X131494305Y-127382590D01*
X132541924Y-127858781D02*
X132732400Y-127858781D01*
X132827639Y-127811162D01*
X132875258Y-127763543D01*
X132970496Y-127620686D01*
X133018115Y-127430210D01*
X133018115Y-127049257D01*
X132970496Y-126954019D01*
X132922877Y-126906400D01*
X132827639Y-126858781D01*
X132637162Y-126858781D01*
X132541924Y-126906400D01*
X132494305Y-126954019D01*
X132446686Y-127049257D01*
X132446686Y-127287352D01*
X132494305Y-127382590D01*
X132541924Y-127430210D01*
X132637162Y-127477829D01*
X132827639Y-127477829D01*
X132922877Y-127430210D01*
X132970496Y-127382590D01*
X133018115Y-127287352D01*
X177080943Y-114210781D02*
X176747609Y-113734590D01*
X176509514Y-114210781D02*
X176509514Y-113210781D01*
X176890467Y-113210781D01*
X176985705Y-113258400D01*
X177033324Y-113306019D01*
X177080943Y-113401257D01*
X177080943Y-113544114D01*
X177033324Y-113639352D01*
X176985705Y-113686971D01*
X176890467Y-113734590D01*
X176509514Y-113734590D01*
X178033324Y-114210781D02*
X177461895Y-114210781D01*
X177747609Y-114210781D02*
X177747609Y-113210781D01*
X177652371Y-113353638D01*
X177557133Y-113448876D01*
X177461895Y-113496495D01*
X178652371Y-113210781D02*
X178747610Y-113210781D01*
X178842848Y-113258400D01*
X178890467Y-113306019D01*
X178938086Y-113401257D01*
X178985705Y-113591733D01*
X178985705Y-113829829D01*
X178938086Y-114020305D01*
X178890467Y-114115543D01*
X178842848Y-114163162D01*
X178747610Y-114210781D01*
X178652371Y-114210781D01*
X178557133Y-114163162D01*
X178509514Y-114115543D01*
X178461895Y-114020305D01*
X178414276Y-113829829D01*
X178414276Y-113591733D01*
X178461895Y-113401257D01*
X178509514Y-113306019D01*
X178557133Y-113258400D01*
X178652371Y-113210781D01*
X176379943Y-91671981D02*
X176046609Y-91195790D01*
X175808514Y-91671981D02*
X175808514Y-90671981D01*
X176189467Y-90671981D01*
X176284705Y-90719600D01*
X176332324Y-90767219D01*
X176379943Y-90862457D01*
X176379943Y-91005314D01*
X176332324Y-91100552D01*
X176284705Y-91148171D01*
X176189467Y-91195790D01*
X175808514Y-91195790D01*
X177332324Y-91671981D02*
X176760895Y-91671981D01*
X177046609Y-91671981D02*
X177046609Y-90671981D01*
X176951371Y-90814838D01*
X176856133Y-90910076D01*
X176760895Y-90957695D01*
X178284705Y-91671981D02*
X177713276Y-91671981D01*
X177998990Y-91671981D02*
X177998990Y-90671981D01*
X177903752Y-90814838D01*
X177808514Y-90910076D01*
X177713276Y-90957695D01*
X174109143Y-128874781D02*
X173775809Y-128398590D01*
X173537714Y-128874781D02*
X173537714Y-127874781D01*
X173918667Y-127874781D01*
X174013905Y-127922400D01*
X174061524Y-127970019D01*
X174109143Y-128065257D01*
X174109143Y-128208114D01*
X174061524Y-128303352D01*
X174013905Y-128350971D01*
X173918667Y-128398590D01*
X173537714Y-128398590D01*
X175061524Y-128874781D02*
X174490095Y-128874781D01*
X174775809Y-128874781D02*
X174775809Y-127874781D01*
X174680571Y-128017638D01*
X174585333Y-128112876D01*
X174490095Y-128160495D01*
X175442476Y-127970019D02*
X175490095Y-127922400D01*
X175585333Y-127874781D01*
X175823429Y-127874781D01*
X175918667Y-127922400D01*
X175966286Y-127970019D01*
X176013905Y-128065257D01*
X176013905Y-128160495D01*
X175966286Y-128303352D01*
X175394857Y-128874781D01*
X176013905Y-128874781D01*
X132733895Y-84670562D02*
X132876752Y-84718181D01*
X133114848Y-84718181D01*
X133210086Y-84670562D01*
X133257705Y-84622943D01*
X133305324Y-84527705D01*
X133305324Y-84432467D01*
X133257705Y-84337229D01*
X133210086Y-84289610D01*
X133114848Y-84241990D01*
X132924371Y-84194371D01*
X132829133Y-84146752D01*
X132781514Y-84099133D01*
X132733895Y-84003895D01*
X132733895Y-83908657D01*
X132781514Y-83813419D01*
X132829133Y-83765800D01*
X132924371Y-83718181D01*
X133162467Y-83718181D01*
X133305324Y-83765800D01*
X133733895Y-84718181D02*
X133733895Y-83718181D01*
X134114848Y-83718181D01*
X134210086Y-83765800D01*
X134257705Y-83813419D01*
X134305324Y-83908657D01*
X134305324Y-84051514D01*
X134257705Y-84146752D01*
X134210086Y-84194371D01*
X134114848Y-84241990D01*
X133733895Y-84241990D01*
X135257705Y-84718181D02*
X134686276Y-84718181D01*
X134971990Y-84718181D02*
X134971990Y-83718181D01*
X134876752Y-83861038D01*
X134781514Y-83956276D01*
X134686276Y-84003895D01*
X140577321Y-97531938D02*
X141149741Y-98104358D01*
X141250756Y-98138030D01*
X141318099Y-98138030D01*
X141419114Y-98104358D01*
X141553802Y-97969670D01*
X141587474Y-97868655D01*
X141587474Y-97801312D01*
X141553802Y-97700297D01*
X140981382Y-97127877D01*
X142395596Y-97127877D02*
X141991534Y-97531938D01*
X142193565Y-97329908D02*
X141486458Y-96622801D01*
X141520130Y-96791160D01*
X141520130Y-96925846D01*
X141486458Y-97026862D01*
X168706895Y-84339181D02*
X168706895Y-85148705D01*
X168754514Y-85243943D01*
X168802133Y-85291562D01*
X168897371Y-85339181D01*
X169087848Y-85339181D01*
X169183086Y-85291562D01*
X169230705Y-85243943D01*
X169278324Y-85148705D01*
X169278324Y-84339181D01*
X169706895Y-84434419D02*
X169754514Y-84386800D01*
X169849752Y-84339181D01*
X170087848Y-84339181D01*
X170183086Y-84386800D01*
X170230705Y-84434419D01*
X170278324Y-84529657D01*
X170278324Y-84624895D01*
X170230705Y-84767752D01*
X169659276Y-85339181D01*
X170278324Y-85339181D01*
X146467581Y-136208924D02*
X147467581Y-135875591D01*
X146467581Y-135542257D01*
X147467581Y-134637495D02*
X146991390Y-134970829D01*
X147467581Y-135208924D02*
X146467581Y-135208924D01*
X146467581Y-134827971D01*
X146515200Y-134732733D01*
X146562819Y-134685114D01*
X146658057Y-134637495D01*
X146800914Y-134637495D01*
X146896152Y-134685114D01*
X146943771Y-134732733D01*
X146991390Y-134827971D01*
X146991390Y-135208924D01*
X147467581Y-133685114D02*
X147467581Y-134256543D01*
X147467581Y-133970829D02*
X146467581Y-133970829D01*
X146610438Y-134066067D01*
X146705676Y-134161305D01*
X146753295Y-134256543D01*
X139063505Y-147924781D02*
X139063505Y-146924781D01*
X139444458Y-146924781D01*
X139539696Y-146972400D01*
X139587315Y-147020019D01*
X139634934Y-147115257D01*
X139634934Y-147258114D01*
X139587315Y-147353352D01*
X139539696Y-147400971D01*
X139444458Y-147448590D01*
X139063505Y-147448590D01*
X139968267Y-146924781D02*
X140587315Y-146924781D01*
X140253981Y-147305733D01*
X140396839Y-147305733D01*
X140492077Y-147353352D01*
X140539696Y-147400971D01*
X140587315Y-147496210D01*
X140587315Y-147734305D01*
X140539696Y-147829543D01*
X140492077Y-147877162D01*
X140396839Y-147924781D01*
X140111124Y-147924781D01*
X140015886Y-147877162D01*
X139968267Y-147829543D01*
X151585705Y-147950181D02*
X151585705Y-146950181D01*
X151966658Y-146950181D01*
X152061896Y-146997800D01*
X152109515Y-147045419D01*
X152157134Y-147140657D01*
X152157134Y-147283514D01*
X152109515Y-147378752D01*
X152061896Y-147426371D01*
X151966658Y-147473990D01*
X151585705Y-147473990D01*
X153014277Y-146950181D02*
X152823800Y-146950181D01*
X152728562Y-146997800D01*
X152680943Y-147045419D01*
X152585705Y-147188276D01*
X152538086Y-147378752D01*
X152538086Y-147759705D01*
X152585705Y-147854943D01*
X152633324Y-147902562D01*
X152728562Y-147950181D01*
X152919039Y-147950181D01*
X153014277Y-147902562D01*
X153061896Y-147854943D01*
X153109515Y-147759705D01*
X153109515Y-147521610D01*
X153061896Y-147426371D01*
X153014277Y-147378752D01*
X152919039Y-147331133D01*
X152728562Y-147331133D01*
X152633324Y-147378752D01*
X152585705Y-147426371D01*
X152538086Y-147521610D01*
M02*
